<svg xmlns="http://www.w3.org/2000/svg" xmlns:xlink="http://www.w3.org/1999/xlink" viewBox="0 0 147.72 145.79"><defs><style>.cls-1,.cls-10,.cls-4,.cls-5{stroke:#fff;stroke-miterlimit:10;}.cls-2{isolation:isolate;}.cls-3{clip-path:url(#clip-path);}.cls-4{opacity:0.5;}.cls-10,.cls-4{mix-blend-mode:multiply;}.cls-5{fill:none;}.cls-6{clip-path:url(#clip-path-2);}.cls-7{clip-path:url(#clip-path-3);}.cls-8{clip-path:url(#clip-path-4);}.cls-9{clip-path:url(#clip-path-5);}.cls-10{opacity:0.3;}.cls-11{clip-path:url(#clip-path-6);}.cls-12{clip-path:url(#clip-path-7);}.cls-13{clip-path:url(#clip-path-8);}.cls-14{clip-path:url(#clip-path-9);}.cls-15{clip-path:url(#clip-path-10);}</style><clipPath id="clip-path"><path class="cls-1" d="M97.47,78.28A26,26,0,0,0,97,74.41c-.4-1.89-1.45-2-1.45-2-.4-3.26-.84-6-2.85-8-1.69-3.38-4-6.32-4.71-8.41s-.73-3.82-.73-7-.48-4.87-1.81-5.32-3-3.1-3-3.1a15.57,15.57,0,0,0-1.28-3.54,23.79,23.79,0,0,0-.25-3.94c1-2.38.16-3.75.16-3.75s1.33-1.28,1.33-2.37a1.29,1.29,0,0,0-.76-1.33A2.83,2.83,0,0,0,82.41,24c1.33,0,1.65-.6,2.34-2.37,0,0,1.71.3,2.45-.45,1.57-.32.81-1.53.81-1.53,1.17.24,1.49-1,1-2.73.73.2.73-1-.2-2.78a5.61,5.61,0,0,0-3.3-2.3c-.6-4.14-4.63-5.71-4.63-5.71s-2.74-1.47-4.46-1.06S74.34,7.6,74.15,8.78s-1.88,4-2.84,6.25a16.59,16.59,0,0,0-1.61,6c0,1.66,0,2,0,2s-.16,7.8-.16,10.19a42.05,42.05,0,0,0,.37,5,19,19,0,0,0-1.42,5.39,5.08,5.08,0,0,1-1.23,2.45,6.88,6.88,0,0,0-2.31,4.72c0,2.09.43,8.05.43,8.05s-3.17,2.31-4,4.4a6.2,6.2,0,0,1-2.89,3.6,3.1,3.1,0,0,0-1.51,1.55s4.24-.59,5.16-.59a7.08,7.08,0,0,1,4.83,2.9c1.28,2,3.7,3.27,6.7,3.81s12.4,0,14.44,3.81,2,7.3,4.4,6S97.47,78.28,97.47,78.28Z"/></clipPath><clipPath id="clip-path-2"><path class="cls-1" d="M123,125s8.35-1.12,10.14-.82,5.52,1.19,6.42,2.68a42.15,42.15,0,0,1,3.35,7.31c1.19,3.36,3.43,10.81,3.43,10.81H1.18s7.9-17.3,8.57-18,4.72-5.07,6.61-5.07,23.38,2.46,32.33,4.33,29.74,3.43,43.24,1.56S123,125,123,125Z"/></clipPath><clipPath id="clip-path-3"><path class="cls-1" d="M97.47,78.28s2.21-1.73,3.94-1.53a4.79,4.79,0,0,1,2.54.93s6.22.16,7.55-.33c-2.45-2.44-3.75-3.6-2.92-4.42s4.58.12,6.52,3.58c1.49-.65,2.73-2,2.37-3s-3.3-3.58-2.53-5c0,0,1.63,1.31,2.77,2.45s2.9,1.81,2.9,3.67a8.48,8.48,0,0,0,.12,2.13,6.5,6.5,0,0,0,.44-2c0-1,2.06-1.61,2.06-1.61s.08,1.65.08,3a8.28,8.28,0,0,1-.77,2.93s-1.28,3.1-1.69,4.35-1.93,5.52-2.49,6.08l-.57.56s-.44,1.13-1,1.13a.56.56,0,0,1-.61-.4s-.58.9-1.28.2L114,90a6.46,6.46,0,0,0-1,.73,10.56,10.56,0,0,1-.52,6c0,2.9-.32,5.68.08,7.73a9.87,9.87,0,0,0,1.65,4.55c1.05,1.49,2.42,3.46,2.66,4.59s1.29,1,1.85,2.09a19.42,19.42,0,0,1,1,2.34,32.53,32.53,0,0,1-3.45.43,4.07,4.07,0,0,1-1.32-.14l2.71,6.28a5.7,5.7,0,0,1-3.38,1.34,11.2,11.2,0,0,1-3.06-.37,22.07,22.07,0,0,1-.53-4.56,31.8,31.8,0,0,0-1.24-8.48,7.92,7.92,0,0,1-.86-4.19c0-2.31.16-5.15-1.07-6.39a2.35,2.35,0,0,1-1.5.65c1.37,1.37,1.71,4.67,2,6.87s-1.21,2.92-2.15,2l-.94-.94s-.62,3.73-1.26,4.38-2.9,1.93-2.9.27.38-2.31-.7-3.39-2.41-2.46-2.41-2.46l-1.18.16s.11,7,.11,7.51-2.85-.32-3.49-1a7,7,0,0,1-1.4-4.61c0-2.26-2.25-10.73-2-13.36S88.42,95.29,90,93s0-5.58.91-7.57a8.21,8.21,0,0,1,2.47-3s.91-2.26,2.58-2.9Z"/></clipPath><clipPath id="clip-path-4"><path class="cls-1" d="M80.92,6.11s-3-4.39-8.13-4.39c-6.47,0-7.4,2.74-10.78,2.74S58.79,1,58.79,1s-.68-.45-1.16.57a4.17,4.17,0,0,0,1.81,5,7.78,7.78,0,0,0,5.09,1.16c.6-.08,4.33-2.11,5.7-2.27,1.7-.19,3.45,0,4.37,2.07.69-.69,1.21-1.56,2.88-1.56S80.92,6.11,80.92,6.11Z"/></clipPath><clipPath id="clip-path-5"><path class="cls-1" d="M75.12,9.82a12.74,12.74,0,0,1-1.59-1.31,5.6,5.6,0,0,0-2.79-2.15,35.54,35.54,0,0,1-3.83-1.72c-1-.42-2.89-.33-3.49.27s.16,2.42,1.85,3.68,4.61,2.25,5.74,2.87a2.36,2.36,0,0,1,1.26,1.61,1.66,1.66,0,0,0,2.26-.72A3.63,3.63,0,0,0,75.12,9.82Z"/></clipPath><clipPath id="clip-path-6"><path class="cls-1" d="M97.12,79.49a2.1,2.1,0,0,0,.16,3,6,6,0,0,1,1.48,3.87s4,3.06,5.69.24,1.26-4.72-.24-5.85a9.18,9.18,0,0,0-4.73-2A4.48,4.48,0,0,0,97.12,79.49Z"/></clipPath><clipPath id="clip-path-7"><path class="cls-1" d="M70.7,86.29s-1.12-2.82-2.86-2.82-2.49,2.62-2.49,2.62a3.87,3.87,0,0,0,1.13.28c.44,0,.36,2,.36,2a24.34,24.34,0,0,1,2.45-1.45Z"/></clipPath><clipPath id="clip-path-8"><path class="cls-1" d="M50.74,108.75s-.3-3.56.28-4.15,3.3-2.29,4.06-3.46S57,97.44,58,97.44s4.39-.08,5.64-2.74,1.48-4.3,2.78-5.59S70.1,86,72.92,86,79.28,89.15,81,91.8s2.77,3.91,4.26,4.79a22.37,22.37,0,0,1,3.87,3.58c1.16,1.17,4.63,1.69,4.91,1.69s5.44.13,6.08.29,2.25,1.69,2.25,2.81a5.85,5.85,0,0,1-2.33,3.75,24.07,24.07,0,0,1-6.16.88c-1.41,0-4.63-.2-5.36-.2S80,109,78.15,107.14s-2.74-2.18-3.87-4-2.13-2.57-3.42-2.77-3.42-.65-4.06-.65-5.23,1.65-6.4,2a6.76,6.76,0,0,0-3.87,3.3c-.88,1.82-1.08,3.47-2.37,4S50.74,108.75,50.74,108.75Z"/></clipPath><clipPath id="clip-path-9"><path class="cls-1" d="M100.61,100.5A5.33,5.33,0,0,0,97,99.69a5.51,5.51,0,0,0-3.91,2.9c-.76,1.37-.48,1.65-.48,1.65a4.65,4.65,0,0,0,3,.36c2-.28,3.26-1.13,3.78-2.21A8.66,8.66,0,0,1,100.61,100.5Z"/></clipPath><clipPath id="clip-path-10"><path class="cls-1" d="M82.7,98.81s.42,2.19-.41,3-1.89,1.21-2.17,2.74a2.1,2.1,0,0,0,.56,2.14,8.64,8.64,0,0,0-2.77,1.56,2.73,2.73,0,0,0-1,1.66,13.8,13.8,0,0,0,4.06.92,33.62,33.62,0,0,1,6.84,1.21,12,12,0,0,0,3.22.44,3.36,3.36,0,0,0-.93-3.9,24.87,24.87,0,0,0-4.06-3.26s2.29-.45,2.29-2.42S82.7,98.81,82.7,98.81Z"/></clipPath></defs><g class="cls-2"><g id="图层_1" data-name="图层 1"><path class="cls-1" d="M38.71,115.11s-5.94-6.83.68-14.49,11.5-19.49,17.09-26.15,19.25-10,19.25-10,9.69,2.35,15.62,10.17S104.92,94.06,108.1,98.4s4.79,19.66,4.79,22-30.77,2.91-37.95,1.71S38.71,115.11,38.71,115.11Z"/><path d="M97.47,78.28A26,26,0,0,0,97,74.41c-.4-1.89-1.45-2-1.45-2-.4-3.26-.84-6-2.85-8-1.69-3.38-4-6.32-4.71-8.41s-.73-3.82-.73-7-.48-4.87-1.81-5.32-3-3.1-3-3.1a15.57,15.57,0,0,0-1.28-3.54,23.79,23.79,0,0,0-.25-3.94c1-2.38.16-3.75.16-3.75s1.33-1.28,1.33-2.37a1.29,1.29,0,0,0-.76-1.33A2.83,2.83,0,0,0,82.41,24c1.33,0,1.65-.6,2.34-2.37,0,0,1.71.3,2.45-.45,1.57-.32.81-1.53.81-1.53,1.17.24,1.49-1,1-2.73.73.2.73-1-.2-2.78a5.61,5.61,0,0,0-3.3-2.3c-.6-4.14-4.63-5.71-4.63-5.71s-2.74-1.47-4.46-1.06S74.34,7.6,74.15,8.78s-1.88,4-2.84,6.25a16.59,16.59,0,0,0-1.61,6c0,1.66,0,2,0,2s-.16,7.8-.16,10.19a42.05,42.05,0,0,0,.37,5,19,19,0,0,0-1.42,5.39,5.08,5.08,0,0,1-1.23,2.45,6.88,6.88,0,0,0-2.31,4.72c0,2.09.43,8.05.43,8.05s-3.17,2.31-4,4.4a6.2,6.2,0,0,1-2.89,3.6,3.1,3.1,0,0,0-1.51,1.55s4.24-.59,5.16-.59a7.08,7.08,0,0,1,4.83,2.9c1.28,2,3.7,3.27,6.7,3.81s12.4,0,14.44,3.81,2,7.3,4.4,6S97.47,78.28,97.47,78.28Z"/><g class="cls-3"><path class="cls-1" d="M84.32,23.32s-3.57-2.05-8,4.34C73.7,31.47,74,38.29,74,38.29s1.6-4.93,3.32-6.29c3.08-2.43,4.11-1.68,5.24-3.31S84.32,23.32,84.32,23.32Z"/><path class="cls-1" d="M89.29,19.43a3.09,3.09,0,0,0-1.67-2.76,28.74,28.74,0,0,0-4.29-2.39c2,1.63,5,5.79,5.39,6.2S89.29,19.43,89.29,19.43Z"/><path class="cls-1" d="M79.79,14.05a8.86,8.86,0,0,0-5.44,2.79,13.07,13.07,0,0,0,3.08-1.18,5.66,5.66,0,0,1,3.68-.82,2.94,2.94,0,0,1,2.25,1C83.14,14.86,81.91,13.75,79.79,14.05Z"/><path class="cls-1" d="M87.72,19.23s-3.79-2.93-4-3.13a2,2,0,0,0-.4-1.82,17.45,17.45,0,0,1,3.78,3.25C88.16,19,87.72,19.23,87.72,19.23Z"/><path class="cls-1" d="M88.23,20.34s-1.15-2-2.36-1.39-1.47.4-1.47.4l-.7.72a3.08,3.08,0,0,1,.39,2.9c.64.65,3.8-1.47,4.07-1.74S88.23,20.34,88.23,20.34Z"/><path class="cls-1" d="M68.44,43.31a18.27,18.27,0,0,0-.82,4.49c0,1.93-2.21,1.49-1.86,5.28s.55,5.48-.41,5.77-2.8-7.23-2.8-7.23a77.16,77.16,0,0,1,3.79-7.38A2,2,0,0,1,68.44,43.31Z"/><path class="cls-1" d="M80.89,6a5.33,5.33,0,0,1,3,3.29c.6,2.34.74,2.51,2.07,2.51s1.58-2.5-.55-4A10.62,10.62,0,0,0,80.89,6Z"/><path class="cls-1" d="M81,11.59s-1.16-.36-1.75.23a4.34,4.34,0,0,1-2.11,1.38c-.89.2-2.6.76-2.83,2.18A19.12,19.12,0,0,1,73.69,18s2.45-3.4,4.66-4.32S81,11.59,81,11.59Z"/><path class="cls-1" d="M78.23,40.36a31.13,31.13,0,0,0-4.39,4.83A17.81,17.81,0,0,0,72,48.73s4.83-6,7.37-7.48a4.36,4.36,0,0,0,2.29-4s-.56,2.22-2,2.66Z"/><path class="cls-4" d="M78.61,20.15a43.11,43.11,0,0,0-4.24,3.31c-1.19,1.18-1.16,1.95-1.16,2.22s1-.05,1.29-.59,1.13-1.85,1.13-1.85-1.07,2.18-.49,2.76c.23.24.14,0,.65-1.18a12,12,0,0,1,2.36-2.89S75.76,24.82,75.76,26s.81-.72,1.74-2.06a20.79,20.79,0,0,1,2.58-2.82s-1,1.75-1.72,2.87-1.28,1.85-1.28,1.85a5,5,0,0,0,2.3-1.79c1.08-1.43,2.63-2.31,3.49-2a3.08,3.08,0,0,1,1.45,1.31s-2.07-.35-3,.35-3.89,2.5-3.89,3,.21.59.21.59,3.06-1.18,4.24-3c0,0-.94,3.09-2.09,3.81s-2.31.49-3.27,2.63A34.4,34.4,0,0,0,75,34.4a43.38,43.38,0,0,1,.24-4.8c.24-1.42-.06-1.45-.62-1.45,0,0,.63-1.06.27-1.42a4.22,4.22,0,0,1-1.07.94c-.57.29-.73,2.47-.73,2.63-.49-2,0-2.34-.27-3.2s-.59.81-1.42,0-1.66-1.5-.72-2.15,1.82-2,3.81-3.22A9.35,9.35,0,0,1,78.61,20.15Z"/><path class="cls-1" d="M70.1,29.36a3,3,0,0,1,.43,2.57,20.57,20.57,0,0,0-.62,4.38L71.23,35c.57-.57-.19-1.36.59-3a3.67,3.67,0,0,0,.05-3.46,2.81,2.81,0,0,0-1.93-1.69A18.66,18.66,0,0,0,70.1,29.36Z"/><path class="cls-1" d="M70.86,32.27s-.56-6.68,5.28-10,8.53-4.39,8.25-5.88S80.45,14.13,78.51,15,71,18.3,70.62,20.45c-.57,3.46-1.41,5.46-1.41,8.2S70.86,32.27,70.86,32.27Z"/><path class="cls-1" d="M75.83,19.71a5.79,5.79,0,0,0-3.43,2.73A15.45,15.45,0,0,0,71,26.92a10.74,10.74,0,0,1-1.27,2.93s.86,1,1.49-.84,2-5.18,4.27-6.57S78.88,19.36,79,18A32.5,32.5,0,0,1,75.83,19.71Z"/><path class="cls-1" d="M77.22,39.8s-3.46,1.29-4.71,3.58a15,15,0,0,0-1.77,7.53c0,2.89.81,5.63-4.18,6.56a4.47,4.47,0,0,0,3.06-3.75c.32-3-.25-5.59,1.12-8.25s2.38-4.22,5.72-5.83c1.89-.91,3.7-3.55,5.15-7.61l.32,1.61A10.26,10.26,0,0,1,77.22,39.8Z"/><path class="cls-1" d="M82.38,31.43s-3.55-.05-4.55,1.81-1.94,2-2.26,3.3a8.74,8.74,0,0,1-1.85,4.18c-1.17,1.17-4.71,3-5.11,6.64,0,0,.64.77,1-.4a14.75,14.75,0,0,1,3.48-5.09c2-1.95,2.8-4.89,3.6-5.7s5.41-.74,6.12-1.44S82.38,31.43,82.38,31.43Z"/><path class="cls-1" d="M81.45,29.09a2.37,2.37,0,0,1-1.73,1.21c-1.41.36-4.15,2.13-4.47,4.95A11.54,11.54,0,0,1,79.32,31c2.41-1.21,2.93-2.05,2.93-2.05Z"/></g><path class="cls-5" d="M97.47,78.28A26,26,0,0,0,97,74.41c-.4-1.89-1.45-2-1.45-2-.4-3.26-.84-6-2.85-8-1.69-3.38-4-6.32-4.71-8.41s-.73-3.82-.73-7-.48-4.87-1.81-5.32-3-3.1-3-3.1a15.57,15.57,0,0,0-1.28-3.54,23.79,23.79,0,0,0-.25-3.94c1-2.38.16-3.75.16-3.75s1.33-1.28,1.33-2.37a1.29,1.29,0,0,0-.76-1.33A2.83,2.83,0,0,0,82.41,24c1.33,0,1.65-.6,2.34-2.37,0,0,1.71.3,2.45-.45,1.57-.32.81-1.53.81-1.53,1.17.24,1.49-1,1-2.73.73.2.73-1-.2-2.78a5.61,5.61,0,0,0-3.3-2.3c-.6-4.14-4.63-5.71-4.63-5.71s-2.74-1.47-4.46-1.06S74.34,7.6,74.15,8.78s-1.88,4-2.84,6.25a16.59,16.59,0,0,0-1.61,6c0,1.66,0,2,0,2s-.16,7.8-.16,10.19a42.05,42.05,0,0,0,.37,5,19,19,0,0,0-1.42,5.39,5.08,5.08,0,0,1-1.23,2.45,6.88,6.88,0,0,0-2.31,4.72c0,2.09.43,8.05.43,8.05s-3.17,2.31-4,4.4a6.2,6.2,0,0,1-2.89,3.6,3.1,3.1,0,0,0-1.51,1.55s4.24-.59,5.16-.59a7.08,7.08,0,0,1,4.83,2.9c1.28,2,3.7,3.27,6.7,3.81s12.4,0,14.44,3.81,2,7.3,4.4,6S97.47,78.28,97.47,78.28Z"/><path d="M123,125s8.35-1.12,10.14-.82,5.52,1.19,6.42,2.68a42.15,42.15,0,0,1,3.35,7.31c1.19,3.36,3.43,10.81,3.43,10.81H1.18s7.9-17.3,8.57-18,4.72-5.07,6.61-5.07,23.38,2.46,32.33,4.33,29.74,3.43,43.24,1.56S123,125,123,125Z"/><g class="cls-6"><path class="cls-1" d="M135.44,147.56s-.21-9.76-3.43-17-3.33-9.12-3.33-9.12l15.45,1.93S155,140.48,155.62,142s-11,8.7-11,8.7Z"/><path class="cls-1" d="M111.64,149s-.21-9.77-3.43-17-3.33-9.12-3.33-9.12l25.22,3.15s11.73,21.14,12.37,22.65-21.6,3.4-21.6,3.4Z"/><path class="cls-1" d="M10.29,150.57s12.23-29.14,15.13-33.33-15-2.09-15-2.09L-6.14,138.82l5,10.94Z"/><path class="cls-1" d="M39.11,149.28a122,122,0,0,0,1.6-13.69c.32-6.56-.35-13.43,1-15.45,2.9-4.19-15-2.09-15-2.09L10.2,141.71l5,10.95Z"/><path class="cls-1" d="M38.78,151.21l1.7-26.33,4-.45,9.58,4.4s2.9,20,1.61,20S38.78,151.21,38.78,151.21Z"/></g><path class="cls-5" d="M123,125s8.35-1.12,10.14-.82,5.52,1.19,6.42,2.68a42.15,42.15,0,0,1,3.35,7.31c1.19,3.36,3.43,10.81,3.43,10.81H1.18s7.9-17.3,8.57-18,4.72-5.07,6.61-5.07,23.38,2.46,32.33,4.33,29.74,3.43,43.24,1.56S123,125,123,125Z"/><path d="M97.47,78.28s2.21-1.73,3.94-1.53a4.79,4.79,0,0,1,2.54.93s6.22.16,7.55-.33c-2.45-2.44-3.75-3.6-2.92-4.42s4.58.12,6.52,3.58c1.49-.65,2.73-2,2.37-3s-3.3-3.58-2.53-5c0,0,1.63,1.31,2.77,2.45s2.9,1.81,2.9,3.67a8.48,8.48,0,0,0,.12,2.13,6.5,6.5,0,0,0,.44-2c0-1,2.06-1.61,2.06-1.61s.08,1.65.08,3a8.28,8.28,0,0,1-.77,2.93s-1.28,3.1-1.69,4.35-1.93,5.52-2.49,6.08l-.57.56s-.44,1.13-1,1.13a.56.56,0,0,1-.61-.4s-.58.9-1.28.2L114,90a6.46,6.46,0,0,0-1,.73,10.56,10.56,0,0,1-.52,6c0,2.9-.32,5.68.08,7.73a9.87,9.87,0,0,0,1.65,4.55c1.05,1.49,2.42,3.46,2.66,4.59s1.29,1,1.85,2.09a19.42,19.42,0,0,1,1,2.34,32.53,32.53,0,0,1-3.45.43,4.07,4.07,0,0,1-1.32-.14l2.71,6.28a5.7,5.7,0,0,1-3.38,1.34,11.2,11.2,0,0,1-3.06-.37,22.07,22.07,0,0,1-.53-4.56,31.8,31.8,0,0,0-1.24-8.48,7.92,7.92,0,0,1-.86-4.19c0-2.31.16-5.15-1.07-6.39a2.35,2.35,0,0,1-1.5.65c1.37,1.37,1.71,4.67,2,6.87s-1.21,2.92-2.15,2l-.94-.94s-.62,3.73-1.26,4.38-2.9,1.93-2.9.27.38-2.31-.7-3.39-2.41-2.46-2.41-2.46l-1.18.16s.11,7,.11,7.51-2.85-.32-3.49-1a7,7,0,0,1-1.4-4.61c0-2.26-2.25-10.73-2-13.36S88.42,95.29,90,93s0-5.58.91-7.57a8.21,8.21,0,0,1,2.47-3s.91-2.26,2.58-2.9Z"/><g class="cls-7"><path class="cls-1" d="M113.17,111s1.73,4.59,2.41,4.59a2,2,0,0,0,1.09-.28s-1.25.68-.64,1.61,1.48,2.05,1.48,2.05l-2.24,0a14,14,0,0,1-1.7-4.35C113.25,112.53,113.17,111,113.17,111Z"/><path class="cls-1" d="M115.45,86.73s-.54-.48-.83-.19,0,.27.18,1.24a9.88,9.88,0,0,0,1.53,3.75l.25,0a2.51,2.51,0,0,1-.51-1c-.22-.72-.65-1.39-.92-2.41s-.61-1.16-.16-1.24Z"/><path class="cls-1" d="M110.67,88.38a8.6,8.6,0,0,0,.36,4,17.33,17.33,0,0,1,.93,4.26,2.38,2.38,0,0,0,1.81-2.21c0-1.77-.86-6-1.57-6.68S110.75,86.58,110.67,88.38Z"/><path class="cls-1" d="M110.23,94.86s.4,3.3.8,6.2a60.21,60.21,0,0,1,.89,6.6,66.18,66.18,0,0,0,1.21,9.78c.44,1.29,1.2-.08,1.65-.08,0,0-.72-.91-1.13-5.55s-.64-6.93-.64-9.34S110.23,94.86,110.23,94.86Z"/></g><path class="cls-5" d="M97.47,78.28s2.21-1.73,3.94-1.53a4.79,4.79,0,0,1,2.54.93s6.22.16,7.55-.33c-2.45-2.44-3.75-3.6-2.92-4.42s4.58.12,6.52,3.58c1.49-.65,2.73-2,2.37-3s-3.3-3.58-2.53-5c0,0,1.63,1.31,2.77,2.45s2.9,1.81,2.9,3.67a8.48,8.48,0,0,0,.12,2.13,6.5,6.5,0,0,0,.44-2c0-1,2.06-1.61,2.06-1.61s.08,1.65.08,3a8.28,8.28,0,0,1-.77,2.93s-1.28,3.1-1.69,4.35-1.93,5.52-2.49,6.08l-.57.56s-.44,1.13-1,1.13a.56.56,0,0,1-.61-.4s-.58.9-1.28.2L114,90a6.46,6.46,0,0,0-1,.73,10.56,10.56,0,0,1-.52,6c0,2.9-.32,5.68.08,7.73a9.87,9.87,0,0,0,1.65,4.55c1.05,1.49,2.42,3.46,2.66,4.59s1.29,1,1.85,2.09a19.42,19.42,0,0,1,1,2.34,32.53,32.53,0,0,1-3.45.43,4.07,4.07,0,0,1-1.32-.14l2.71,6.28a5.7,5.7,0,0,1-3.38,1.34,11.2,11.2,0,0,1-3.06-.37,22.07,22.07,0,0,1-.53-4.56,31.8,31.8,0,0,0-1.24-8.48,7.92,7.92,0,0,1-.86-4.19c0-2.31.16-5.15-1.07-6.39a2.35,2.35,0,0,1-1.5.65c1.37,1.37,1.71,4.67,2,6.87s-1.21,2.92-2.15,2l-.94-.94s-.62,3.73-1.26,4.38-2.9,1.93-2.9.27.38-2.31-.7-3.39-2.41-2.46-2.41-2.46l-1.18.16s.11,7,.11,7.51-2.85-.32-3.49-1a7,7,0,0,1-1.4-4.61c0-2.26-2.25-10.73-2-13.36S88.42,95.29,90,93s0-5.58.91-7.57a8.21,8.21,0,0,1,2.47-3s.91-2.26,2.58-2.9Z"/><path d="M80.92,6.11s-3-4.39-8.13-4.39c-6.47,0-7.4,2.74-10.78,2.74S58.79,1,58.79,1s-.68-.45-1.16.57a4.17,4.17,0,0,0,1.81,5,7.78,7.78,0,0,0,5.09,1.16c.6-.08,4.33-2.11,5.7-2.27,1.7-.19,3.45,0,4.37,2.07.69-.69,1.21-1.56,2.88-1.56S80.92,6.11,80.92,6.11Z"/><g class="cls-8"><path class="cls-1" d="M57.9,1.11A3.87,3.87,0,0,0,59.28,5.4c2.33,2.09,6.07,2,6.07,2a4.58,4.58,0,0,1-6.12,0A5.14,5.14,0,0,1,57.9,1.11Z"/><path class="cls-1" d="M74.15,6.71s-1-3.68-3.92-3.35-7.24,2.73-10,1.5l1,1c.64.64,3.86,1.29,6.39,1.29S74.15,6.71,74.15,6.71Z"/></g><path class="cls-5" d="M80.92,6.11s-3-4.39-8.13-4.39c-6.47,0-7.4,2.74-10.78,2.74S58.79,1,58.79,1s-.68-.45-1.16.57a4.17,4.17,0,0,0,1.81,5,7.78,7.78,0,0,0,5.09,1.16c.6-.08,4.33-2.11,5.7-2.27,1.7-.19,3.45,0,4.37,2.07.69-.69,1.21-1.56,2.88-1.56S80.92,6.11,80.92,6.11Z"/><path d="M75.12,9.82a12.74,12.74,0,0,1-1.59-1.31,5.6,5.6,0,0,0-2.79-2.15,35.54,35.54,0,0,1-3.83-1.72c-1-.42-2.89-.33-3.49.27s.16,2.42,1.85,3.68,4.61,2.25,5.74,2.87a2.36,2.36,0,0,1,1.26,1.61,1.66,1.66,0,0,0,2.26-.72A3.63,3.63,0,0,0,75.12,9.82Z"/><g class="cls-9"><path class="cls-1" d="M70.91,7c.69.7,2.78,1.63,2.25,3s-4,.47-5.65-.39S62.6,7.49,63.32,5.52c.36-1,1.8-.93,2.57-.74A16.41,16.41,0,0,1,70.91,7Z"/></g><path class="cls-5" d="M75.12,9.82a12.74,12.74,0,0,1-1.59-1.31,5.6,5.6,0,0,0-2.79-2.15,35.54,35.54,0,0,1-3.83-1.72c-1-.42-2.89-.33-3.49.27s.16,2.42,1.85,3.68,4.61,2.25,5.74,2.87a2.36,2.36,0,0,1,1.26,1.61,1.66,1.66,0,0,0,2.26-.72A3.63,3.63,0,0,0,75.12,9.82Z"/><path class="cls-1" d="M78.26,9.88s1.66-1.24,2.3-1.13a1.59,1.59,0,0,1,1.16,1.69c0,.91-.16.78-.16.78a6.4,6.4,0,0,0-1.75-.94A9.5,9.5,0,0,0,78.26,9.88Z"/><path class="cls-1" d="M79.54,8a7.82,7.82,0,0,0-3.14,2.31s.9.07,1.13-.16C78,9.65,78.44,9.07,79.54,8Z"/><path class="cls-1" d="M88.35,15.7s-.57-2-1.1-2-.57.62-.08,1.1A8.84,8.84,0,0,0,88.35,15.7Z"/><path class="cls-1" d="M77.08,15.91a2.78,2.78,0,0,0-1.45.86c-.7.7-.35,1.37.45,1.1S78,16,78,16A1.36,1.36,0,0,0,77.08,15.91Z"/><path class="cls-1" d="M75.65,17.58a2,2,0,0,0-1.34,1A2.86,2.86,0,0,0,73.83,20s1.66-.41,2.09-1.18A.87.87,0,0,0,75.65,17.58Z"/><path class="cls-1" d="M74.66,19.42a1.45,1.45,0,0,0-1.66.7c-.71,1.06-.35,1.72-.35,1.72s.27.62,1,.16a3.34,3.34,0,0,0,1.45-2C75.09,19.42,74.66,19.42,74.66,19.42Z"/><path class="cls-1" d="M73,18.47a1.41,1.41,0,0,0-1.64.16,4,4,0,0,0-1.25,2.31,4.07,4.07,0,0,0,2.23-1.05C73.27,19,73,18.47,73,18.47Z"/><path class="cls-1" d="M74.46,17.15a1.09,1.09,0,0,0-1.26.13,3,3,0,0,0-1,1.77A3.12,3.12,0,0,0,74,18.24C74.67,17.53,74.46,17.15,74.46,17.15Z"/><path class="cls-1" d="M75.78,16.58a1.09,1.09,0,0,0-1.26.13,3.09,3.09,0,0,0-1,1.77,3.08,3.08,0,0,0,1.72-.8C76,17,75.78,16.58,75.78,16.58Z"/><path class="cls-1" d="M71.28,20.32a4.27,4.27,0,0,0-1.61,1.61,3.17,3.17,0,0,0-.19,1.55A1.9,1.9,0,0,0,71,22.84,2.46,2.46,0,0,0,71.28,20.32Z"/><path class="cls-1" d="M69.79,22.74s-1.17,1.05-1.17,1.83a.77.77,0,0,0,1.48.36C70.64,24,69.79,22.74,69.79,22.74Z"/><path class="cls-1" d="M69.33,24.74a2.45,2.45,0,0,0-.54,2.57c.63,1.38,1.48-.91,1.3-1.45A3.63,3.63,0,0,0,69.33,24.74Z"/><path class="cls-1" d="M68.62,27.27a4.1,4.1,0,0,0,.11,2c.35.62,1.66,0,1.66-1.07S69.35,26.54,68.62,27.27Z"/><path class="cls-1" d="M70.07,28.34A3.23,3.23,0,0,0,68.7,31.1a5.71,5.71,0,0,0,.86,2.69s-.11-2.85.67-4S70.07,28.34,70.07,28.34Z"/><path class="cls-1" d="M79.55,14.85a3.1,3.1,0,0,0-1.75,1.06,12.63,12.63,0,0,1-1.72,2l-1.15,2.07.23,1.4a5.41,5.41,0,0,0,2.24-2.8A7.79,7.79,0,0,1,79.55,14.85Z"/><path class="cls-1" d="M73.35,30.89s.7,5.65.25,7c-1.17,3.43-3.18,2.85-3.18,2.85a3.94,3.94,0,0,0,1.32-3.26C71.74,35.13,73.35,30.89,73.35,30.89Z"/><path class="cls-1" d="M76.46,47.12A6.62,6.62,0,0,0,73,49.26c-1.33,1.69-1.85,3.18-2.62,3.82l-.28,1.05,2.13-2.86c1.29-1.73,3.18-3.66,4.43-3.66a15.24,15.24,0,0,0-2.21,2.69c-1,1.57-1.86,4-3.47,6s-5.07,2.78-6.44,4.75a34.49,34.49,0,0,1,4.63-1.21c1.73-.24,4.19-.72,5.44-3.1a20.3,20.3,0,0,0,1.73-5,19.18,19.18,0,0,1-2.38,4c-1,1-1.49.32-.4-1.45a34.59,34.59,0,0,1,2.9-3.83v3.83a14.37,14.37,0,0,0,1.13-4.39c0-1.77-.53-4.75.08-5.35s1.77-.77,2.93-1.17.7-4.16.7-4.16a61,61,0,0,0-5.41,4.32,46.72,46.72,0,0,0-3.26,3.79A8,8,0,0,1,76.46,47.12Z"/><path class="cls-1" d="M62.33,66S64,61.73,66,61.73s4.59.77,6.69.29a9.16,9.16,0,0,0,3.11-1.24s.19,1.16-2,1.64-4.18.4-6.36.72S63.26,64,62.33,66Z"/><path class="cls-1" d="M63.42,66.81a4.15,4.15,0,0,1,3.82-2.74c2.9,0,3.58,1.21,5.8,0l2.21-1.21.67,2.23s-3.77,1.47-4.37,2.08-3.89.78-4.31.36,2.05-2.29,3.14-2.29c0,0-2.76.14-4.11,1.49A2.12,2.12,0,0,1,63.42,66.81Z"/><path class="cls-1" d="M81.87,43.76a2.74,2.74,0,0,0-2.92-.5c-1.12.36-1.69,1.23-1.53,3.94a29.38,29.38,0,0,1-1.08,7.73c-.36,1.53.6,3.54.16,4.47a9.72,9.72,0,0,0-1.25,3.46,11.12,11.12,0,0,0,.36,2.42l1.25-.49a4.55,4.55,0,0,1,1.09-3L78,65l3.38.13a5.26,5.26,0,0,0,.52-2.74c-.2-1.33-.66-2.56-.66-3.21,0,0,.25-.5.34-.7.49-1,0-4.95,0-7.24a20,20,0,0,1,.28-3.66S83.1,45.33,81.87,43.76Z"/><path class="cls-10" d="M86.29,55.25s-1.32.45-1.74,0,.14-1.18-.8-3.47A12.87,12.87,0,0,0,82,48.59S80.7,57.3,80.7,59.31s.17,5.83.8,6.15,3.15,2.32,4.06,2.32,2.91-.45,2.74-2.6A1.44,1.44,0,0,1,87,66.25a3.33,3.33,0,0,1-2-.93s2.29,0,2.74-1.53l.45-1.56a2.41,2.41,0,0,1-2,.66c-1.25-.18-1.61-.4-2.15.14A.8.8,0,0,1,83.58,62c.35-.73,1.87.21,2.67-1.07a6.78,6.78,0,0,0,1.18-4.1A19.1,19.1,0,0,1,84,58c-.69,0-.38-1.25.63-1.6A4.31,4.31,0,0,0,86.29,55.25Z"/><path class="cls-1" d="M81.46,59.27s-.74.1-.74-.46-1.16.23-1.16.23a17.75,17.75,0,0,1,.56-3.38,3.32,3.32,0,0,0,0-2.74c-.32-.73-.16-3.18-.16-5s-.08-3.46.89-4,1.06.33,2.13,1.69,2.94,6.48,2.94,6.48a17.44,17.44,0,0,0-2.38-3.86c-1.12-1.13-.78-1.54-1.38,0s-.56,5.08-.38,7.32A10.1,10.1,0,0,1,81.46,59.27Z"/><path class="cls-1" d="M115.13,80.29l1.45-.43c.64-.19,1.5,0,1.61.46a1.34,1.34,0,0,0-1.56-.22A2.12,2.12,0,0,1,115.13,80.29Z"/><path class="cls-1" d="M116.15,80.4s.61.83,1.26.64l.64-.19s-.4,1.05-1.23.62S116.15,80.4,116.15,80.4Z"/><path class="cls-1" d="M117.62,78.87s1.26.8,1,1.85a3.26,3.26,0,0,1-.73,1.56s2.15-.7,1.91-1.72S117.62,78.87,117.62,78.87Z"/><path class="cls-1" d="M117.46,82.06s-.7.81-1.37.81c0,0,.59-.41,0-.78s-.57-.7-.57-.7A2.08,2.08,0,0,0,117.46,82.06Z"/><path class="cls-1" d="M117.35,88.58s.38-1.69,0-1.69-.59.4-.4.94A1.74,1.74,0,0,0,117.35,88.58Z"/><path class="cls-1" d="M111.75,79.06a10.84,10.84,0,0,0,.51,4.5c.77,1.72-.62,2-1.21,2a1.81,1.81,0,0,1-.86-.16l.88,1.16,2.12-.17s.84-.4.25-1.82A26.32,26.32,0,0,1,111.75,79.06Z"/><path d="M97.12,79.49a2.1,2.1,0,0,0,.16,3,6,6,0,0,1,1.48,3.87s4,3.06,5.69.24,1.26-4.72-.24-5.85a9.18,9.18,0,0,0-4.73-2A4.48,4.48,0,0,0,97.12,79.49Z"/><g class="cls-11"><path class="cls-1" d="M96.68,78.94a9.08,9.08,0,0,0,1.57,3.34c1,1,.78,1.79,1,2.73s.07.18,1.15-.91,1.29-2.2.49-3c0,0,1.61.4,1.39,3s-.51,2.34-.51,2.34,2-.51,2.23-2.2-.48-3.49.22-3.49,2.44,2,2.44,2l-2,6.71H96L95.94,83Z"/></g><path class="cls-5" d="M97.12,79.49a2.1,2.1,0,0,0,.16,3,6,6,0,0,1,1.48,3.87s4,3.06,5.69.24,1.26-4.72-.24-5.85a9.18,9.18,0,0,0-4.73-2A4.48,4.48,0,0,0,97.12,79.49Z"/><path class="cls-1" d="M94.33,88.1s-.16,1.89-.44,3.22.16,1.89,1,4.14,1.45,4.79,1.21,1.78-1.45-4.27-1-6.4S94.33,88.1,94.33,88.1Z"/><path class="cls-1" d="M96,88.26a36.75,36.75,0,0,0,1.9,6.88c1.09,2.3,2.42,2,2.42,4.75v2.78a3.16,3.16,0,0,0,1.33-2.66c0-1.85-.49-.76-1.86-3.74s-1.81-4-2.49-5.68A8,8,0,0,0,96,88.26Z"/><path class="cls-1" d="M98.8,90.55a3.4,3.4,0,0,0,1.13,3.18,11.75,11.75,0,0,0,2,1.82,7.18,7.18,0,0,1-1.57-2.7,25,25,0,0,1-.16-4.27c0-1.37-.85-1.45-1.37-.92S98.7,89.82,98.8,90.55Z"/><path class="cls-1" d="M109.3,87.78a1.71,1.71,0,0,1-1,2c-1.41.76-2.06.64-2.06,2.46s-.76,3.09-2,3.09-2.86-.72-2.65,1.33,2.37,4,2.37,4-.68-2.14.89-2.58,3.42,0,4-2.21.32-2.66.32-2.66-.28,2.25-1.49,2.94-2.29.8-1.08-.4a4.7,4.7,0,0,0,1.08-3.22,15.63,15.63,0,0,1-1.45,2.33c-.46.46-.49-2.76,1.33-3.7C109.63,90.14,109.87,88.27,109.3,87.78Z"/><path d="M70.7,86.29s-1.12-2.82-2.86-2.82-2.49,2.62-2.49,2.62a3.87,3.87,0,0,0,1.13.28c.44,0,.36,2,.36,2a24.34,24.34,0,0,1,2.45-1.45Z"/><g class="cls-12"><path class="cls-1" d="M65.35,86.09s.24-.41,1.13-.41,1.55.63,1.28.89a11.88,11.88,0,0,0-.92,1.81A11.35,11.35,0,0,1,65.35,86.09Z"/></g><path class="cls-5" d="M70.7,86.29s-1.12-2.82-2.86-2.82-2.49,2.62-2.49,2.62a3.87,3.87,0,0,0,1.13.28c.44,0,.36,2,.36,2a24.34,24.34,0,0,1,2.45-1.45Z"/><path class="cls-1" d="M47.64,71.66S44,74,44,81.39c0,0,.2,1,.36,1s.77-1.12,1.53-2.55c1.17-2.23.84-5.43,1.51-6.69S47.64,71.66,47.64,71.66Z"/><path class="cls-1" d="M50.49,73.51s-3.69,1.34-4.9,4.15-1.2,4.72-1.56,5.07-.21,4.58-.21,5.33,4.41-3.4,4.41-3.56a25.73,25.73,0,0,1-.67-5.84c.21-2,2.47-3.69,2.93-4.15A.74.74,0,0,0,50.49,73.51Z"/><path class="cls-1" d="M45.63,85.92a3.68,3.68,0,0,0-2.18.88c-.82.82-.93,4-.93,4s0,6.45-.6,8.28-.89,3.48-1.79,4.38S39,106.71,39,107.33v.61l4-.92s2.64-4.87,3.56-6.54S47.68,94,47,90.37,45.63,85.92,45.63,85.92Z"/><path class="cls-1" d="M49,79a51.84,51.84,0,0,0-3.38,7c-.38,1.93-.17,3.94.38,7s1,3.1.79,4.91-1.38,4.44.09,5.24,6.79-4.28,6.5-11.49a38.56,38.56,0,0,0-3.66-13.87Z"/><path class="cls-1" d="M31,115.41a31.76,31.76,0,0,1-.63-4.45v-1.42s-1.09-1.18-1.09-2a27,27,0,0,1,.42-3.57c.16-.88.37-3.9,1-3.9s1.6,1.68,1.6,1.68a11.46,11.46,0,0,1,2.93-.93c1.47-.21,2.86-1.13,4.07-4.06a42.44,42.44,0,0,1,3.27-6s.09,1.55.09,3.06-1.39,9.81-1.76,10.19-3.65,6.8-3.65,6.8Z"/><path class="cls-1" d="M70.05,73.39s.37-6.83,2.22-7.91S75.49,65,78,65s5.87.21,6.32,1.37.6,3.51,1.77,4.67a5.89,5.89,0,0,1,2.13,3.91v2.81s-.16-3.18-5.11-3.18-10.58-.29-10.58-.29Z"/><path class="cls-1" d="M68.81,84.4a6.72,6.72,0,0,0-.16-4.27c-.9-1.85-2.17-3.5-1.37-4.31s.85-2.17,1.49-2.41,1.65-.65,1.65-.65,6.87,1.35,11.15,1.81,6.6,2.34,7.12,4.07a16.6,16.6,0,0,1,.45,6.48,27.93,27.93,0,0,0-.49,6.52c0,3-.92,3.74-.92,3.74s-6.88-.76-8.78-2.25-7-3.3-8-4.75A42.3,42.3,0,0,1,68.81,84.4Z"/><path class="cls-1" d="M75.76,81.28c1.72-.59,8.16-3.16,9.93-1.88s3.11,2.58.16,3.92-3.43,2.42-3.43,2.42-5.42-.43-6.61-.43a9.26,9.26,0,0,1-4.61-1.56c-.78-.78-.91-.75.11-1.13S74,81.87,75.76,81.28Z"/><path class="cls-1" d="M30.33,115.33l6.79-6.71c.75-.75,6.94-1.42,8.72-1.42s3.66.38,7.76,1.42,10.22,2.83,10.22,2.83l-1.94,1.64s-5.75.53-13.43,1.35S30.33,115.33,30.33,115.33Z"/><path class="cls-1" d="M62.75,112.36s-.35,5.21-.35,7.74a23.47,23.47,0,0,1-1.19,6,25.23,25.23,0,0,1-5.15.82c-2.09,0-11.11-.67-16.7-3.5s-8.73-5.74-8.73-6.49a6.24,6.24,0,0,0-.3-1.64s11-3.28,14-3.28S62.75,112.36,62.75,112.36Z"/><path class="cls-1" d="M61.8,111.3s12.38-.59,15-.59,14,2.53,17,4.17a36.75,36.75,0,0,1,4.92,3.21,23.25,23.25,0,0,1,8.58,4c3.8,3,7.86,4,8.42,4.55a12.09,12.09,0,0,1,1.35,2s-1.2,1.2-9.92,1.2-35.72-1.57-37.66-1.57-8.27-2.09-8.27-2.09L59.27,118Z"/><path class="cls-1" d="M101.77,120.17s5.85-4.4,12.45-3.81S128,124.83,128,124.83s-1.35,3-3.72,3.9-12.71-.25-12.71-.25Z"/><path class="cls-1" d="M15.27,123.23s6-2.23,6.49-2.23,6.34.74,8.72.74,11.11,1.64,11.11,1.05-7-5.3-8.72-6.49-1.42-1.94-5.44-1.94S17.36,120.4,15.27,123.23Z"/><path class="cls-1" d="M16.36,121.89l4.28,3.66s5.59.37,7,.67,5.29.15,9-.3,7-.71,7.83-1.49-1.27-2.09-1.27-2.09l-18.94-3.49Z"/><path class="cls-1" d="M40.48,124.88l-1.56,5.44s8.57-1.64,11.18,1,3.72,3.8,3.72,3.8l6.86-3.58s2.69-4.4,5.37-4.4S56.21,125,56.21,125Z"/><path class="cls-1" d="M58.45,131.44s3,3,6.93,3,6.49-.45,9.4.15,5.59-1.72,5.59-2.09a6.53,6.53,0,0,0-5.89-5c-4.77-.52-8.28-2.6-12.75.23S58.45,131.44,58.45,131.44Z"/><path class="cls-1" d="M74.93,129.13s4.25-2.24,5.44-2.61S89,125.1,89,126s-.11,4.89-.67,5.45-4.7,1-6.34,1S74.93,129.13,74.93,129.13Z"/><path class="cls-1" d="M88.35,124.88s4.77-.38,6.19-.38,11.33,2.84,12.15,2.84a27.92,27.92,0,0,1,6.48,2.19c.47.47-.51,2.95-.51,2.95s-6.27.75-8.88.75-2.16.52-7.45.15a38.47,38.47,0,0,1-7.91-1.2l-1.12-4.7Z"/><path class="cls-1" d="M80.53,9s-.64.85-.12,1.51l-1.91-.6A9.48,9.48,0,0,1,80.53,9Z"/><path class="cls-1" d="M74.31,18.6a1.72,1.72,0,0,0-1.77-.08,2.87,2.87,0,0,0-1.26,1.8,1.57,1.57,0,0,0,1.88-.3C74.26,19.16,74.31,18.6,74.31,18.6Z"/><path class="cls-1" d="M71.76,20.8a2.14,2.14,0,0,0-1.07,1.53,2.35,2.35,0,0,0,.19,1.15s1.74-.32,2.12-1.31a2.89,2.89,0,0,0,.24-1.53A1.64,1.64,0,0,0,71.76,20.8Z"/><path class="cls-1" d="M69.83,25.28a2.16,2.16,0,0,0-.57,1.78,2.39,2.39,0,0,0,.52,1.05s1.57-.83,1.63-1.89a2.77,2.77,0,0,0-.22-1.53A1.6,1.6,0,0,0,69.83,25.28Z"/><path class="cls-1" d="M72.92,23.13A2,2,0,0,0,70.86,23a3.32,3.32,0,0,0-1.47,2.1,1.83,1.83,0,0,0,2.19-.35C72.86,23.79,72.92,23.13,72.92,23.13Z"/><path class="cls-1" d="M54.3,87.46s4.78,4.3,7.91,1.46S66.72,75,63.67,73.45,52.58,81.06,54.3,87.46Z"/><path class="cls-1" d="M50.28,107.78s-5.2-.32-5.68-.8a26.45,26.45,0,0,1,2.29-3.19,15.34,15.34,0,0,1,2-4,16.17,16.17,0,0,0,2.64-5.24,20.37,20.37,0,0,0,.38-6.21c-.38-1.89-1.8-3-1.8-6.81,0-2.79-.63-3.34-.63-3.34a23.85,23.85,0,0,0,2.89-5.83,7.32,7.32,0,0,1,5.37-4.28c2.56-.33,5-1.21,5.91-.25s2.54,1.12,3.25,2.91a9.06,9.06,0,0,1,.82,4.6c0,2.47,0,4.32,0,6s.67,6.71.67,7A49.94,49.94,0,0,1,65,92.72s.93-2.94-.12-4.58S62.41,87,62.41,85s-.13-7.76-.13-7.76A2.65,2.65,0,0,1,60,76.65a12.55,12.55,0,0,0-2,4.53c-.84,3.11-1.34,4.11-1.34,7.43s.75,3.06,0,4.32a55.57,55.57,0,0,0-3.44,7.5c-.62,1.89-1.59,5.12-2.14,5.12h-.54l-.13,2.23"/><path class="cls-1" d="M100.09,100.36c.46,0,.61.08.74.57a1.32,1.32,0,0,1,0,.71s.65.24.56.64a4,4,0,0,0,0,1l-3.22-1.16Z"/><path d="M50.74,108.75s-.3-3.56.28-4.15,3.3-2.29,4.06-3.46S57,97.44,58,97.44s4.39-.08,5.64-2.74,1.48-4.3,2.78-5.59S70.1,86,72.92,86,79.28,89.15,81,91.8s2.77,3.91,4.26,4.79a22.37,22.37,0,0,1,3.87,3.58c1.16,1.17,4.63,1.69,4.91,1.69s5.44.13,6.08.29,2.25,1.69,2.25,2.81a5.85,5.85,0,0,1-2.33,3.75,24.07,24.07,0,0,1-6.16.88c-1.41,0-4.63-.2-5.36-.2S80,109,78.15,107.14s-2.74-2.18-3.87-4-2.13-2.57-3.42-2.77-3.42-.65-4.06-.65-5.23,1.65-6.4,2a6.76,6.76,0,0,0-3.87,3.3c-.88,1.82-1.08,3.47-2.37,4S50.74,108.75,50.74,108.75Z"/><g class="cls-13"><path class="cls-1" d="M67,101.06s3.38-2.66,5.11-4.39,2.78-1.25,2.78-1.25-.93.93-.52,3.91,2.89,5.47,4.18,5.92,6.32,2.57,6.12,4-9.66,1.33-13.16-1.13S67,101.06,67,101.06Z"/><path class="cls-1" d="M85.76,104s3.85,4.12,6.5,4.12,9.25-.55,10.44-1.74c0,0-.64,4.94-9.06,4.3S85.76,104,85.76,104Z"/></g><path class="cls-5" d="M50.74,108.75s-.3-3.56.28-4.15,3.3-2.29,4.06-3.46S57,97.44,58,97.44s4.39-.08,5.64-2.74,1.48-4.3,2.78-5.59S70.1,86,72.92,86,79.28,89.15,81,91.8s2.77,3.91,4.26,4.79a22.37,22.37,0,0,1,3.87,3.58c1.16,1.17,4.63,1.69,4.91,1.69s5.44.13,6.08.29,2.25,1.69,2.25,2.81a5.85,5.85,0,0,1-2.33,3.75,24.07,24.07,0,0,1-6.16.88c-1.41,0-4.63-.2-5.36-.2S80,109,78.15,107.14s-2.74-2.18-3.87-4-2.13-2.57-3.42-2.77-3.42-.65-4.06-.65-5.23,1.65-6.4,2a6.76,6.76,0,0,0-3.87,3.3c-.88,1.82-1.08,3.47-2.37,4S50.74,108.75,50.74,108.75Z"/><path class="cls-1" d="M66.44,92.81s.84,2.86-1.57,3.82-3.75,1.45-4.31,2.42-.24,2.21.12,4a21,21,0,0,1,.16,4.79c0,1.93,0,3.3,0,3.3a3.11,3.11,0,0,0,2.17.61c1.57,0,2.5.32,2.5-.2s-.6-4.43-.6-7,1.2-3.47,3.66-4.15S73.17,97.24,73,95.7C72.4,91.74,68.93,92.29,66.44,92.81Z"/><path d="M100.61,100.5A5.33,5.33,0,0,0,97,99.69a5.51,5.51,0,0,0-3.91,2.9c-.76,1.37-.48,1.65-.48,1.65a4.65,4.65,0,0,0,3,.36c2-.28,3.26-1.13,3.78-2.21A8.66,8.66,0,0,1,100.61,100.5Z"/><g class="cls-14"><path class="cls-1" d="M100.05,101.78s-1.37-1.63-2.82-1.23a6.64,6.64,0,0,0-3.16,1.7c-1.4,1.28-1,1.77-1,1.77s.75,1.83,3.16,1S99.76,103.68,100.05,101.78Z"/></g><path class="cls-5" d="M100.61,100.5A5.33,5.33,0,0,0,97,99.69a5.51,5.51,0,0,0-3.91,2.9c-.76,1.37-.48,1.65-.48,1.65a4.65,4.65,0,0,0,3,.36c2-.28,3.26-1.13,3.78-2.21A8.66,8.66,0,0,1,100.61,100.5Z"/><path class="cls-1" d="M79.64,15.31s-.44-.09-1,1.46-.86,2.82-1.58,3.55A8.09,8.09,0,0,1,80,18.44c1.8-.67,3.55-1.75,3.76-2.34a1,1,0,0,0-1.26.14,8.06,8.06,0,0,1-2.85,1.63,5.28,5.28,0,0,1-1.07.19,18.48,18.48,0,0,0,3.11-1.77c.61-.6,1-1.15-.53-.38a5.21,5.21,0,0,1-2.07.76,3.94,3.94,0,0,1,2.82-1.61A2.52,2.52,0,0,0,79.64,15.31Z"/><path d="M82.7,98.81s.42,2.19-.41,3-1.89,1.21-2.17,2.74a2.1,2.1,0,0,0,.56,2.14,8.64,8.64,0,0,0-2.77,1.56,2.73,2.73,0,0,0-1,1.66,13.8,13.8,0,0,0,4.06.92,33.62,33.62,0,0,1,6.84,1.21,12,12,0,0,0,3.22.44,3.36,3.36,0,0,0-.93-3.9,24.87,24.87,0,0,0-4.06-3.26s2.29-.45,2.29-2.42S82.7,98.81,82.7,98.81Z"/><g class="cls-15"><path class="cls-1" d="M80.46,103.61s-.75,2,1.77,2.89,5,2,4.63,2.36-2.58-.19-4.38-1.18a14.57,14.57,0,0,0-3.7-1.35Z"/></g><path class="cls-5" d="M82.7,98.81s.42,2.19-.41,3-1.89,1.21-2.17,2.74a2.1,2.1,0,0,0,.56,2.14,8.64,8.64,0,0,0-2.77,1.56,2.73,2.73,0,0,0-1,1.66,13.8,13.8,0,0,0,4.06.92,33.62,33.62,0,0,1,6.84,1.21,12,12,0,0,0,3.22.44,3.36,3.36,0,0,0-.93-3.9,24.87,24.87,0,0,0-4.06-3.26s2.29-.45,2.29-2.42S82.7,98.81,82.7,98.81Z"/><path class="cls-1" d="M81.91,11.22a2.41,2.41,0,0,0,.61-1.34c0-.67-1.55-1.59-1.55-1.59s.8.84.8,1.24A15.55,15.55,0,0,0,81.91,11.22Z"/><path class="cls-1" d="M81.88,15.06s-2.31-.51-2.95,1.11-1,3.31-1.85,4.15-1.47.7-1.47.7a15.53,15.53,0,0,0,2.08-3.56C78.39,15.61,78.89,14.06,81.88,15.06Z"/><path class="cls-1" d="M77.67,32.16a14.31,14.31,0,0,0-3.34,5.94c-1,4.21-5.44,3.23-6.3,6.66,0,0,.27-1.74,2.85-3.3s2.54-1.9,3.49-4.88A8.53,8.53,0,0,1,77.67,32.16Z"/><path class="cls-1" d="M64.83,60.69a15.55,15.55,0,0,0,5.27-3C72,55.74,74,51.13,74,51.13S71.51,56,69.45,56.78,65.65,57.19,64.83,60.69Z"/><path class="cls-1" d="M113.19,86.35l-2.12.17a7.21,7.21,0,0,0,.59.65c.41.4,1.75-.62,1.75-.62Z"/><path class="cls-1" d="M107,88.32s-1.91,1.23-1.91,2.68c0,2.79.84,3.74-.77,4.38a2.43,2.43,0,0,0,1.91-2.24c.21-2,0-2.17,1.22-2.87s2.15-.68,1.86-2.49C109.3,87.78,108.71,87.15,107,88.32Z"/></g></g>
<archi id="d" name="语义名称">
    <content> 
        <type>architecture</type>
        <model>building</model>
        <element>window</element>
    </content>
    <layout>block|outline|2.5D</layout>
    <orientation>left|right|front</orientation>
    <shot>close|medium|long|background|common</shot>
    <boundingrect>
         <ele>-6.139999866485596,0.901123046875,161.78395080566406,151.75889587402344</ele>
    </boundingrect>
 </archi>
</svg>