<svg id="图层_1" data-name="图层 1" xmlns="http://www.w3.org/2000/svg" viewBox="0 0 564.04 1012.85"><defs><style>.cls-1{fill:#fff;stroke:#231815;stroke-miterlimit:10;stroke-width:3px;}</style></defs><path class="cls-1" d="M255.65,301.25a225.7,225.7,0,0,1-28.58,1.85c-15.65,0-33.83-1.73-51.23-7.49-16.87-5.58-33-15-45.3-30.3a65.12,65.12,0,0,1-8.28-5.71l-.48-.39-38,8.76,1.67,9.55q.85.41,1.74.9A91.57,91.57,0,0,1,95.77,284c5.51,3.91,10.19,7.8,10.39,8,6.11,4.44,12,8.91,16.88,13,2.4,2,4.57,3.84,6.47,5.56a93.25,93.25,0,0,1,8-6.72,1.53,1.53,0,0,1,1.52-.13l.59.28,1.7.81,6.42,3c5.5,2.52,13.31,6,22.49,9.87,18.36,7.74,42.25,17,64.27,23.19A224.3,224.3,0,0,0,256.65,346c-.62-11.8-1.06-25-1.06-38.7C255.62,305.2,255.63,303.23,255.65,301.25Z" transform="translate(1.5 -0.59)"/><path class="cls-1" d="M125,949.24a1.63,1.63,0,0,0-1-.34h-.36a1.68,1.68,0,0,0-.78.29,1.66,1.66,0,0,0-.44.58,3.94,3.94,0,0,0-.29,1c1.13-.33,2.28-.64,3.46-.94A3.66,3.66,0,0,0,125,949.24Z" transform="translate(1.5 -0.59)"/><path class="cls-1" d="M437.19,957.55a8.77,8.77,0,0,0-2.59.42c.37.65.81,1.47,1.25,2.4,1.7-.57,3.47-1.11,5.28-1.61A7,7,0,0,0,437.19,957.55Z" transform="translate(1.5 -0.59)"/><path class="cls-1" d="M137.68,947a1.59,1.59,0,0,0-.87-.29h-.29a.58.58,0,0,0-.21.07v.06a1.63,1.63,0,0,0-.14.84v.1c.72-.11,1.45-.2,2.19-.29A3.67,3.67,0,0,0,137.68,947Z" transform="translate(1.5 -0.59)"/><path class="cls-1" d="M421.19,962.56a16.35,16.35,0,0,1,3.54,2.4c1.28-.63,2.61-1.24,4-1.84Z" transform="translate(1.5 -0.59)"/><path class="cls-1" d="M417.08,964.23a6.35,6.35,0,0,0-1.43-.22h-.32v.09a5.06,5.06,0,0,0,.34,1.54,22.12,22.12,0,0,0,1,2.38c.17.38.36.79.55,1.19,1.48-1,3-1.88,4.65-2.77A12.86,12.86,0,0,0,417.08,964.23Z" transform="translate(1.5 -0.59)"/><path class="cls-1" d="M520.09,465.66c5.66,3.25,13.09,5.37,22.92,5.37a82.33,82.33,0,0,0,10.17-.69l-.44-.62c-1.47-.09-5-.37-9.49-1.11a76.3,76.3,0,0,1-20.35-6.09,33.58,33.58,0,0,1-11.73-8.93h0a29.83,29.83,0,0,1-5.67-10.95l-1.85.62a41.5,41.5,0,0,0,6.44,13.52A32.83,32.83,0,0,0,520.09,465.66Z" transform="translate(1.5 -0.59)"/><path class="cls-1" d="M505.46,442.59a29.83,29.83,0,0,0,5.67,11h0a33.58,33.58,0,0,0,11.73,8.93,76.3,76.3,0,0,0,20.35,6.09c4.49.74,8,1,9.49,1.11l.44.62A82.33,82.33,0,0,1,543,471c-9.83,0-17.26-2.12-22.92-5.37a33,33,0,0,1-10-8.93,41.5,41.5,0,0,1-6.44-13.52c-1,.31-1.92.6-2.87.87a46.34,46.34,0,0,0,4.43,10.67,36.4,36.4,0,0,0,13.42,13.51c6.17,3.55,14.16,5.77,24.42,5.77a86.61,86.61,0,0,0,13.07-1.06,1.5,1.5,0,0,0,1.26-1.72,1.63,1.63,0,0,0-.26-.64l-2.32-3.23a1.52,1.52,0,0,0-1.16-.62h-.07a95.37,95.37,0,0,1-16.8-2.55,62.3,62.3,0,0,1-12.9-4.58,30.07,30.07,0,0,1-10.33-7.94h0a26.92,26.92,0,0,1-5.15-10.05Z" transform="translate(1.5 -0.59)"/><path class="cls-1" d="M487.17,487.54a40.2,40.2,0,0,0,5.11,2.28,9.55,9.55,0,0,0,2.83.65,1.19,1.19,0,0,0,.46-.06.88.88,0,0,0,0-.23,5.48,5.48,0,0,0-.36-1.59,21.84,21.84,0,0,0-1.11-2.41,60,60,0,0,0-3.63-5.72c-2.72-3.85-5.64-7.34-6.27-8.1l-.13-.15a1.5,1.5,0,0,1,2.09-2.14l4.12,3.35a211,211,0,0,1-19.22-25.78,68.55,68.55,0,0,1-14-2.3c3.54,8.8,8.37,18.93,14.36,27.3C476,479.13,481.34,484.54,487.17,487.54Z" transform="translate(1.5 -0.59)"/><path class="cls-1" d="M471.09,447.64a211.22,211.22,0,0,0,19.25,25.78l-4.12-3.35a1.5,1.5,0,0,0-2.09,2.14l.13.15c.63.76,3.55,4.25,6.27,8.1a60,60,0,0,1,3.63,5.72,21.84,21.84,0,0,1,1.11,2.41,5.48,5.48,0,0,1,.36,1.59.88.88,0,0,1,0,.23,1.19,1.19,0,0,1-.46.06,9.55,9.55,0,0,1-2.83-.65,40.2,40.2,0,0,1-5.11-2.28c-5.83-3-11.15-8.41-15.77-14.9-6-8.37-10.82-18.5-14.36-27.3-1.24-.34-2.46-.73-3.67-1.13,1,2.7,2.22,5.56,3.53,8.49A126.27,126.27,0,0,0,469,474.39c4.8,6.71,10.37,12.48,16.84,15.81a44,44,0,0,0,5.48,2.45,12,12,0,0,0,3.83.82,4.81,4.81,0,0,0,1.36-.2,2.93,2.93,0,0,0,1.64-1.25,3.3,3.3,0,0,0,.49-1.84,8.12,8.12,0,0,0-.61-2.79,31.28,31.28,0,0,0-2.86-5.43c-.35-.54-.71-1.09-1.08-1.63l10.11,8.21a1.5,1.5,0,0,0,2-2.22l-.43-.44a298.48,298.48,0,0,1-21.45-24.47c-3.38-4.37-6.72-9-9.66-13.63C473.49,447.76,472.28,447.71,471.09,447.64Z" transform="translate(1.5 -0.59)"/><path class="cls-1" d="M139.34,228.92a33.3,33.3,0,0,1,6.14-2.48l-1.45-2c-2.55-3.49-5.49-7.39-8.64-11.34l-5.29,12.42c.18.26.37.52.55.79h0a1.48,1.48,0,0,1,0,1.68l2.57,5.46A26.11,26.11,0,0,1,139.34,228.92Z" transform="translate(1.5 -0.59)"/><path class="cls-1" d="M127.65,257.85l-2.11.48c.91.7,1.82,1.36,2.7,2C128,259.48,127.82,258.66,127.65,257.85Z" transform="translate(1.5 -0.59)"/><path class="cls-1" d="M137,212.65a1.5,1.5,0,0,1-1.57.25l-.09.19c3.15,3.95,6.09,7.85,8.64,11.34l1.45,2c1.16-.35,2.23-.6,3.13-.79-3.4-4.75-7.73-10.59-12.48-16.44-3.82-4.71-7.9-9.41-12-13.57l13,14.89a1.5,1.5,0,0,1-.05,2.11Z" transform="translate(1.5 -0.59)"/><path class="cls-1" d="M130.54,265.31c-.38-.47-.77-.94-1.15-1.42a1.47,1.47,0,0,1-.23-.45c-.35-1.07-.65-2.11-.92-3.12-.88-.62-1.79-1.28-2.7-2l-3.76.87.48.39A65.27,65.27,0,0,0,130.54,265.31Z" transform="translate(1.5 -0.59)"/><path class="cls-1" d="M115.58,188.41a105.53,105.53,0,0,1,8.3,7c-1.73-1.76-3.47-3.44-5.19-5a51.76,51.76,0,0,0-8.54-6.31L110,184l.34.74C112.13,185.9,113.92,187.16,115.58,188.41Z" transform="translate(1.5 -0.59)"/><path class="cls-1" d="M104.56,294.46l-7.29,15.27.21.23.19.21h0a1.5,1.5,0,0,1-1.93,2.3,1.93,1.93,0,0,1-.27-.3s-2.18-2.35-5-5.89l5,28.85a1.51,1.51,0,0,1-2.73,1.1l-19.5-29.08A137.44,137.44,0,0,0,78.67,322a51.3,51.3,0,0,0,4.78,8.88c1.75,2.41,4.78,4.41,8.53,6a61.43,61.43,0,0,0,12.69,3.45c2.18.38,4.37.67,6.5.91a32.28,32.28,0,0,1,4.17-13.38,64.16,64.16,0,0,1,9.07-12.35c1-1.07,2-2.08,2.92-3-3.63-3.28-8.37-7.16-13.67-11.24C110.77,299,107.7,296.74,104.56,294.46Z" transform="translate(1.5 -0.59)"/><path class="cls-1" d="M106.16,291.91h0a1.49,1.49,0,0,1-1.6,2.5h0c3.14,2.28,6.21,4.57,9.11,6.81,5.3,4.08,10,8,13.67,11.24.74-.73,1.46-1.43,2.17-2.08-1.9-1.72-4.07-3.59-6.47-5.56C118.11,300.85,112.27,296.35,106.16,291.91Z" transform="translate(1.5 -0.59)"/><path class="cls-1" d="M111.14,342.64a11.09,11.09,0,0,1,.06-1.41c-2.13-.24-4.32-.53-6.5-.91A61.43,61.43,0,0,1,92,336.87c-3.75-1.55-6.78-3.55-8.53-6A51.3,51.3,0,0,1,78.7,322a137.44,137.44,0,0,1-5.48-14.84l-5.28-7.86a153.77,153.77,0,0,0,5.43,17.57c1.27,3.36,2.59,6.48,3.89,9.17a45.2,45.2,0,0,0,3.8,6.62c2.25,3.06,5.76,5.27,9.81,7,6.08,2.52,13.48,3.85,20.17,4.59h.16C111.16,343.71,111.14,343.17,111.14,342.64Z" transform="translate(1.5 -0.59)"/><path class="cls-1" d="M200.71,905.05a51.22,51.22,0,0,1,14.63,1.8,27.2,27.2,0,0,1,3.9,1.53c4.26-16.61,10.87-41.64,19.26-70.8,15.24-53,36.31-119.51,59.7-174l1.08-2.49a265.13,265.13,0,0,1-6-27.75c-4.93-31.9-10.86-88.92-10.86-128.93a219.42,219.42,0,0,1,1.42-27.72,1.5,1.5,0,0,1,1.68-1.29l.18.05,16.43-63.18h-3.84c-14.8,0-30.73-2.17-46.8-5.65a469.57,469.57,0,0,0-25.85,50.23c-22.94,51.47-47.31,128.28-53,229.58-4.57,81.56-8,147.26-8,196.07q0,14.94.44,27.76c1.19-.29,2.43-.59,3.73-.89C178.08,907.19,189.94,905.05,200.71,905.05Z" transform="translate(1.5 -0.59)"/><path class="cls-1" d="M245.05,825.75c.29-1,.59-2,.88-3,5.22-17.69,11-36.52,17.24-55.65,3.81-11.71,7.79-23.53,11.92-35.26.34-1,.69-2,1-2.93,7.72-21.82,15.92-43.28,24.42-63.14-.44-1.55-.87-3.1-1.28-4.63l-1.08,2.49c-23.39,54.45-44.46,121-59.7,174-8.39,29.16-15,54.19-19.26,70.8a19.59,19.59,0,0,1,2.7,1.57C226.75,891.06,234.77,860.75,245.05,825.75Z" transform="translate(1.5 -0.59)"/><path class="cls-1" d="M171.93,656.3q-1.4,14.58-2.27,29.91c-2.82,50.21-5.18,94.41-6.58,132.4l-.12,3.17c-.8,22.45-1.26,42.7-1.26,60.67q0,15.39.47,28.53l3-.77q-.45-12.81-.44-27.76c0-48.81,3.38-114.51,8-196.07,5.68-101.3,30-178.11,53-229.58a471,471,0,0,1,25.86-50.07l-3.08-.68c-24.11,40.42-63.72,123.28-76.14,246.73C172.16,654,172,655.12,171.93,656.3Z" transform="translate(1.5 -0.59)"/><path class="cls-1" d="M286.82,477.15a218.81,218.81,0,0,0-1.39,27.32c0,39.73,5.91,96.74,10.82,128.48,4.5,29.11,16.22,63.22,31.4,98.12s33.84,70.64,52.19,103.09c18.92,33.45,37.52,63.42,51.67,85.43,1.75-1.8,4.24-4.29,7.22-7.06,6-5.55,13.9-12.21,21.86-16.72,5.32-3,10.66-5.07,15.62-5.08a13.69,13.69,0,0,1,6.58,1.55c.17.09.33.19.49.29-6.85-17.68-16-41-25.15-68-18.29-54-36.62-122.86-36.62-191.77a346.83,346.83,0,0,1,3.08-47c5.73-41.93,7.9-74.52,7.9-99.83,0-27.37-2.54-46.21-5.81-59.1a67.48,67.48,0,0,1-5.33-6.58c-50.79,0-87.87-3.76-113.47-8.33-1.89.13-3.8.23-5.74.28l-16.43,63.18A1.48,1.48,0,0,1,286.82,477.15Zm52.68-21.91a1.5,1.5,0,0,1,1.7,1.26h0v.17l.13.69c.13.6.33,1.48.63,2.59a54.61,54.61,0,0,0,3.2,8.7,47.15,47.15,0,0,0,18.24,20.78c6.31,3.79,14.37,6.46,24.76,6.83a1.5,1.5,0,1,1-.11,3h0c-10.84-.38-19.45-3.21-26.2-7.26a47.91,47.91,0,0,1-15.12-14.5,55.41,55.41,0,0,1-8.53-20.6h0a1.51,1.51,0,0,1,1.3-1.66Z" transform="translate(1.5 -0.59)"/><path class="cls-1" d="M379.84,834.16c-18.35-32.45-37-68.18-52.19-103.09s-26.9-69-31.4-98.12c-4.91-31.74-10.82-88.75-10.82-128.48a218.81,218.81,0,0,1,1.39-27.32,1.47,1.47,0,0,0-1.11-1.64l-.18-.05a1.5,1.5,0,0,0-1.68,1.29,219.42,219.42,0,0,0-1.42,27.72c0,40,5.93,97,10.86,128.93a265.13,265.13,0,0,0,6,27.75c.41,1.53.84,3.08,1.28,4.63,6.25,22.15,15.26,45.86,25.85,69.88,5.78,13.13,12,26.34,18.55,39.43q1.32,2.64,2.65,5.27c4.6,9.12,9.32,18.17,14.09,27.06l1.43,2.65C371.74,826,380.48,841.47,389,856c15,25.57,29.14,48.27,40.44,65.83.47-.51,1.19-1.27,2.12-2.24C417.34,897.58,398.76,867.61,379.84,834.16Z" transform="translate(1.5 -0.59)"/><path class="cls-1" d="M426.68,427c3.27,12.89,5.81,31.73,5.81,59.1,0,25.31-2.17,57.9-7.9,99.83a346.83,346.83,0,0,0-3.08,47c0,68.91,18.33,137.77,36.62,191.77,9.15,27,18.3,50.28,25.15,68a14.19,14.19,0,0,1,4.75,4.78c.29.47.57,1,.86,1.44-5.07-13.24-11.9-30.41-19.23-50.49-6-16.56-12.42-35.09-18.41-55C436.77,745.28,424.51,689,424.51,633a345,345,0,0,1,3-46.54c5.75-42,7.93-74.76,7.93-100.24,0-24.45-2-42.22-4.8-55.14Q428.59,429,426.68,427Z" transform="translate(1.5 -0.59)"/><path class="cls-1" d="M176.78,292.76c17,5.63,34.87,7.34,50.29,7.34a222.7,222.7,0,0,0,28.62-1.88,449.88,449.88,0,0,1,3-47.83c.11-.89.23-1.77.34-2.66a5.65,5.65,0,0,0-.17-1,59.14,59.14,0,0,1-35.12,11c-18.79,0-37-7.5-50.49-14.94a157.73,157.73,0,0,1-21.91-14.55l-1.45.22a34.42,34.42,0,0,0-5,1.33,24.27,24.27,0,0,0-10.28,6.57l7.64,16.29a1.46,1.46,0,0,1,0,1.29,1.42,1.42,0,0,1-1,.8l-10.6,2.45a52.31,52.31,0,0,0,1.36,5.07C143.88,277.72,159.87,287.16,176.78,292.76Z" transform="translate(1.5 -0.59)"/><path class="cls-1" d="M145.46,226.44a33.3,33.3,0,0,0-6.14,2.48,26,26,0,0,0-6.14,4.52l1.37,2.92a24.27,24.27,0,0,1,10.28-6.57,34.42,34.42,0,0,1,5-1.33l1.45-.22a157.53,157.53,0,0,0,21.94,14.52c13.52,7.44,31.7,14.93,50.49,14.94a59.14,59.14,0,0,0,35.12-11c.06.34.12.67.17,1,.23-1.73.47-3.45.73-5.16a1.66,1.66,0,0,0-.74.3,56,56,0,0,1-35.28,11.83c-18,0-35.78-7.25-49.05-14.57a163.33,163.33,0,0,1-16-10c-1.92-1.37-3.42-2.51-4.44-3.31l-1.16-.92a2.17,2.17,0,0,1-.29-.24l-.1-.07a1.49,1.49,0,0,0-1.07-.35,29.34,29.34,0,0,0-3.08.46C147.69,225.85,146.62,226.09,145.46,226.44Z" transform="translate(1.5 -0.59)"/><path class="cls-1" d="M129.16,263.44a1.47,1.47,0,0,0,.23.45c.38.48.77.95,1.15,1.42,12.27,15.3,28.43,24.72,45.3,30.3,17.4,5.76,35.58,7.49,51.23,7.49a225.7,225.7,0,0,0,28.58-1.85v-3A222.7,222.7,0,0,1,227,300.13c-15.42,0-33.31-1.71-50.29-7.34s-32.9-15-44.85-30.5q-.85-2.69-1.36-5.07l-2.92.67c.17.8.37,1.62.59,2.46S128.81,262.37,129.16,263.44Z" transform="translate(1.5 -0.59)"/><path class="cls-1" d="M405.88,360.26q-.66-5.64-1.32-11.75c-2.54-23.35-5.22-51.42-7.66-78.48-2.62-29.09-5-57-6.57-76.61h-.18a190.76,190.76,0,0,0-18.75,5.5c-14.72,5.17-32.34,13.6-44,26.35-7.78,8.52-12.93,18.86-13.06,31.61v2.27a1.54,1.54,0,0,1,.83.63l66.47-42.35v-.16a.59.59,0,0,0-.08-.33,1.5,1.5,0,0,1,2.92-.72h0a312,312,0,0,1,7.37,67c0,18.5-1.83,38.81-7.34,58.15-1.32,4.65-2.87,9.25-4.65,13.76a65.16,65.16,0,0,0,24.71,5.09Z" transform="translate(1.5 -0.59)"/><path class="cls-1" d="M298.21,287.43h0a162.73,162.73,0,0,1-2-24.75c0-26,7-39.54,7.14-39.71v-.07a175.81,175.81,0,0,1,14-19.35c8.78-10.72,21.22-23.6,36-32.26,9.86-5.77,20.78-9.66,32.34-9.66a32.86,32.86,0,0,1,3.43.12c-.76-.7-1.51-1.36-2.28-2q-4.54-3.66-8.93-6.56a53.61,53.61,0,0,1-22,15.22,69.91,69.91,0,0,1-24.6,4.16,103.69,103.69,0,0,1-30.86-5c-4.1,3.49-8.37,7.37-12.86,11.69-5.72,5.5-10.44,13.13-14.25,22.28a160.06,160.06,0,0,0-8.92,31.33c-4.37,23-5.81,49.49-5.81,74.23,0,13.91.45,27.27,1.09,39.19a94.85,94.85,0,0,0,14.07,1.2,47.21,47.21,0,0,0,7.88-.6c6.61-1.13,11.69-2.39,15.53-4.28a18.11,18.11,0,0,0,8.52-8.11,35.19,35.19,0,0,0,3.22-9.57c.15-.75.3-1.53.44-2.34a110.27,110.27,0,0,1-11.16-35.22Z" transform="translate(1.5 -0.59)"/><path class="cls-1" d="M419.34,417.38a62.11,62.11,0,0,1-7.89-18.66c-.69-2.94-1.43-7.15-2.22-12.41a186.43,186.43,0,0,1-21.39-4.87,171.39,171.39,0,0,1-18-6.32A101.53,101.53,0,0,1,355,393.71a60.24,60.24,0,0,1-25,14.42,85.55,85.55,0,0,1-11.28,2.66C343.09,414.46,376.17,417.26,419.34,417.38Z" transform="translate(1.5 -0.59)"/><path class="cls-1" d="M378.75,152.18c-.29.35-.58.69-.88,1a109.47,109.47,0,0,1,8.93,6.56c.77.62,1.52,1.28,2.28,2,1.22.08,2.44.21,3.67.38l.65-.35a52.3,52.3,0,0,0-4.71-4.34,116.17,116.17,0,0,0-9.69-7.09c.06.45.08.72.09.73A1.49,1.49,0,0,1,378.75,152.18Z" transform="translate(1.5 -0.59)"/><path class="cls-1" d="M421.34,420.38c-.67-1-1.33-2-2-3-43.17-.12-76.25-2.92-100.61-6.59-3.51.59-7.14,1-10.85,1.26C333.48,416.62,370.56,420.34,421.34,420.38Z" transform="translate(1.5 -0.59)"/><path class="cls-1" d="M259,247.73c-.11.89-.23,1.77-.34,2.66a449.88,449.88,0,0,0-3,47.83v8.9c0,13.72.44,26.9,1.06,38.7,1,.17,2,.34,3,.49-.64-11.92-1.09-25.28-1.09-39.19,0-24.74,1.44-51.2,5.81-74.23a160.06,160.06,0,0,1,8.92-31.33c3.81-9.15,8.53-16.78,14.25-22.28,4.49-4.32,8.76-8.2,12.86-11.69-1.44-.47-2.25-.78-2.27-.78a1.66,1.66,0,0,1-.68-.52l-.05-.08q-5.75,4.95-11.94,10.91c-6.13,5.89-11,13.88-14.94,23.29-5,12.1-8.5,26.59-10.81,42.13C259.51,244.28,259.27,246,259,247.73Z" transform="translate(1.5 -0.59)"/><path class="cls-1" d="M344.62,114.1a10.86,10.86,0,0,1-5-1.19,13.58,13.58,0,0,1-4-3.19,33.53,33.53,0,0,1-5.78-10.21c-2.74-7-4.71-15.42-6.86-22.83A21.3,21.3,0,0,1,318.47,81a16.37,16.37,0,0,1-9.09,3.31,8.66,8.66,0,0,1-3.65-.76,7.88,7.88,0,0,1-3-2.46c-1.7-2.24-2.61-5.52-2.61-10a45.39,45.39,0,0,1,.48-6.16c-12.66-3-21.41-7.31-27.39-12.09a38,38,0,0,1-3.76-3.42,68.78,68.78,0,0,0-.94,11.55A91.79,91.79,0,0,0,274.86,94c4.91,9.92,11.08,15.44,16.94,18.54A32.75,32.75,0,0,0,307,116.31a23.64,23.64,0,0,0,4.37-.35h0a1.49,1.49,0,0,1,1.77,1.14,1.14,1.14,0,0,1,0,.45l-2.75,33.73c5.67-2.08,11.78-5.59,18.21-9.26,6.73-3.84,13.8-7.84,21.15-10.45l1.36-.45c-1-5.24-1.94-11.11-2.58-17.53A13.59,13.59,0,0,1,344.62,114.1Z" transform="translate(1.5 -0.59)"/><path class="cls-1" d="M309.47,151.53c.27-.09.54-.2.8-.3L313,117.5a1.49,1.49,0,0,0-1.35-1.62,1.71,1.71,0,0,0-.45,0h0a23.64,23.64,0,0,1-4.37.35,32.75,32.75,0,0,1-15.17-3.76c-5.86-3.1-12-8.62-16.94-18.54a91.73,91.73,0,0,1-6.35-33.11,68.78,68.78,0,0,1,.94-11.55,33,33,0,0,1-2.5-2.91,70.3,70.3,0,0,0-1.44,14.46A94.51,94.51,0,0,0,272,95.14v.08c5.15,10.46,11.83,16.52,18.25,19.9a35.47,35.47,0,0,0,16.57,4.11q1.5,0,3-.15l-2.71,33.29C307.89,152.11,308.65,151.85,309.47,151.53Z" transform="translate(1.5 -0.59)"/><path class="cls-1" d="M348.41,113.54c.64,6.42,1.55,12.29,2.58,17.53.95-.31,1.92-.6,2.88-.86-1-5.31-1.93-11.25-2.55-17.77A20,20,0,0,1,348.41,113.54Z" transform="translate(1.5 -0.59)"/><path class="cls-1" d="M270.12,45.74c5.29,6.26,14.93,12.58,32.37,16.49a1.49,1.49,0,0,1,1.15,1.7A45.32,45.32,0,0,0,303,71a16.47,16.47,0,0,0,1.2,6.9,5.31,5.31,0,0,0,5.11,3.37,13.52,13.52,0,0,0,7.36-2.76A16.14,16.14,0,0,0,322,72.44a1.5,1.5,0,0,1,2.79.16c1.71,5.44,3.21,11.55,4.9,17.28s3.57,11.09,5.93,14.93a14,14,0,0,0,5.3,5.42,8,8,0,0,0,3.68.87,14,14,0,0,0,6.53-1.92,42.5,42.5,0,0,0,8.4-6.26c1.73-16.67,3.69-33.24,3.69-47.82A96.62,96.62,0,0,0,361.07,33c-1.57-6.52-4.07-12.07-7.84-16.4a27.89,27.89,0,0,0-9.39-7c-5.06-2.37-11.42-3.7-19.41-3.7a89.08,89.08,0,0,0-10.32.65,1.67,1.67,0,0,1-.7-.09A24.05,24.05,0,0,0,305,5.13,58.42,58.42,0,0,0,287.1,8.48a67.2,67.2,0,0,0-15.9,7.72,22.16,22.16,0,0,0-6,5.54,4.62,4.62,0,0,0-.89,2.37,2.63,2.63,0,0,1-.06.39h0v.05a1.8,1.8,0,0,0-.06.22c0,.2-.11.51-.17.91a21.79,21.79,0,0,0-.26,3.42A25,25,0,0,0,265,36.64,26.8,26.8,0,0,0,270.12,45.74Z" transform="translate(1.5 -0.59)"/><path class="cls-1" d="M269.34,49.33a38,38,0,0,0,3.76,3.42c6,4.78,14.73,9.1,27.39,12.09A45.39,45.39,0,0,0,300,71c0,4.53.91,7.81,2.61,10a7.88,7.88,0,0,0,3,2.46,8.66,8.66,0,0,0,3.65.76,16.37,16.37,0,0,0,9.09-3.31,21.3,21.3,0,0,0,4.51-4.28C325,84,327,92.47,329.73,99.46a33.53,33.53,0,0,0,5.78,10.21,13.58,13.58,0,0,0,4,3.19,10.86,10.86,0,0,0,5,1.19,13.9,13.9,0,0,0,3.79-.56,20,20,0,0,0,2.91-1.1c.41-.19.82-.39,1.24-.62a45.67,45.67,0,0,0,9.45-7.08,1.5,1.5,0,0,0,.46-1c1.74-16.83,3.77-33.68,3.77-48.69a104.33,104.33,0,0,0-1.75-20.49,50.67,50.67,0,0,0-4.28-12.9,31.73,31.73,0,0,0-13-13.81c-5.89-3.26-13.36-5-22.71-5a93.72,93.72,0,0,0-10.32.63A27.38,27.38,0,0,0,305,2.09c-9.13,0-19.78,3.2-28.3,7.4A50,50,0,0,0,266,16.37a19.1,19.1,0,0,0-3.32,3.69,7.86,7.86,0,0,0-1.34,3.67,22.28,22.28,0,0,0-.59,5.33,27.61,27.61,0,0,0,1.34,8.46,29.33,29.33,0,0,0,4.71,8.89A33.29,33.29,0,0,0,269.34,49.33Zm-5.55-20.26a21.79,21.79,0,0,1,.26-3.42c.06-.4.13-.71.17-.91a.9.9,0,0,1,.06-.22v-.05h0a2.63,2.63,0,0,0,.06-.39,4.62,4.62,0,0,1,.89-2.37,22.16,22.16,0,0,1,6-5.54,67.2,67.2,0,0,1,15.9-7.72A58.42,58.42,0,0,1,305.07,5.1a24.05,24.05,0,0,1,8.37,1.32,1.67,1.67,0,0,0,.7.09,89.08,89.08,0,0,1,10.32-.65c8,0,14.35,1.33,19.41,3.7a27.89,27.89,0,0,1,9.39,7c3.77,4.33,6.27,9.88,7.84,16.4a96.62,96.62,0,0,1,2.17,22.11c0,14.58-2,31.15-3.69,47.82a42.5,42.5,0,0,1-8.4,6.26,14,14,0,0,1-6.53,1.92,8,8,0,0,1-3.68-.87,14,14,0,0,1-5.3-5.42c-2.36-3.84-4.25-9.2-5.93-14.93s-3.19-11.84-4.9-17.28a1.49,1.49,0,0,0-1.89-1,1.51,1.51,0,0,0-.9.8,16.14,16.14,0,0,1-5.35,6.07,13.52,13.52,0,0,1-7.36,2.76,5.31,5.31,0,0,1-5.11-3.37A16.47,16.47,0,0,1,303,71a45.32,45.32,0,0,1,.64-7.07,1.49,1.49,0,0,0-1.15-1.7C285.08,58.29,275.44,52,270.15,45.71A26.81,26.81,0,0,1,265,36.58a24.86,24.86,0,0,1-1.22-7.51Z" transform="translate(1.5 -0.59)"/><path class="cls-1" d="M299.5,162.85a3.76,3.76,0,0,0,.27,1.33h.12c.43.15,1,.37,1.87.63,1.62.52,4,1.22,6.89,1.91a98.38,98.38,0,0,0,22.67,2.79,67,67,0,0,0,23.54-4A50.48,50.48,0,0,0,376,150.64a6.63,6.63,0,0,0-.12-.81c-.13-.92-.36-2.22-.69-3.7a34.38,34.38,0,0,0-3.48-9.56,10.92,10.92,0,0,0-4.06-4.28,6.25,6.25,0,0,0-2.94-.73,42.19,42.19,0,0,0-14.1,2.68,99.83,99.83,0,0,0-13.89,6.42c-9.14,5-17.92,10.69-26.3,13.6a29.32,29.32,0,0,0-7.79,3.8,8.14,8.14,0,0,0-2.82,3.2A3.79,3.79,0,0,0,299.5,162.85Z" transform="translate(1.5 -0.59)"/><path class="cls-1" d="M298.19,166.85s.83.31,2.27.78a103.69,103.69,0,0,0,30.86,5,69.91,69.91,0,0,0,24.6-4.16,53.61,53.61,0,0,0,22-15.22l.88-1a1.46,1.46,0,0,0,.34-1.1,4.13,4.13,0,0,0-.09-.73,52.16,52.16,0,0,0-2.38-10.15,24.27,24.27,0,0,0-4.2-7.72,11.45,11.45,0,0,0-3.34-2.73,9.24,9.24,0,0,0-4.34-1.08,41.65,41.65,0,0,0-10.87,1.54c-1,.26-1.93.55-2.88.86l-1.36.45c-7.35,2.61-14.42,6.61-21.15,10.45-6.43,3.67-12.54,7.18-18.21,9.26-.26.1-.53.21-.8.3-.82.29-1.58.58-2.3.87a23.74,23.74,0,0,0-8,4.83,9.7,9.7,0,0,0-2.07,3,6.87,6.87,0,0,0-.58,2.71,6.29,6.29,0,0,0,.48,2.42,5.11,5.11,0,0,0,.48.93l.05.08A1.69,1.69,0,0,0,298.19,166.85Zm4.47-8.67a29.32,29.32,0,0,1,7.79-3.8c8.38-2.91,17.16-8.65,26.3-13.6a99.83,99.83,0,0,1,13.89-6.42,42.19,42.19,0,0,1,14.1-2.68,6.25,6.25,0,0,1,2.94.73,10.92,10.92,0,0,1,4.06,4.28,34.38,34.38,0,0,1,3.48,9.56c.33,1.48.56,2.78.69,3.7a4.84,4.84,0,0,0,.12.81,50.48,50.48,0,0,1-21.17,14.87,67,67,0,0,1-23.54,4,98.38,98.38,0,0,1-22.67-2.79c-2.91-.69-5.27-1.39-6.89-1.91-.82-.26-1.44-.48-1.87-.63h-.12a3.55,3.55,0,0,1-.27-1.33,3.82,3.82,0,0,1,.34-1.52,8.21,8.21,0,0,1,2.82-3.28Z" transform="translate(1.5 -0.59)"/><path class="cls-1" d="M399.06,190.13a1.44,1.44,0,0,1-.26,1.12,1.52,1.52,0,0,1-1,.61h-.13l-.39.07c-.35.06-.86.15-1.52.29s-1.53.3-2.5.51c1.23,15.09,2.91,35.19,4.82,57,3.28,37.38,7.23,79.75,10.77,110.36a55.93,55.93,0,0,0,10.66-1.82,1.52,1.52,0,0,1,1.21.19,1.55,1.55,0,0,1,.67,1l4,26.82a1.51,1.51,0,0,1-.37,1.22,1.48,1.48,0,0,1-1.18.5s-4.41-.21-11.5-1.26c.73,4.78,1.41,8.61,2,11.23a60.94,60.94,0,0,0,20,32.16c10.42,8.76,24.37,14.61,41.43,14.61,12,0,25.6-2.91,40.57-9.81a31.24,31.24,0,0,0,11.79-9.78,55.92,55.92,0,0,0,8.11-16.1c4.24-12.6,6.13-28.69,6.13-46.56a340.7,340.7,0,0,0-3.46-46.13c-2.31.16-4.83.22-7.58.22-12.72,0-30.34-1.39-54.59-1.39a16.86,16.86,0,0,1-6.92-1.5,22.47,22.47,0,0,1-6.12-4.14c-3.81-3.53-7.13-8.44-10.08-14.26-5.89-11.66-10.32-27-13.66-42.35a498.25,498.25,0,0,1-8.89-61.27h0a1.51,1.51,0,0,1,1.38-1.61h0a1.57,1.57,0,0,1,.71.13l10.73-24.31a43.32,43.32,0,0,1-30.16-2.44l-.13-.05a43.25,43.25,0,0,1-7.41-4.46,117.27,117.27,0,0,0-11.55,5.49C399.06,190.11,399.06,190.13,399.06,190.13Z" transform="translate(1.5 -0.59)"/><path class="cls-1" d="M393.28,162.2a1.51,1.51,0,0,1,1.25,1.23l.18,1a117.27,117.27,0,0,1,11.55-5.49c-.91-.68-1.79-1.4-2.64-2.15-4.21,1.8-7.69,3.56-10.22,4.94l-.65.35Z" transform="translate(1.5 -0.59)"/><path class="cls-1" d="M539,316.42a340.7,340.7,0,0,1,3.46,46.13c0,17.87-1.89,34-6.13,46.56a55.92,55.92,0,0,1-8.11,16.1A31.24,31.24,0,0,1,516.4,435c-15,6.9-28.55,9.81-40.57,9.81-17.06,0-31-5.85-41.43-14.61a60.94,60.94,0,0,1-20-32.16c-.62-2.62-1.3-6.45-2-11.23-1-.14-2-.31-3.11-.49.79,5.26,1.53,9.47,2.22,12.41a62.11,62.11,0,0,0,7.89,18.66c.67,1,1.33,2,2,3a66.3,66.3,0,0,0,5.33,6.58q1.89,2,4,4c.58.53,1.17,1.05,1.78,1.56a64.11,64.11,0,0,0,20.9,11.73c1.21.4,2.43.79,3.67,1.13a69.24,69.24,0,0,0,14,2.3c1.19.07,2.4.12,3.62.14h1.12a89.44,89.44,0,0,0,24.91-3.72c.95-.27,1.9-.56,2.87-.87l1.85-.62c.94-.32,1.89-.65,2.84-1,3.06-1.13,6.18-2.41,9.36-3.88A34.11,34.11,0,0,0,530.57,427c5.32-7,9-16.39,11.4-27.35s3.45-23.55,3.45-37.12A345,345,0,0,0,542,316.16C541,316.25,540,316.34,539,316.42Z" transform="translate(1.5 -0.59)"/><path class="cls-1" d="M393.34,192.75l-3,.67c1.61,19.6,4,47.52,6.57,76.61,2.44,27.06,5.12,55.13,7.66,78.48q.66,6.11,1.32,11.75,1.5,0,3-.15c-3.54-30.61-7.49-73-10.77-110.36C396.2,227.94,394.52,207.85,393.34,192.75Z" transform="translate(1.5 -0.59)"/><path class="cls-1" d="M311.34,256.85c.12-13.57,5.69-24.7,13.84-33.6s18.9-15.66,29.57-20.74a180.73,180.73,0,0,1,41.11-13.38c-.4-2.33-1.43-8.4-4.1-24.15a48.09,48.09,0,0,0-6.11-.39c-10.54,0-20.64,3.44-29.92,8.73A118.86,118.86,0,0,0,330.8,193a185.3,185.3,0,0,0-24.71,31.23l-.07.12v.09l-.2.43c-.18.39-.44,1-.76,1.79a69.85,69.85,0,0,0-2.34,7.22,112.46,112.46,0,0,0-3.43,28.76,159.46,159.46,0,0,0,1.94,24.3h0a108.66,108.66,0,0,0,8.94,30.39c.43-3.7.76-7.9,1-12.68.5-9.32.76-20.82,1.08-35a85.28,85.28,0,0,1-.89-12.05Z" transform="translate(1.5 -0.59)"/><path class="cls-1" d="M422.15,384.94l-3.46-23.34a60.07,60.07,0,0,1-14.13,1.68A68.14,68.14,0,0,1,378.71,358a119.91,119.91,0,0,1-7.27,14.57A178.57,178.57,0,0,0,422.15,384.94Z" transform="translate(1.5 -0.59)"/><path class="cls-1" d="M314.34,256.92c.13-12.75,5.28-23.09,13.06-31.61,11.66-12.75,29.28-21.18,44-26.35a190.76,190.76,0,0,1,18.75-5.5h.18l3-.67,2.5-.51,1.52-.29.39-.07h.13a1.52,1.52,0,0,0,1-.61,1.44,1.44,0,0,0,.26-1.12l-4.35-25.65-.18-1a1.51,1.51,0,0,0-1.25-1.23l-.53-.07c-1.23-.17-2.45-.3-3.67-.38s-2.29-.12-3.43-.12c-11.56,0-22.48,3.89-32.34,9.66-14.77,8.66-27.21,21.54-36,32.26A175.86,175.86,0,0,0,303.48,223v.07c-.09.17-7.14,13.74-7.14,39.71a162.73,162.73,0,0,0,2,24.75,110.52,110.52,0,0,0,11,35.11c.28-1.63.52-3.39.75-5.27A108.66,108.66,0,0,1,301.15,287h0a159.46,159.46,0,0,1-1.94-24.3,112.46,112.46,0,0,1,3.43-28.76A69.85,69.85,0,0,1,305,226.7c.32-.8.58-1.4.76-1.79l.2-.43v-.09l.07-.12A185.3,185.3,0,0,1,330.72,193a118.86,118.86,0,0,1,24.93-19.67c9.28-5.29,19.38-8.74,29.92-8.73a48,48,0,0,1,6.11.39c2.67,15.75,3.7,21.82,4.1,24.15a180.73,180.73,0,0,0-41.11,13.38c-10.67,5.08-21.41,11.83-29.57,20.74s-13.72,20-13.84,33.6v.73a85.28,85.28,0,0,0,.89,12.05c.07-2.92.13-5.93.21-9.08h0a1.5,1.5,0,0,1,1.52-1.46h0a2.57,2.57,0,0,1,.4.06v-1.57Z" transform="translate(1.5 -0.59)"/><path class="cls-1" d="M409.23,386.31c1.09.18,2.13.35,3.11.49,7.09,1.05,11.46,1.25,11.5,1.26a1.48,1.48,0,0,0,1.18-.5,1.51,1.51,0,0,0,.37-1.22l-4-26.82a1.55,1.55,0,0,0-.67-1,1.52,1.52,0,0,0-1.21-.19,55.93,55.93,0,0,1-10.66,1.82q-1.5.12-3,.15h-1.32a65.16,65.16,0,0,1-24.71-5.09c-.37.93-.75,1.85-1.14,2.77a68.14,68.14,0,0,0,25.85,5.32,60.07,60.07,0,0,0,14.13-1.68L422.12,385a178.57,178.57,0,0,1-50.71-12.41c-.52.87-1,1.73-1.59,2.59a171.39,171.39,0,0,0,18,6.32A187.16,187.16,0,0,0,409.23,386.31Z" transform="translate(1.5 -0.59)"/><polygon class="cls-1" points="299.71 286.84 299.71 286.83 299.71 286.83 299.71 286.84"/><path class="cls-1" d="M315.44,260.66c-.49,20.79-.74,36.4-1.55,48.3s-2.17,20.07-5,26a21.06,21.06,0,0,1-8.06,9.09c-4.65,2.89-10.67,4.44-18.63,5.81a50,50,0,0,1-8.38.64c-11.21,0-25.24-2.8-40.06-6.95s-30.41-9.68-44.62-15.21c-25.31-9.84-46.23-19.66-50.52-21.7-.39.3-.94.71-1.61,1.25-1.45,1.16-3.46,2.85-5.69,4.94-4.46,4.19-9.8,10-13.3,16.45a28.27,28.27,0,0,0-3.84,13.32,19.09,19.09,0,0,0,2.75,9.88l.3.16,2,1c1.76.91,4.34,2.22,7.63,3.86,6.59,3.26,16,7.78,27.38,12.8,22.72,10,53.17,22.09,84,30.11,20.57,5.34,41.33,8.9,60.06,8.89,11.16,0,21.59-1.25,30.83-4.11a57.36,57.36,0,0,0,23.79-13.7c14.31-14.09,23.29-32,28.7-51s7.22-39,7.22-57.32a310.53,310.53,0,0,0-7.17-65.81L315.2,259.85A1.45,1.45,0,0,1,315.44,260.66Z" transform="translate(1.5 -0.59)"/><path class="cls-1" d="M251.5,406.73c16.07,3.48,32,5.65,46.8,5.65h3.84c1.94-.05,3.85-.15,5.74-.28,3.71-.26,7.34-.67,10.85-1.26A85.55,85.55,0,0,0,330,408.18a60.24,60.24,0,0,0,25-14.42,101.53,101.53,0,0,0,14.83-18.59c.54-.86,1.07-1.72,1.59-2.59A119.91,119.91,0,0,0,378.7,358c.39-.92.77-1.84,1.14-2.77,1.78-4.51,3.33-9.11,4.65-13.76,5.51-19.34,7.34-39.65,7.34-58.15a312,312,0,0,0-7.37-67,1.5,1.5,0,1,0-2.92.72,1.1,1.1,0,0,0,.08.33v.16a310.53,310.53,0,0,1,7.17,65.81c0,18.3-1.81,38.35-7.22,57.32s-14.39,36.88-28.7,51a57.36,57.36,0,0,1-23.79,13.7c-9.24,2.86-19.67,4.11-30.83,4.11-18.73,0-39.49-3.55-60.06-8.89-30.87-8-61.32-20.07-84-30.11-11.36-5-20.79-9.54-27.38-12.8-3.29-1.64-5.87-3-7.63-3.86l-2-1-.3-.16a19.09,19.09,0,0,1-2.75-9.88A28.27,28.27,0,0,1,118,329.46c3.5-6.43,8.84-12.26,13.3-16.45,2.23-2.09,4.24-3.78,5.69-4.94.67-.54,1.22-.95,1.61-1.25,4.29,2,25.21,11.86,50.52,21.7,14.21,5.53,29.8,11.06,44.62,15.21s28.85,6.94,40.06,6.95a50,50,0,0,0,8.38-.64c8-1.37,14-2.92,18.63-5.81a21.06,21.06,0,0,0,8.06-9.09c2.87-6,4.22-14.15,5-26s1.06-27.51,1.55-48.3a1.52,1.52,0,0,0-1.07-1.47,2.57,2.57,0,0,0-.4-.06,1.49,1.49,0,0,0-1.53,1.45h0c-.08,3.15-.14,6.16-.21,9.08-.32,14.2-.58,25.7-1.08,35q-.41,7.17-1,12.68c-.23,1.88-.47,3.64-.75,5.27-.14.81-.29,1.59-.44,2.34a35.19,35.19,0,0,1-3.22,9.57,18.11,18.11,0,0,1-8.52,8.11c-3.84,1.89-8.92,3.15-15.53,4.28a47.21,47.21,0,0,1-7.88.6,94.85,94.85,0,0,1-14.07-1.2c-1-.15-2-.32-3-.49a224.3,224.3,0,0,1-22.15-5.15c-22-6.17-45.91-15.45-64.27-23.19-9.18-3.87-17-7.35-22.49-9.87-2.75-1.26-4.93-2.27-6.42-3l-1.7-.81-.59-.28a1.53,1.53,0,0,0-1.52.13,93.25,93.25,0,0,0-8,6.72c-.71.65-1.43,1.35-2.17,2.08-1,.95-1.94,2-2.92,3a63.58,63.58,0,0,0-9.12,12.21,32.27,32.27,0,0,0-4.15,13.34c0,.47-.06.94-.06,1.41a15.08,15.08,0,0,0,.06,1.61,22.18,22.18,0,0,0,3.32,10.17,1.48,1.48,0,0,0,.57.54,667.7,667.7,0,0,0,63,28.7,520.59,520.59,0,0,0,59.36,19.73q5.48,1.44,10.94,2.66Z" transform="translate(1.5 -0.59)"/><path class="cls-1" d="M434.12,191.51V192c0,.35.07.85.13,1.52.11,1.32.28,3.26.53,5.7.48,4.87,1.24,11.75,2.33,19.73,2.19,16,5.72,36.35,11.09,54,3.57,11.77,8,22.32,13.21,29.46,3,4.09,6.23,7,9.65,8.56a13.67,13.67,0,0,0,5.7,1.24c24.35,0,42.08,1.4,54.59,1.39a80.44,80.44,0,0,0,11.4-.63,23,23,0,0,0,7.69-2.3,11.89,11.89,0,0,0,3.35-2.68,14.72,14.72,0,0,0,2.87-5.62A45.75,45.75,0,0,0,558,289.9c0-1.07,0-2.18-.06-3.34-.16-5.68-1.46-13.25-3.77-21.86a228.42,228.42,0,0,0-9.79-28.29c-8.33-20-20.1-41.14-34.06-57.49C501,168,490.75,159.27,480,154.39a54.08,54.08,0,0,0-5.08-2,68.82,68.82,0,0,1-9.14,5.31,71.14,71.14,0,0,1-13.41,4.85,42.67,42.67,0,0,1-8.41,3.36l-10.73,24.31A1.51,1.51,0,0,1,434.12,191.51Z" transform="translate(1.5 -0.59)"/><path class="cls-1" d="M474.92,152.42a54.08,54.08,0,0,1,5.08,2c10.79,4.88,21.06,13.63,30.37,24.53,14,16.35,25.73,37.52,34.06,57.49a228.42,228.42,0,0,1,9.79,28.29c2.31,8.61,3.61,16.18,3.77,21.86,0,1.16.06,2.27.06,3.34a45.75,45.75,0,0,1-1.35,12.5,14.72,14.72,0,0,1-2.87,5.62,11.89,11.89,0,0,1-3.35,2.68,23,23,0,0,1-7.69,2.3,80.44,80.44,0,0,1-11.4.63c-12.51,0-30.24-1.39-54.59-1.39a13.67,13.67,0,0,1-5.7-1.24c-3.42-1.52-6.66-4.47-9.65-8.56-5.24-7.14-9.64-17.69-13.21-29.46-5.37-17.66-8.9-38.06-11.09-54-1.09-8-1.85-14.86-2.33-19.73-.25-2.44-.42-4.38-.53-5.7-.06-.67-.1-1.18-.13-1.52a2.29,2.29,0,0,1,0-.52,1.5,1.5,0,0,0-.89-1.26,1.55,1.55,0,0,0-.71-.13,1.51,1.51,0,0,0-1.39,1.6h0A498.25,498.25,0,0,0,440.06,253c3.34,15.34,7.77,30.69,13.66,42.35,3,5.82,6.27,10.73,10.08,14.26a22.47,22.47,0,0,0,6.12,4.14,16.9,16.9,0,0,0,6.92,1.5c24.25,0,41.87,1.39,54.59,1.39,2.75,0,5.27-.06,7.58-.22,1-.08,2-.17,3-.28s2.11-.29,3.09-.47a23.08,23.08,0,0,0,7.39-2.63,14.33,14.33,0,0,0,4-3.52,19.24,19.24,0,0,0,3.54-8,54.41,54.41,0,0,0,1-11.6q0-1.65-.06-3.42c-.27-9.21-3.25-22.37-8.37-37.09-7.69-22.05-20.22-47.49-36-67.53-7.87-10-16.55-18.68-25.88-24.88a65.44,65.44,0,0,0-12.91-6.72C476.91,151,475.94,151.72,474.92,152.42Z" transform="translate(1.5 -0.59)"/><path class="cls-1" d="M110,962.68a6.83,6.83,0,0,0,2.71,2.75,4.48,4.48,0,0,0,2,.46,5.65,5.65,0,0,0,1.23-.13,4.05,4.05,0,0,0,1.69-.73,3.26,3.26,0,0,0,1-1.18,9.74,9.74,0,0,0,.69-4.14c0-1.51-.14-3.15-.24-4.76a75.35,75.35,0,0,0-10.5,4.49A16.42,16.42,0,0,0,110,962.68Z" transform="translate(1.5 -0.59)"/><path class="cls-1" d="M145.34,957a1.53,1.53,0,0,1-3,.56h0v-.15a3.76,3.76,0,0,0-.13-.61c-.12-.52-.3-1.25-.55-2.09a28.38,28.38,0,0,0-1.57-4.27c-1.19.14-2.36.28-3.5.45.13.56.27,1.14.43,1.75a26,26,0,0,1,1,6,7.2,7.2,0,0,1-.35,2.35,4.7,4.7,0,0,1-1.38,2.07,4.94,4.94,0,0,1-1.56.89,4.63,4.63,0,0,1-1.56.29,3.72,3.72,0,0,1-1.64-.38,4.27,4.27,0,0,1-1.24-1,8.5,8.5,0,0,1-1.47-2.67c-.72-2-1.17-4.3-1.74-6.37-.1-.35-.2-.7-.31-1q-2.47.6-4.8,1.31c.09,1.75.29,3.75.29,5.72a14.91,14.91,0,0,1-.5,4.16,6.68,6.68,0,0,1-2.32,3.54,7,7,0,0,1-2.91,1.29,8.71,8.71,0,0,1-1.84.19,7.55,7.55,0,0,1-3.36-.77,8.7,8.7,0,0,1-2.55-2,15.63,15.63,0,0,1-2.92-5.22c-8.36,4.89-14.12,10.78-17.54,16.5A25.12,25.12,0,0,0,84.41,990a12.65,12.65,0,0,0,1.07,5.29,4.91,4.91,0,0,0,1.79,1.8,19.25,19.25,0,0,0,4.06,1.9,73.68,73.68,0,0,0,13.5,3.06c10.94,1.63,25.18,2.41,39.65,2.41,10.21,0,20.53-.39,29.93-1.13a187.93,187.93,0,0,0,24.32-3.27,39.71,39.71,0,0,0,9.8-3.18,5.8,5.8,0,0,0,2.19-1.74c3.27-5.31,7.19-14.44,10.24-25.49a142.16,142.16,0,0,0,5.27-37.25c0-3.38-.14-6.76-.46-10.13a12.92,12.92,0,0,0-2.4-6.68,14.42,14.42,0,0,0-5.31-4.3c-4.45-2.22-10.62-3.13-17.38-3.12-9.73,0-20.63,1.83-29.43,3.79-7.47,1.67-13.42,3.42-15.94,4.19.81,3.75,2.88,15,3,32a1.5,1.5,0,0,1-1.52,1.52h-2.35c-3.94,0-7.68.17-11.25.47l.27.65A40.16,40.16,0,0,1,145.34,957Z" transform="translate(1.5 -0.59)"/><path class="cls-1" d="M131.09,957.2a11.67,11.67,0,0,0,1.26,3.28,1.52,1.52,0,0,0,.59.59.57.57,0,0,0,.26,0,1.62,1.62,0,0,0,.54-.11,2.16,2.16,0,0,0,.63-.35,1.43,1.43,0,0,0,.36-.45,3.64,3.64,0,0,0,.32-1.69,17.45,17.45,0,0,0-.57-3.8c-.27-1.14-.57-2.31-.84-3.45-1.33.23-2.64.47-3.91.74C130.27,953.76,130.65,955.6,131.09,957.2Z" transform="translate(1.5 -0.59)"/><path class="cls-1" d="M129.73,952c1.27-.27,2.58-.51,3.91-.74-.06-.27-.13-.55-.19-.82a15.29,15.29,0,0,1-.29-2.14c-1.55.26-3.06.56-4.54.88a10.64,10.64,0,0,1,.51,1.08C129.34,950.85,129.55,951.42,129.73,952Z" transform="translate(1.5 -0.59)"/><path class="cls-1" d="M229.22,934.47v-2.19c0-3.46-.15-6.94-.47-10.41a15.5,15.5,0,0,0-6.87-11.9,19.59,19.59,0,0,0-2.7-1.57,27.77,27.77,0,0,0-3.84-1.55A51.1,51.1,0,0,0,200.73,905c-10.77,0-22.63,2.14-31.84,4.27-1.3.3-2.54.6-3.73.89l-3,.77c-5.51,1.45-9,2.6-9.07,2.6a1.53,1.53,0,0,0-1,1.8h0a123.89,123.89,0,0,1,2.69,19.06c.07,1,.14,2,.2,3,.17,2.8.3,5.84.35,9.12h-.85c-4.46,0-8.69.21-12.72.59a20,20,0,0,1,1.47,2.88c3.57-.3,7.31-.47,11.25-.47h2.35a1.5,1.5,0,0,0,1.52-1.52,169.68,169.68,0,0,0-3-32c2.52-.77,8.47-2.52,15.94-4.19,8.8-2,19.7-3.8,29.43-3.79,6.76,0,12.93.9,17.38,3.12a14.42,14.42,0,0,1,5.31,4.3,12.92,12.92,0,0,1,2.4,6.68c.32,3.37.46,6.75.46,10.13A142.16,142.16,0,0,1,221,969.47c-3.05,11-7,20.18-10.24,25.49a5.8,5.8,0,0,1-2.19,1.74,39.71,39.71,0,0,1-9.8,3.18,187.93,187.93,0,0,1-24.32,3.27c-9.4.74-19.72,1.13-29.93,1.13-14.47,0-28.71-.78-39.65-2.41a73.9,73.9,0,0,1-13.53-3,19.25,19.25,0,0,1-4.06-1.9,4.91,4.91,0,0,1-1.79-1.8,12.65,12.65,0,0,1-1.07-5.29,25.12,25.12,0,0,1,3.91-12.46c3.42-5.72,9.18-11.61,17.54-16.5l-.09-.25c-.32-.93-.57-1.84-.78-2.7a64.92,64.92,0,0,0-6,3.84,52.15,52.15,0,0,0-10.68,10.3,41.64,41.64,0,0,0-2.56,3.77,27.87,27.87,0,0,0-4.34,14,15.58,15.58,0,0,0,1.35,6.56,7.64,7.64,0,0,0,2.86,3,31.19,31.19,0,0,0,9.3,3.6,142.17,142.17,0,0,0,22,3.23c8.53.7,18,1,27.57,1a341.79,341.79,0,0,0,44.19-2.62,106.62,106.62,0,0,0,15.94-3.2,29.26,29.26,0,0,0,5.34-2.12,8.55,8.55,0,0,0,3.33-2.81c3.49-5.68,7.45-15,10.57-26.26.94-3.39,1.78-7,2.52-10.67a141.5,141.5,0,0,0,2.75-22.19C229.19,936.48,229.2,935.47,229.22,934.47Z" transform="translate(1.5 -0.59)"/><path class="cls-1" d="M108.55,959.44a75.35,75.35,0,0,1,10.5-4.49c0-.77-.09-1.54-.09-2.29v-.85a80.22,80.22,0,0,0-11.22,4.67A30.1,30.1,0,0,0,108.55,959.44Z" transform="translate(1.5 -0.59)"/><path class="cls-1" d="M125.81,950.27c-.09-.14-.17-.25-.26-.37-1.18.3-2.33.61-3.46.94a12.28,12.28,0,0,0-.13,1.82V954q2.33-.71,4.8-1.31A12.45,12.45,0,0,0,125.81,950.27Z" transform="translate(1.5 -0.59)"/><path class="cls-1" d="M139.55,949.27a8.29,8.29,0,0,0-1.24-1.71c-.74.09-1.47.18-2.19.29a11.19,11.19,0,0,0,.27,2c.06.31.14.64.22,1,1.14-.17,2.31-.31,3.5-.45A9.92,9.92,0,0,0,139.55,949.27Z" transform="translate(1.5 -0.59)"/><path class="cls-1" d="M447.25,965.23a1.51,1.51,0,0,1-2-.78v0a17.05,17.05,0,0,0-1.73-3.2c-2.27.59-4.46,1.23-6.55,1.94l.24.73a13.8,13.8,0,0,1,.7,4.07,6.8,6.8,0,0,1-.76,3.31,5.72,5.72,0,0,1-2.72,2.49,6.72,6.72,0,0,1-2.85.69,5.08,5.08,0,0,1-3.07-1,12.38,12.38,0,0,1-2.19-2.15c-.71-.86-1.41-1.76-2.2-2.64q-2.52,1.35-4.79,2.78l-.89.58c.23.53.45,1,.64,1.56a10.72,10.72,0,0,1,.81,3.57,4.09,4.09,0,0,1-.38,1.79,3.2,3.2,0,0,1-1.41,1.41,4.68,4.68,0,0,1-2.17.54,5,5,0,0,1-2.2-.52,7.84,7.84,0,0,1-1.81-1.21,12.26,12.26,0,0,1-1.19-1.2A44.2,44.2,0,0,0,402,988.47a21,21,0,0,0-3.17,10.07,9.09,9.09,0,0,0,.68,3.61,6.36,6.36,0,0,0,1.93,2.54,4.86,4.86,0,0,0,1.24.64,19.9,19.9,0,0,0,2.37.78,66.87,66.87,0,0,0,7.28,1.43,145.34,145.34,0,0,0,20.74,1.43c9.19,0,18.76-.84,26.37-3,17.68-5,34.75-14.88,44.41-23a36.86,36.86,0,0,0,6.89-7.17,5.89,5.89,0,0,0,1.11-2.5c0-.42.06-.88.06-1.39a64.6,64.6,0,0,0-2.25-14.08c-1.44-5.83-3.51-12.56-6-19.52-5-13.91-11.62-28.77-18.24-39.34a11,11,0,0,0-4.11-4,10.73,10.73,0,0,0-5.16-1.2c-4,0-8.76,1.7-13.67,4.43A99.35,99.35,0,0,0,448,908.34a187,187,0,0,0-16.27,15.33c3,4,14.22,19.44,21.5,33.57a1.51,1.51,0,0,1-1.09,2.17c-1.92.32-3.78.7-5.59,1.1A21.46,21.46,0,0,1,448,963.3,1.51,1.51,0,0,1,447.25,965.23Z" transform="translate(1.5 -0.59)"/><path class="cls-1" d="M415,977.63a2.27,2.27,0,0,0,.92.23,1.66,1.66,0,0,0,.79-.2c.09-.06.07,0,.1-.09a1,1,0,0,0,.07-.45,5.37,5.37,0,0,0-.27-1.48,16.16,16.16,0,0,0-.7-1.91c-1,.74-2,1.49-2.93,2.25A6.7,6.7,0,0,0,415,977.63Z" transform="translate(1.5 -0.59)"/><path class="cls-1" d="M429,969.69a5.9,5.9,0,0,0,1.78,1.56,1.8,1.8,0,0,0,.88.2,3.73,3.73,0,0,0,1.6-.42,2.6,2.6,0,0,0,1.33-1.18,4,4,0,0,0,.4-1.89,11.18,11.18,0,0,0-.53-3.08c-.08-.24-.17-.48-.26-.72-2.55,1-5,2-7.24,3.08C427.69,968.15,428.34,969,429,969.69Z" transform="translate(1.5 -0.59)"/><path class="cls-1" d="M424.73,965l.27.25a21.21,21.21,0,0,1,1.91,2c2.28-1.1,4.69-2.12,7.24-3.08a24.68,24.68,0,0,0-1-2.45c0-.11-.1-.22-.16-.33-1.48.56-2.9,1.14-4.29,1.74S426,964.33,424.73,965Z" transform="translate(1.5 -0.59)"/><path class="cls-1" d="M488,897.35a14.19,14.19,0,0,0-4.75-4.78c-.16-.1-.32-.2-.49-.29a13.69,13.69,0,0,0-6.58-1.55c-5,0-10.3,2.09-15.62,5.08-8,4.51-15.89,11.17-21.86,16.72-3,2.77-5.47,5.26-7.22,7.06-.93,1-1.65,1.73-2.12,2.24l-.64.7a1.5,1.5,0,0,0-.08,1.91l.15.2c.67.88,3.46,4.63,7,9.83.67,1,1.33,2,2,3,3.85,5.72,8.23,12.63,11.8,19.32-1.72.32-3.41.67-5,1.06a15.39,15.39,0,0,1,2,2.62c1.81-.4,3.67-.78,5.59-1.1a1.51,1.51,0,0,0,1.09-2.17c-7.28-14.13-18.52-29.55-21.5-33.57a187,187,0,0,1,16.27-15.33,99.35,99.35,0,0,1,14.46-10.14c4.91-2.73,9.71-4.45,13.67-4.43a10.76,10.76,0,0,1,5.16,1.2,11,11,0,0,1,4.11,4c6.62,10.57,13.27,25.43,18.24,39.34,2.48,7,4.55,13.69,6,19.52A64.6,64.6,0,0,1,512,971.87a9.88,9.88,0,0,1-.06,1.39,5.89,5.89,0,0,1-1.11,2.5,36.86,36.86,0,0,1-6.89,7.17c-9.66,8.14-26.73,18.06-44.41,23-7.61,2.14-17.18,3-26.37,3a145.34,145.34,0,0,1-20.74-1.43,66.87,66.87,0,0,1-7.28-1.43,19.9,19.9,0,0,1-2.37-.78,4.86,4.86,0,0,1-1.24-.64,6.36,6.36,0,0,1-1.93-2.54,9.09,9.09,0,0,1-.68-3.61,21,21,0,0,1,3.17-10.07,44.2,44.2,0,0,1,8.71-10.51,18.45,18.45,0,0,1-1.62-2.11c-.07-.1-.12-.2-.19-.3a47.62,47.62,0,0,0-9.5,11.43,23.94,23.94,0,0,0-3.57,11.56,12.12,12.12,0,0,0,.92,4.79,9.44,9.44,0,0,0,2.83,3.72,8,8,0,0,0,2,1.07,33.17,33.17,0,0,0,5.26,1.49,135.31,135.31,0,0,0,26.26,2.36c9.37,0,19.15-.84,27.18-3.09a134.54,134.54,0,0,0,37.21-17.4,81.55,81.55,0,0,0,12.18-9.74,28.84,28.84,0,0,0,3.6-4.28,8.58,8.58,0,0,0,1.6-3.91v-.13c0-.48.06-1,.06-1.51a67.43,67.43,0,0,0-2.33-14.8c-1.46-5.9-3.54-12.64-6-19.61-.36-1-.71-2-1.08-3-4.68-12.63-10.6-25.7-16.64-35.68C488.6,898.31,488.34,897.85,488,897.35Z" transform="translate(1.5 -0.59)"/><path class="cls-1" d="M441.22,958.85l-.09-.06c-1.81.5-3.58,1-5.28,1.61.4.86.8,1.8,1.15,2.79,2.09-.71,4.28-1.35,6.55-1.94A9.66,9.66,0,0,0,441.22,958.85Z" transform="translate(1.5 -0.59)"/><path class="cls-1" d="M413,976h0c.93-.76,1.91-1.51,2.93-2.25a.16.16,0,0,0-.07-.16c-.35-.84-.77-1.73-1.19-2.62q-1.8,1.27-3.44,2.6A19.36,19.36,0,0,0,413,976Z" transform="translate(1.5 -0.59)"/><path class="cls-1" d="M424.15,968.63a15.69,15.69,0,0,0-2.3-2.16h0c-1.63.89-3.17,1.82-4.65,2.77.43.9.86,1.83,1.27,2.75l.89-.58Q421.63,970,424.15,968.63Z" transform="translate(1.5 -0.59)"/><path class="cls-1" d="M76,280.65a6.63,6.63,0,0,1-.07-1,4.51,4.51,0,0,1,.55-2.27,3.18,3.18,0,0,1,1.76-1.4,4.52,4.52,0,0,1,1.41-.22,9,9,0,0,1,2.47.43l-1.54-8.82L3,144.14v53L91.28,328.75l-4.79-27.47a86.65,86.65,0,0,1-6.71-10.34A30.54,30.54,0,0,1,76,280.65Z" transform="translate(1.5 -0.59)"/><path class="cls-1" d="M.27,138.09a.61.61,0,0,1,.07-.1Z" transform="translate(1.5 -0.59)"/><path class="cls-1" d="M.61,137.73Z" transform="translate(1.5 -0.59)"/><path class="cls-1" d="M.07,138.47v-.05S.08,138.45.07,138.47Z" transform="translate(1.5 -0.59)"/><path class="cls-1" d="M73.22,307.19l19.5,29.08a1.51,1.51,0,0,0,2.73-1.1l-5-28.85-.67-.82c-1-1.29-2.14-2.73-3.26-4.24l4.79,27.47L3,197.12v-53l-2.77-4.4a1.48,1.48,0,0,1-.22-.85v58.69a1.43,1.43,0,0,0,.26.83L67.94,299.33Z" transform="translate(1.5 -0.59)"/><path class="cls-1" d="M82.12,276.19c.34.1.69.22,1,.35a21.16,21.16,0,0,1,2.23,1L83.73,268l-1.38.32a1.49,1.49,0,0,1-1.61-.67l-.16-.25Z" transform="translate(1.5 -0.59)"/><path class="cls-1" d="M114.13,214.25c-5.51-4.51-11.15-9-14.91-14.21a19.58,19.58,0,0,1-4.15-11.47v-.75h0a9.14,9.14,0,0,1,1-4,5,5,0,0,1,2.56-2.31,6.14,6.14,0,0,1,2.2-.38,11.52,11.52,0,0,1,3.58.67c.5.18,1,.38,1.52.6l-33-70.32L3.76,139.65l79,125.45,56-12.88L126,225.12A95,95,0,0,0,114.13,214.25Z" transform="translate(1.5 -0.59)"/><path class="cls-1" d="M3,144.14,80.58,267.37l.16.25a1.49,1.49,0,0,0,1.61.67l1.38-.32,38.05-8.76,3.76-.87,2.11-.48,2.92-.67,10.6-2.45a1.42,1.42,0,0,0,1-.8,1.46,1.46,0,0,0,0-1.29l-7.64-16.29-1.37-2.92L130.59,228a1.35,1.35,0,0,1-.39.4,1.5,1.5,0,0,1-2.08-.42h0a31.17,31.17,0,0,0-2.18-2.82l12.73,27.1-56,12.88-79-125.45L72.84,112.1l33,70.32c.73.32,1.47.68,2.21,1.08s1.48.83,2.21,1.29l-.34-.74-35-74.5a1.5,1.5,0,0,0-1.91-.76L.94,137.55a2.1,2.1,0,0,0-.3.15h0a2.23,2.23,0,0,0-.27.26.61.61,0,0,0-.07.1,2.68,2.68,0,0,0-.18.33v.05h0a2,2,0,0,0-.07.42,1.48,1.48,0,0,0,.22.85Z" transform="translate(1.5 -0.59)"/><path class="cls-1" d="M135.46,212.9a1.59,1.59,0,0,1-.54-.39l-13.06-14.9h0a1.8,1.8,0,0,0-.2-.19l-.79-.73c-.68-.61-1.66-1.48-2.84-2.48a85.48,85.48,0,0,0-8.65-6.48,30.07,30.07,0,0,0-5.94-3.06,8.34,8.34,0,0,0-2.61-.51,2.54,2.54,0,0,0-1.49.38,2.63,2.63,0,0,0-.91,1.4,7.54,7.54,0,0,0-.33,2h0v.6a14.87,14.87,0,0,0,2.07,7.35,32.52,32.52,0,0,0,5.52,7c4.55,4.58,10.51,9,15.81,13.59a55.55,55.55,0,0,1,8.61,9l5.29-12.42Z" transform="translate(1.5 -0.59)"/><path class="cls-1" d="M110.34,184.79c-.73-.46-1.47-.89-2.21-1.29s-1.48-.76-2.21-1.08c-.52-.22-1-.42-1.52-.6a11.52,11.52,0,0,0-3.58-.67,6.14,6.14,0,0,0-2.2.38,5,5,0,0,0-2.56,2.31,9.14,9.14,0,0,0-1,4v.75a19.58,19.58,0,0,0,4.15,11.47c3.76,5.17,9.4,9.7,14.91,14.21A93.89,93.89,0,0,1,126,225.16a31.17,31.17,0,0,1,2.18,2.82,1.5,1.5,0,0,0,2.08.42h0a1.54,1.54,0,0,0,.41-2.08h0c-.18-.27-.37-.53-.55-.79a55.55,55.55,0,0,0-8.61-9c-5.3-4.62-11.26-9-15.81-13.59a32.52,32.52,0,0,1-5.52-7,14.87,14.87,0,0,1-2.07-7.35V188h0a7.54,7.54,0,0,1,.33-2,2.63,2.63,0,0,1,.91-1.4,2.54,2.54,0,0,1,1.49-.38,8.34,8.34,0,0,1,2.61.51,30.07,30.07,0,0,1,5.94,3.06,85.48,85.48,0,0,1,8.65,6.48c1.18,1,2.16,1.87,2.84,2.48l.79.73a1.8,1.8,0,0,1,.2.19h0l13.06,14.9a1.59,1.59,0,0,0,.54.39,1.5,1.5,0,0,0,2-.8,1.48,1.48,0,0,0-.25-1.57l-13-14.89v-.06l-.1-.1-.09-.08a106.14,106.14,0,0,0-8.3-7C113.92,187.16,112.13,185.9,110.34,184.79Z" transform="translate(1.5 -0.59)"/><polygon class="cls-1" points="96.59 187.23 96.59 187.23 96.59 187.23 96.59 187.23"/><path class="cls-1" d="M103.9,293.94l-1-.83c-.88-.7-2.12-1.7-3.6-2.83-3-2.27-6.84-5.12-10.52-7.42a39.45,39.45,0,0,0-6.65-3.51,7.7,7.7,0,0,0-2.46-.59,1,1,0,0,0-.54.1L79,279a2.62,2.62,0,0,0-.07.62c0,.21,0,.42,0,.62a27.23,27.23,0,0,0,3.11,8.6,80.76,80.76,0,0,0,5.86,9.3,145.91,145.91,0,0,0,9.33,11.56l7.29-15.27h0a1.22,1.22,0,0,1-.32-.2Z" transform="translate(1.5 -0.59)"/><path class="cls-1" d="M97.59,312.29a1.5,1.5,0,0,0,.08-2.12h0l-.19-.21-.21-.23a145.91,145.91,0,0,1-9.33-11.56,80.76,80.76,0,0,1-5.86-9.3,27.23,27.23,0,0,1-3.11-8.6c0-.2,0-.41,0-.62A2.62,2.62,0,0,1,79,279c.07-.17.08-.14.11-.17a1,1,0,0,1,.54-.1,7.7,7.7,0,0,1,2.46.59,39.45,39.45,0,0,1,6.65,3.51c3.68,2.3,7.56,5.15,10.52,7.42,1.48,1.13,2.72,2.13,3.6,2.83l1,.83.35.29a1.22,1.22,0,0,0,.32.2,1.49,1.49,0,0,0,1.6-2.5h0c-.2-.16-4.88-4.05-10.39-8a91.57,91.57,0,0,0-8.63-5.53q-.89-.48-1.74-.9c-.77-.38-1.52-.71-2.23-1-.36-.13-.71-.25-1-.35a9,9,0,0,0-2.47-.43,4.52,4.52,0,0,0-1.41.22,3.18,3.18,0,0,0-1.76,1.4,4.51,4.51,0,0,0-.55,2.27,6.63,6.63,0,0,0,.07,1,30.51,30.51,0,0,0,3.78,10.27,87.91,87.91,0,0,0,6.71,10.34c1.12,1.51,2.23,2.95,3.26,4.24l.67.82c2.87,3.54,5,5.87,5,5.89A1.49,1.49,0,0,0,97.59,312.29Z" transform="translate(1.5 -0.59)"/><path class="cls-1" d="M484.52,140.11a70.48,70.48,0,0,0,13.37-21H475.15a42.26,42.26,0,0,1,.32,5.15A43.19,43.19,0,0,1,461,156.57c1-.43,2.08-.88,3.08-1.35A65.84,65.84,0,0,0,484.52,140.11Z" transform="translate(1.5 -0.59)"/><path class="cls-1" d="M413.67,163.45l.13.05Z" transform="translate(1.5 -0.59)"/><path class="cls-1" d="M475.15,119.12h22.74a70.48,70.48,0,0,1-13.37,21,66,66,0,0,1-20.45,15.12c-1,.47-2,.92-3.08,1.35a43.19,43.19,0,0,1-8.62,6,71.14,71.14,0,0,0,13.41-4.85,68.82,68.82,0,0,0,9.14-5.31c1-.7,2-1.42,2.94-2.15a72.3,72.3,0,0,0,16-17.29,64.24,64.24,0,0,0,7.56-14.92,1.49,1.49,0,0,0-1.43-1.94H474.64A24.23,24.23,0,0,1,475.15,119.12Z" transform="translate(1.5 -0.59)"/><path class="cls-1" d="M403.65,152.78a40.32,40.32,0,1,0-11.81-28.51A40.31,40.31,0,0,0,403.65,152.78ZM430,95.67a28.6,28.6,0,1,1-28.6,28.6h0A28.6,28.6,0,0,1,430,95.67Z" transform="translate(1.5 -0.59)"/><path class="cls-1" d="M406.26,159a43.25,43.25,0,0,0,7.41,4.46l.13.05a43.3,43.3,0,0,0,61.35-44.38c-.12-1-.27-2-.46-3a43.31,43.31,0,1,0-71.07,40.73C404.47,157.59,405.34,158.31,406.26,159Zm25.89-75a40.3,40.3,0,1,1-28.5,11.8A40.3,40.3,0,0,1,432.15,84Z" transform="translate(1.5 -0.59)"/><path class="cls-1" d="M411.92,142.37a25.59,25.59,0,1,0-7.5-18.1A25.59,25.59,0,0,0,411.92,142.37Zm12-30.53a15.81,15.81,0,1,1-.05,0Z" transform="translate(1.5 -0.59)"/><path class="cls-1" d="M430,152.85a28.6,28.6,0,1,0-28.6-28.6h0A28.59,28.59,0,0,0,430,152.85Zm0-54.2a25.61,25.61,0,1,1-18.1,7.5,25.61,25.61,0,0,1,18.1-7.5Z" transform="translate(1.5 -0.59)"/><path class="cls-1" d="M417.21,130.94a9.42,9.42,0,1,0-2.77-6.67A9.42,9.42,0,0,0,417.21,130.94Z" transform="translate(1.5 -0.59)"/><path class="cls-1" d="M423.87,136.7a12.43,12.43,0,1,0-12.43-12.43,12.42,12.42,0,0,0,12.43,12.43Zm0-21.86a9.44,9.44,0,1,1-6.66,2.76,9.44,9.44,0,0,1,6.66-2.76Z" transform="translate(1.5 -0.59)"/><path class="cls-1" d="M338.24,457a55.41,55.41,0,0,0,8.53,20.6,47.91,47.91,0,0,0,15.12,14.5,54.29,54.29,0,0,0,26.2,7.26,1.5,1.5,0,1,0,.11-3c-10.39-.37-18.45-3-24.76-6.83A47.15,47.15,0,0,1,345.2,468.7,54.61,54.61,0,0,1,342,460c-.3-1.11-.5-2-.63-2.59l-.13-.69v-.17h0a1.52,1.52,0,0,0-3,.45Z" transform="translate(1.5 -0.59)"/><path class="cls-1" d="M410.76,977.93a12.26,12.26,0,0,0,1.19,1.2,7.54,7.54,0,0,0,1.81,1.21,5,5,0,0,0,2.2.52,4.68,4.68,0,0,0,2.17-.54,3.2,3.2,0,0,0,1.41-1.41,4.09,4.09,0,0,0,.38-1.79,10.72,10.72,0,0,0-.81-3.57c-.19-.52-.41-1-.64-1.56-.41-.92-.84-1.85-1.27-2.75-.19-.4-.38-.81-.55-1.19-.4-.87-.74-1.68-1-2.38a5.06,5.06,0,0,1-.34-1.54V964h.32a6.35,6.35,0,0,1,1.43.22,12.83,12.83,0,0,1,4.77,2.24h0a15.69,15.69,0,0,1,2.3,2.16c.79.88,1.49,1.78,2.2,2.64a12.38,12.38,0,0,0,2.19,2.15,5.08,5.08,0,0,0,3.07,1,6.72,6.72,0,0,0,2.85-.69,5.72,5.72,0,0,0,2.72-2.49,6.8,6.8,0,0,0,.76-3.31,13.8,13.8,0,0,0-.7-4.07l-.24-.73c-.35-1-.75-1.93-1.15-2.79s-.88-1.75-1.25-2.4a8.77,8.77,0,0,1,2.59-.42,7,7,0,0,1,3.94,1.21l.09.06a9.66,9.66,0,0,1,2.33,2.4,17.05,17.05,0,0,1,1.73,3.2,1.5,1.5,0,1,0,2.77-1.16,21.46,21.46,0,0,0-1.41-2.79,15.39,15.39,0,0,0-2-2.62,11.23,11.23,0,0,0-1.73-1.49,10,10,0,0,0-5.74-1.81,12.13,12.13,0,0,0-5.53,1.4,1.46,1.46,0,0,0-.71.95,1.53,1.53,0,0,0,.21,1.18h0a34,34,0,0,1,1.83,3.29c.06.11.11.22.16.33a24.68,24.68,0,0,1,1,2.45c.09.24.18.48.26.72a11.18,11.18,0,0,1,.53,3.08,4,4,0,0,1-.4,1.89,2.6,2.6,0,0,1-1.33,1.18,3.73,3.73,0,0,1-1.6.42,1.8,1.8,0,0,1-.88-.2,5.78,5.78,0,0,1-1.78-1.56c-.59-.68-1.26-1.54-2-2.45a21.21,21.21,0,0,0-1.91-2l-.27-.25a16.35,16.35,0,0,0-3.54-2.4,15.65,15.65,0,0,0-3.39-1.24,9.15,9.15,0,0,0-2.15-.31,4.74,4.74,0,0,0-1.3.18,2.93,2.93,0,0,0-1.26.79,4,4,0,0,0-.31.41,3.23,3.23,0,0,0-.45,1.74,6.25,6.25,0,0,0,.25,1.67,21.24,21.24,0,0,0,1.13,3c.31.69.65,1.4,1,2.11.42.89.84,1.78,1.19,2.62a.23.23,0,0,0,.07.16,16.16,16.16,0,0,1,.7,1.91,5.37,5.37,0,0,1,.27,1.48,1,1,0,0,1-.07.45l-.1.09a1.66,1.66,0,0,1-.79.2,2.27,2.27,0,0,1-.92-.23,7.06,7.06,0,0,1-2-1.65h0a19.36,19.36,0,0,1-1.77-2.43c-.31-.5-.6-1-.85-1.45s-.59-1.13-.76-1.5c-.09-.19-.16-.33-.2-.43V970h0a1.5,1.5,0,1,0-2.8,1.07.42.42,0,0,0,0,.1h0a33.32,33.32,0,0,0,2.34,4.32c.07.1.12.2.19.3A19.59,19.59,0,0,0,410.76,977.93Z" transform="translate(1.5 -0.59)"/><path class="cls-1" d="M105.8,960.67l.09.25a15.63,15.63,0,0,0,2.92,5.22,8.7,8.7,0,0,0,2.55,2,7.55,7.55,0,0,0,3.36.77,8.71,8.71,0,0,0,1.84-.19,7,7,0,0,0,2.91-1.29,6.68,6.68,0,0,0,2.32-3.54,14.91,14.91,0,0,0,.5-4.16c0-2-.2-4-.29-5.72v-1.33a12.28,12.28,0,0,1,.13-1.82,3.94,3.94,0,0,1,.29-1,1.66,1.66,0,0,1,.44-.58,1.68,1.68,0,0,1,.78-.29H124a1.63,1.63,0,0,1,1,.34,3.61,3.61,0,0,1,.58.66c.09.12.17.23.26.37a12.64,12.64,0,0,1,1,2.41c.11.34.21.69.31,1,.57,2.07,1,4.41,1.74,6.37a8.5,8.5,0,0,0,1.47,2.67,4.27,4.27,0,0,0,1.24,1,3.72,3.72,0,0,0,1.64.38,4.63,4.63,0,0,0,1.56-.29,4.94,4.94,0,0,0,1.56-.89,4.7,4.7,0,0,0,1.38-2.07,7.2,7.2,0,0,0,.35-2.35,26,26,0,0,0-1-6c-.16-.61-.3-1.19-.43-1.75-.08-.33-.16-.66-.22-1a11.19,11.19,0,0,1-.27-2v-.1a1.63,1.63,0,0,1,.14-.84v-.06a.58.58,0,0,1,.21-.07h.29a1.59,1.59,0,0,1,.87.29,3.54,3.54,0,0,1,.63.53,8.29,8.29,0,0,1,1.24,1.71c.2.34.38.71.56,1.09a28.38,28.38,0,0,1,1.57,4.27c.25.84.43,1.57.55,2.09.06.26.1.47.13.61v.15h0a1.53,1.53,0,0,0,3-.56,39.4,39.4,0,0,0-1.82-6.27l-.27-.65a20,20,0,0,0-1.47-2.88,11.12,11.12,0,0,0-.69-1,7.37,7.37,0,0,0-1.82-1.7,4.36,4.36,0,0,0-3.37-.65,3.56,3.56,0,0,0-1.29.53,3.31,3.31,0,0,0-1.22,1.59,5.2,5.2,0,0,0-.28,1.79v.56a15.29,15.29,0,0,0,.29,2.14c.06.27.13.55.19.82.27,1.14.57,2.31.84,3.45a17.45,17.45,0,0,1,.57,3.8,3.64,3.64,0,0,1-.32,1.69,1.43,1.43,0,0,1-.36.45,2.16,2.16,0,0,1-.63.35,1.62,1.62,0,0,1-.54.11.57.57,0,0,1-.26,0,1.52,1.52,0,0,1-.59-.59,11.67,11.67,0,0,1-1.26-3.28c-.44-1.6-.82-3.44-1.36-5.19-.18-.59-.38-1.18-.6-1.74a10.64,10.64,0,0,0-.51-1.08,7.25,7.25,0,0,0-1.32-1.88,5,5,0,0,0-1.48-1,4.76,4.76,0,0,0-1.86-.38,5.39,5.39,0,0,0-.8.06,4.78,4.78,0,0,0-2.15.87,4.41,4.41,0,0,0-1.09,1.23,6.21,6.21,0,0,0-.78,2.21,13.37,13.37,0,0,0-.15,1.54v.85a19.65,19.65,0,0,0,.09,2.29c.1,1.61.24,3.25.24,4.76a9.74,9.74,0,0,1-.69,4.14,3.26,3.26,0,0,1-1,1.18,4.05,4.05,0,0,1-1.69.73,5.65,5.65,0,0,1-1.23.13,4.48,4.48,0,0,1-2-.46,6.83,6.83,0,0,1-2.71-2.75,16.45,16.45,0,0,1-1.43-3.24,30,30,0,0,1-.78-3v-.17c-.2-1-.33-1.86-.4-2.48a4.7,4.7,0,0,0-.08-.72v-.26a1.5,1.5,0,1,0-3,.2h0a33.77,33.77,0,0,0,.78,4.9A19.37,19.37,0,0,0,105.8,960.67Z" transform="translate(1.5 -0.59)"/>
<archi id="d" name="语义名称">
    <content> 
        <type>architecture</type>
        <model>building</model>
        <element>window</element>
    </content>
    <layout>block|outline|2.5D</layout>
    <orientation>left|right|front</orientation>
    <shot>close|medium|long|background|common</shot>
    <boundingrect>
         <ele>1.508302927017212,1.4936459064483643,561.0339965820312,1009.8505249023438</ele>
    </boundingrect>
 </archi>
</svg>