<svg id="图层_1" data-name="图层 1" xmlns="http://www.w3.org/2000/svg" viewBox="0 0 70.21 33.57"><defs><style>.cls-1{fill:#fff;stroke:#000;stroke-miterlimit:10;}</style></defs><polygon class="cls-1" points="57.13 24.65 59.98 22.28 66.13 22.69 65.28 24.07 62.86 24.55 59.81 28.4 57.13 24.65"/><path class="cls-1" d="M53,28.76c-.27,0-3.61,2.72-3.61,2.72l1.26,1.3,6.45-3.34Z"/><path class="cls-1" d="M21.2,18.26C20.72,18.32.93,30.78.93,30.78s-.22,1.26,1.72,1,29-9.75,29-9.75Z"/><path class="cls-1" d="M7.12,7S1.48,8.36,5.64,12.24s38.46,16.94,51,17.33c10.92.34-3.55-6.08-3.55-6.08S18.56,4.43,13.89,4.5C13.89,4.5,8.1,4.38,7.12,7Z"/><path class="cls-1" d="M11.11,22.06s6.75,1.6,6.57,3.91a3,3,0,0,1-2.29,2.72s-5.25-1.2-5.84-2S7.62,22.44,11.11,22.06Z"/><ellipse class="cls-1" cx="10.52" cy="24.49" rx="1.82" ry="1.33" transform="translate(-14.08 34.78) rotate(-89.47)"/><polygon class="cls-1" points="54.63 27.33 58.56 28.8 66.75 25.11 64.76 24.24 54.63 27.33"/><polygon class="cls-1" points="6.96 7.37 8.38 7.15 8.73 6.09 7.5 6.08 6.96 7.37"/><polygon class="cls-1" points="9.37 6.02 9.01 7.02 11.1 7.09 10.93 6.1 9.37 6.02"/><polygon class="cls-1" points="11.53 6.24 11.63 7.08 13.67 7.53 13.67 7.1 12.37 6.08 11.53 6.24"/><polygon class="cls-1" points="21.24 8.42 20.67 9.77 21.5 10.17 22.24 8.85 21.24 8.42"/><polygon class="cls-1" points="23.01 9.29 22.44 10.64 23.27 11.04 24.01 9.73 23.01 9.29"/><polygon class="cls-1" points="24.83 10.13 24.27 11.48 25.1 11.88 25.83 10.56 24.83 10.13"/><polygon class="cls-1" points="26.86 11.21 26.29 12.57 27.12 12.97 27.86 11.65 26.86 11.21"/><polygon class="cls-1" points="28.74 12.11 28.18 13.46 29.01 13.86 29.74 12.54 28.74 12.11"/><path class="cls-1" d="M24.7,15.93l9.24,5.28L69.38,2.82a3.7,3.7,0,0,0-3.28-1.7Z"/><path class="cls-1" d="M39.92,7.06s8.53,2,8.3,4.93a3.77,3.77,0,0,1-2.89,3.44S38.7,13.92,38,13,35.52,7.54,39.92,7.06Z"/><ellipse class="cls-1" cx="39.18" cy="10.14" rx="2.29" ry="1.68" transform="translate(28.68 49.22) rotate(-89.47)"/><polygon class="cls-1" points="40.7 17.96 40.14 19.31 40.97 19.71 41.7 18.4 40.7 17.96"/><polygon class="cls-1" points="42.47 18.83 41.91 20.18 42.74 20.59 43.48 19.27 42.47 18.83"/><polygon class="cls-1" points="44.3 19.67 43.73 21.02 44.56 21.43 45.3 20.11 44.3 19.67"/><polygon class="cls-1" points="46.32 20.75 45.76 22.11 46.59 22.51 47.33 21.19 46.32 20.75"/>
<archi id="d" name="语义名称">
    <content> 
        <type>architecture</type>
        <model>building</model>
        <element>window</element>
    </content>
    <layout>block|outline|2.5D</layout>
    <orientation>left|right|front</orientation>
    <shot>close|medium|long|background|common</shot>
    <boundingrect>
         <ele>0.9224807620048523,1.116329312324524,68.45751953125,31.66366958618164</ele>
    </boundingrect>
 </archi>
</svg>