<svg id="图层_1" data-name="图层 1" xmlns="http://www.w3.org/2000/svg" viewBox="0 0 312.43 109.28"><defs><style>.cls-1{fill:#fff;stroke:#000;stroke-miterlimit:10;}</style></defs><polygon class="cls-1" points="186.65 9.12 186.65 5.5 236.83 5.5 236.83 10.52 186.65 9.12"/><rect class="cls-1" x="157.09" y="0.6" width="1.2" height="17.55"/><rect class="cls-1" x="140.94" y="7.78" width="10.17" height="11.77"/><path class="cls-1" d="M179.64,17.76V8.58h64l4,9.38Z"/><circle class="cls-1" cx="128.92" cy="12.76" r="10.25"/><polygon class="cls-1" points="79.55 38.11 50.38 38.11 53.01 16.78 55.13 -0.57 67.17 0.38 72.56 16.78 79.55 38.11"/><polygon class="cls-1" points="79.55 38.11 50.38 38.11 53.01 16.78 72.56 16.78 79.55 38.11"/><polygon class="cls-1" points="8.53 38.11 23.11 38.11 35.48 47.94 270.4 47.94 274.83 61.57 9.16 61.57 8.53 38.11"/><polygon class="cls-1" points="264.05 47.93 38.33 47.93 38.65 33.35 115.68 33.35 115.68 15.92 251.37 15.92 254.07 22.73 255.54 26.43 256.49 28.83 257.96 32.54 258.76 34.57 260.23 38.26 264.05 47.93"/><circle class="cls-1" cx="23.25" cy="71.71" r="4.12"/><path class="cls-1" d="M299.77,84.06c-10.58,12.24-21.26,24.51-21.26,24.51l-273.59.31V83.52L.79,59.74H304.1a7.59,7.59,0,0,1,5.79,12.49C306.82,75.85,303.33,80,299.77,84.06Z"/><path class="cls-1" d="M299.77,84.06c-10.58,12.24-21.26,24.51-21.26,24.51l-273.59.31V84.06Z"/><polygon class="cls-1" points="255.54 26.43 239.11 26.43 239.11 22.73 254.07 22.73 255.54 26.43"/><polygon class="cls-1" points="260.23 38.26 239.11 38.26 239.11 34.57 258.76 34.57 260.23 38.26"/><polygon class="cls-1" points="257.96 32.54 239.11 32.54 239.11 28.83 256.49 28.83 257.96 32.54"/><rect class="cls-1" x="117.78" y="40.16" width="8.17" height="3.55"/><rect class="cls-1" x="129.5" y="40.16" width="8.17" height="3.55"/><rect class="cls-1" x="141.21" y="40.16" width="8.17" height="3.55"/><rect class="cls-1" x="152.93" y="40.16" width="8.17" height="3.55"/><circle class="cls-1" cx="77.96" cy="72.5" r="3.24"/><circle class="cls-1" cx="101.71" cy="72.5" r="3.24"/><circle class="cls-1" cx="125.46" cy="72.5" r="3.24"/><circle class="cls-1" cx="149.21" cy="72.5" r="3.24"/><rect class="cls-1" x="189.95" y="69.76" width="10.29" height="3.52"/><rect class="cls-1" x="209.41" y="69.76" width="10.29" height="3.52"/><rect class="cls-1" x="228.87" y="69.76" width="10.29" height="3.52"/><rect class="cls-1" x="182.3" y="22.26" width="6.47" height="7.08"/><rect class="cls-1" x="191.57" y="22.26" width="6.47" height="7.08"/><rect class="cls-1" x="200.84" y="22.26" width="6.47" height="7.08"/><rect class="cls-1" x="210.11" y="22.26" width="6.47" height="7.08"/><line class="cls-1" x1="190.07" y1="5.39" x2="190.07" y2="8.9"/><line class="cls-1" x1="193.68" y1="5.39" x2="193.68" y2="8.9"/><line class="cls-1" x1="197.29" y1="5.39" x2="197.29" y2="8.9"/><line class="cls-1" x1="200.9" y1="5.39" x2="200.9" y2="8.9"/><line class="cls-1" x1="204.5" y1="5.39" x2="204.5" y2="8.9"/><line class="cls-1" x1="208.11" y1="5.39" x2="208.11" y2="8.9"/><line class="cls-1" x1="211.72" y1="5.39" x2="211.72" y2="8.9"/><line class="cls-1" x1="215.33" y1="5.39" x2="215.33" y2="8.9"/><line class="cls-1" x1="218.62" y1="5.39" x2="218.62" y2="8.9"/><line class="cls-1" x1="222.23" y1="5.39" x2="222.23" y2="8.9"/><line class="cls-1" x1="225.84" y1="5.39" x2="225.84" y2="8.9"/><line class="cls-1" x1="229.45" y1="5.39" x2="229.45" y2="8.9"/><line class="cls-1" x1="233.05" y1="5.39" x2="233.05" y2="8.9"/>
<archi id="d" name="语义名称">
    <content> 
        <type>architecture</type>
        <model>building</model>
        <element>window</element>
    </content>
    <layout>block|outline|2.5D</layout>
    <orientation>left|right|front</orientation>
    <shot>close|medium|long|background|common</shot>
    <boundingrect>
         <ele>0.7899999618530273,-0.5699999928474426,310.89361572265625,109.44998931884766</ele>
    </boundingrect>
 </archi>
</svg>