<svg id="图层_1" data-name="图层 1" xmlns="http://www.w3.org/2000/svg" xmlns:xlink="http://www.w3.org/1999/xlink" viewBox="0 0 45.38 201.77"><defs><style>.cls-1,.cls-2,.cls-4,.cls-7{fill:#595757;}.cls-1,.cls-4,.cls-5,.cls-7{stroke:#fff;stroke-miterlimit:10;}.cls-3{clip-path:url(#clip-path);}.cls-4{stroke-width:0.46px;}.cls-5{fill:none;}.cls-6{clip-path:url(#clip-path-2);}.cls-7{stroke-width:0.49px;}</style><clipPath id="clip-path"><polygon class="cls-1" points="44.16 166.98 44.16 104.28 43.31 104.28 43.31 17.96 2.09 17.96 2.09 104.28 1.24 104.28 1.24 166.98 0.47 166.98 0.47 201.11 2.09 201.11 43.31 201.11 44.92 201.11 44.92 166.98 44.16 166.98"/></clipPath><clipPath id="clip-path-2"><polygon class="cls-1" points="22.7 0.72 8.05 11.16 8.05 17.96 37.35 17.96 37.35 11.16 22.7 0.72"/></clipPath></defs><rect class="cls-1" x="2.09" y="17.96" width="41.22" height="183.15"/><rect class="cls-1" x="4.56" y="34.99" width="36.28" height="149.09"/><rect class="cls-1" x="1.23" y="104.28" width="42.93" height="62.7"/><rect class="cls-1" x="8.67" y="41.41" width="28.06" height="136.25"/><rect class="cls-1" x="0.47" y="166.98" width="44.45" height="34.13"/><polygon class="cls-2" points="44.16 166.98 44.16 104.28 43.31 104.28 43.31 17.96 2.09 17.96 2.09 104.28 1.24 104.28 1.24 166.98 0.47 166.98 0.47 201.11 2.09 201.11 43.31 201.11 44.92 201.11 44.92 166.98 44.16 166.98"/><g class="cls-3"><line class="cls-4" x1="45.28" y1="20.92" x2="0.11" y2="20.92"/><line class="cls-4" x1="45.28" y1="24.4" x2="0.11" y2="24.4"/><line class="cls-4" x1="45.28" y1="27.87" x2="0.11" y2="27.87"/><line class="cls-4" x1="45.28" y1="31.35" x2="0.11" y2="31.35"/><line class="cls-4" x1="45.28" y1="34.82" x2="0.11" y2="34.82"/><line class="cls-4" x1="45.28" y1="38.3" x2="0.11" y2="38.3"/><line class="cls-4" x1="45.28" y1="41.77" x2="0.11" y2="41.77"/><line class="cls-4" x1="45.28" y1="45.25" x2="0.11" y2="45.25"/><line class="cls-4" x1="45.28" y1="48.72" x2="0.11" y2="48.72"/><line class="cls-4" x1="45.28" y1="52.2" x2="0.11" y2="52.2"/><line class="cls-4" x1="45.28" y1="55.67" x2="0.11" y2="55.67"/><line class="cls-4" x1="45.28" y1="59.15" x2="0.11" y2="59.15"/><line class="cls-4" x1="45.28" y1="62.62" x2="0.11" y2="62.62"/><line class="cls-4" x1="45.28" y1="66.1" x2="0.11" y2="66.1"/><line class="cls-4" x1="45.28" y1="69.57" x2="0.11" y2="69.57"/><line class="cls-4" x1="45.28" y1="73.05" x2="0.11" y2="73.05"/><line class="cls-4" x1="45.28" y1="76.52" x2="0.11" y2="76.52"/><line class="cls-4" x1="45.28" y1="80" x2="0.11" y2="80"/><line class="cls-4" x1="45.28" y1="83.47" x2="0.11" y2="83.47"/><line class="cls-4" x1="45.28" y1="86.95" x2="0.11" y2="86.95"/><line class="cls-4" x1="45.28" y1="90.42" x2="0.11" y2="90.42"/><line class="cls-4" x1="45.28" y1="93.9" x2="0.11" y2="93.9"/><line class="cls-4" x1="45.28" y1="97.37" x2="0.11" y2="97.37"/><line class="cls-4" x1="45.28" y1="100.85" x2="0.11" y2="100.85"/><line class="cls-4" x1="45.28" y1="104.32" x2="0.11" y2="104.32"/><line class="cls-4" x1="45.28" y1="107.8" x2="0.11" y2="107.8"/><line class="cls-4" x1="45.28" y1="111.27" x2="0.11" y2="111.27"/><line class="cls-4" x1="45.28" y1="114.75" x2="0.11" y2="114.75"/><line class="cls-4" x1="45.28" y1="118.22" x2="0.11" y2="118.22"/><line class="cls-4" x1="45.28" y1="121.7" x2="0.11" y2="121.7"/><line class="cls-4" x1="45.28" y1="125.17" x2="0.11" y2="125.17"/><line class="cls-4" x1="45.28" y1="128.65" x2="0.11" y2="128.65"/><line class="cls-4" x1="45.28" y1="132.12" x2="0.11" y2="132.12"/><line class="cls-4" x1="45.28" y1="135.6" x2="0.11" y2="135.6"/><line class="cls-4" x1="45.28" y1="139.07" x2="0.11" y2="139.07"/><line class="cls-4" x1="45.28" y1="142.55" x2="0.11" y2="142.55"/><line class="cls-4" x1="45.28" y1="146.02" x2="0.11" y2="146.02"/><line class="cls-4" x1="45.28" y1="149.5" x2="0.11" y2="149.5"/><line class="cls-4" x1="45.28" y1="152.97" x2="0.11" y2="152.97"/><line class="cls-4" x1="45.28" y1="156.45" x2="0.11" y2="156.45"/><line class="cls-4" x1="45.28" y1="159.92" x2="0.11" y2="159.92"/><line class="cls-4" x1="45.28" y1="163.4" x2="0.11" y2="163.4"/><line class="cls-4" x1="45.28" y1="166.87" x2="0.11" y2="166.87"/><line class="cls-4" x1="45.28" y1="170.35" x2="0.11" y2="170.35"/><line class="cls-4" x1="45.28" y1="173.82" x2="0.11" y2="173.82"/><line class="cls-4" x1="45.28" y1="177.3" x2="0.11" y2="177.3"/><line class="cls-4" x1="45.28" y1="180.77" x2="0.11" y2="180.77"/><line class="cls-4" x1="45.28" y1="184.25" x2="0.11" y2="184.25"/><line class="cls-4" x1="45.28" y1="187.72" x2="0.11" y2="187.72"/><line class="cls-4" x1="45.28" y1="191.2" x2="0.11" y2="191.2"/><line class="cls-4" x1="45.28" y1="194.67" x2="0.11" y2="194.67"/><line class="cls-4" x1="45.28" y1="198.15" x2="0.11" y2="198.15"/><line class="cls-4" x1="40.84" y1="201.11" x2="40.84" y2="17.96"/><line class="cls-4" x1="36.81" y1="201.11" x2="36.81" y2="17.96"/><line class="cls-4" x1="32.78" y1="201.11" x2="32.78" y2="17.96"/><line class="cls-4" x1="28.75" y1="201.11" x2="28.75" y2="17.96"/><line class="cls-4" x1="24.71" y1="201.11" x2="24.71" y2="17.96"/><line class="cls-4" x1="20.68" y1="201.11" x2="20.68" y2="17.96"/><line class="cls-4" x1="16.65" y1="201.11" x2="16.65" y2="17.96"/><line class="cls-4" x1="12.62" y1="201.11" x2="12.62" y2="17.96"/><line class="cls-4" x1="8.59" y1="201.11" x2="8.59" y2="17.96"/><line class="cls-4" x1="4.56" y1="201.11" x2="4.56" y2="17.96"/></g><polygon class="cls-5" points="44.16 166.98 44.16 104.28 43.31 104.28 43.31 17.96 2.09 17.96 2.09 104.28 1.24 104.28 1.24 166.98 0.47 166.98 0.47 201.11 2.09 201.11 43.31 201.11 44.92 201.11 44.92 166.98 44.16 166.98"/><polygon class="cls-2" points="22.7 0.72 8.05 11.16 8.05 17.96 37.35 17.96 37.35 11.16 22.7 0.72"/><g class="cls-6"><rect class="cls-7" x="8.05" y="11.16" width="29.3" height="6.8"/><polygon class="cls-7" points="37.35 11.16 8.05 11.16 22.7 0.72 37.35 11.16"/><line class="cls-7" x1="13.03" y1="17.96" x2="13.03" y2="3.6"/><line class="cls-7" x1="17.87" y1="17.96" x2="17.87" y2="3.6"/><line class="cls-7" x1="22.7" y1="17.96" x2="22.7" y2="-1.23"/><line class="cls-7" x1="27.53" y1="17.96" x2="27.53" y2="3.6"/><line class="cls-7" x1="32.36" y1="17.96" x2="32.36" y2="3.6"/></g><polygon class="cls-5" points="22.7 0.72 8.05 11.16 8.05 17.96 37.35 17.96 37.35 11.16 22.7 0.72"/>
<archi id="d" name="语义名称">
    <content> 
        <type>architecture</type>
        <model>building</model>
        <element>window</element>
    </content>
    <layout>block|outline|2.5D</layout>
    <orientation>left|right|front</orientation>
    <shot>close|medium|long|background|common</shot>
    <boundingrect>
         <ele>0.11000000685453415,-1.2300000190734863,45.16999816894531,202.3400115966797</ele>
    </boundingrect>
 </archi>
</svg>