<?xml version="1.0" encoding="GBK"?>
<svg id="archi_svg_beijing5" width="8000" height="8000" viewBox="0 0 8000 8000" xmlns="http://www.w3.org/2000/svg" xmlns:xlink="http://www.w3.org/1999/xlink">
<style xmlns="http://www.w3.org/2000/svg" xmlns:xlink="http://www.w3.org/1999/xlink" type="text/css">use.ic-1 { fill: skyblue; }use.ic-2 { fill:none; stroke:#42C2FF;stroke-width:2}</style><svg id="beijing5" xml:space="preserve">
<use class="ic-2" xlink:href="#archi_beijing5"/></svg>
<defs>
<g id='archi_beijing5'>
<g xmlns="http://www.w3.org/2000/svg" xmlns:xlink="http://www.w3.org/1999/xlink">
	<g>
		<defs>
			<path id="SVGID_517_" d="M32.2,193h30.5c2.7-2.2,5-4.9,6.6-8.2c8.3-16.5,14.2-35.2,12.7-94.6c-0.7-28.6-7.1-47.6-14.7-59.7     l-37.6-0.4c-1.7,21.6-4.2,120.4,2,161.2C31.8,191.9,32,192.5,32.2,193z"/>
		</defs>
		<use xlink:href="#SVGID_517_" style="overflow:visible;"/>
		<clipPath id="SVGID_1_">
			<use xlink:href="#SVGID_517_" style="overflow:visible;"/>
		</clipPath>
		<g style="clip-path:url(#SVGID_1_);">
			<line class="st475" x1="79.6" y1="35.6" x2="19.8" y2="35.2"/>
			<line class="st475" x1="79.9" y1="39.9" x2="19.8" y2="39.5"/>
			<line class="st475" x1="80.1" y1="44.2" x2="19.8" y2="43.7"/>
			<line class="st475" x1="80.4" y1="48.5" x2="19.8" y2="48"/>
			<line class="st475" x1="80.7" y1="52.7" x2="19.8" y2="52.3"/>
			<line class="st475" x1="80.9" y1="57" x2="19.8" y2="56.6"/>
			<line class="st475" x1="81.2" y1="61.3" x2="19.8" y2="60.8"/>
			<line class="st475" x1="81.5" y1="65.6" x2="19.8" y2="65.1"/>
			<line class="st475" x1="81.7" y1="69.8" x2="19.8" y2="69.4"/>
			<line class="st475" x1="82" y1="74.1" x2="19.8" y2="73.7"/>
			<line class="st475" x1="82.3" y1="78.4" x2="19.8" y2="77.9"/>
			<line class="st475" x1="82.5" y1="82.7" x2="19.8" y2="82.2"/>
			<line class="st475" x1="82.8" y1="86.9" x2="19.8" y2="86.5"/>
			<line class="st475" x1="83.1" y1="91.2" x2="19.8" y2="90.8"/>
			<line class="st475" x1="83.4" y1="95.5" x2="19.8" y2="95.1"/>
			<line class="st475" x1="83.6" y1="99.8" x2="19.8" y2="99.3"/>
			<line class="st475" x1="83.9" y1="104.1" x2="19.8" y2="103.6"/>
			<line class="st475" x1="84.2" y1="108.3" x2="19.8" y2="107.9"/>
			<line class="st475" x1="84.4" y1="112.6" x2="19.8" y2="112.2"/>
			<line class="st475" x1="84.7" y1="116.9" x2="19.8" y2="116.4"/>
			<line class="st475" x1="85" y1="121.2" x2="19.8" y2="120.7"/>
			<line class="st475" x1="85.2" y1="125.4" x2="19.8" y2="125"/>
			<line class="st475" x1="85.5" y1="129.7" x2="19.8" y2="129.3"/>
			<line class="st475" x1="85.8" y1="134" x2="19.8" y2="133.5"/>
			<line class="st475" x1="86" y1="138.3" x2="19.8" y2="137.8"/>
			<line class="st475" x1="86.3" y1="142.5" x2="19.8" y2="142.1"/>
			<line class="st475" x1="86.6" y1="146.8" x2="19.8" y2="146.4"/>
			<line class="st475" x1="86.8" y1="151.1" x2="19.8" y2="150.6"/>
			<line class="st475" x1="87.1" y1="155.4" x2="19.8" y2="154.9"/>
			<line class="st475" x1="87.4" y1="159.6" x2="19.8" y2="159.2"/>
			<line class="st475" x1="87.6" y1="163.9" x2="19.8" y2="163.5"/>
			<line class="st475" x1="87.9" y1="168.2" x2="19.8" y2="167.8"/>
			<line class="st475" x1="88.2" y1="172.5" x2="19.8" y2="172"/>
			<line class="st475" x1="88.5" y1="176.8" x2="19.8" y2="176.3"/>
			<line class="st475" x1="88.7" y1="181" x2="19.8" y2="180.6"/>
			<line class="st475" x1="89" y1="185.3" x2="19.8" y2="184.9"/>
			<line class="st475" x1="89.3" y1="189.6" x2="19.8" y2="189.1"/>
		</g>
		<use xlink:href="#SVGID_517_" style="overflow:visible;stroke-miterlimit:10;"/>
	</g>
	<path class="st475" d="M17.7,3.4c3.6-3.6,11.6-4.6,20.8-1.5c-29.3,0-26.3,67-27.4,107.1c-1.1,40.1,7.2,84,7.2,84H12   c0,0-14.6-39.2-11.5-91.8C3.5,48.8,12.1,8.9,17.7,3.4z"/>
	<path class="st475" d="M74.1,32.1C56.4-0.2,28.5-4.4,20.7,3.4C15.1,8.9,6.5,48.8,3.4,101.3C0.3,153.8,15,193,15,193h17.3   c-0.2-0.6-0.4-1.1-0.5-1.7C25.2,148.4,28.3,41.4,30,27.4c1.5-12.4,6.3-16.2,14-15.5c10.5,1,36.6,18.9,38,78.3   c1.4,59.4-4.5,78.1-12.7,94.6c-1.6,3.2-3.9,5.9-6.6,8.2h9.7c0,0,21.7-28.1,22.8-68.3C96.3,84.7,91.9,64.5,74.1,32.1z"/>
	<path class="st475" d="M32.2,193c-0.2-0.6-0.4-1.1-0.5-1.7C25.2,148.4,28.3,41.4,30,27.4c1.5-12.4,6.3-16.2,14-15.5   c10.5,1,36.6,18.9,38,78.3c1.4,59.4-4.5,78.1-12.7,94.6c-1.6,3.2-3.9,5.9-6.6,8.2h3.7c1.6-1.7,2.9-3.5,4-5.5   c8.9-17.1,15.2-36.4,13.6-97.8C82.5,28.3,54.5,9.8,43.2,8.8c-8.3-0.7-13.4,3.1-15,16c-1.8,14.4-5.1,123.3,1.7,168.2H32.2z"/>
</g>

<archi xmlns="http://www.w3.org/2000/svg" xmlns:xlink="http://www.w3.org/1999/xlink" id="d" name="&#x8BED;&#x4E49;&#x540D;&#x79F0;">
    <content> 
        <type>architecture</type>
        <model>building</model>
        <element>window</element>
    </content>
    <layout>block|outline|2.5D</layout>
    <orientation>left|right|front</orientation>
    <shot>close|medium|long|background|common</shot>
    <boundingrect>
         <ele>0.0679922103881836,0.02231597900390625,95.28984832763672,192.97769165039062</ele>
    </boundingrect>
 </archi>

<title>archi_beijing5</title>
</g>
</defs>
</svg>
