<?xml version="1.0" encoding="GBK"?>
<svg id="archi_svg_beijing9" width="8000" height="8000" viewBox="0 0 8000 8000" xmlns="http://www.w3.org/2000/svg" xmlns:xlink="http://www.w3.org/1999/xlink">
<style xmlns="http://www.w3.org/2000/svg" xmlns:xlink="http://www.w3.org/1999/xlink" type="text/css">use.ic-1 { fill: skyblue; }use.ic-2 { fill:none; stroke:#42C2FF;stroke-width:2}</style><svg id="beijing9" xml:space="preserve">
<use class="ic-2" xlink:href="#archi_beijing9"/></svg>
<defs>
<g id='archi_beijing9'>
<g xmlns="http://www.w3.org/2000/svg" xmlns:xlink="http://www.w3.org/1999/xlink">
	<g>
		<rect x="11.3" y="26.6" class="st475" width="41.5" height="10.4"/>
		<rect x="10.8" y="34" class="st475" width="42.6" height="12.7"/>
		<rect x="10.4" y="43.3" class="st475" width="43.6" height="15"/>
		<rect x="10.2" y="54.5" class="st475" width="44.7" height="17.3"/>
		<rect x="9.9" y="67.4" class="st475" width="45.7" height="19.7"/>
		<rect x="9.8" y="81.9" class="st475" width="46.7" height="22"/>
		<rect x="9.6" y="97.9" class="st475" width="47.8" height="24.3"/>
		<rect x="9.5" y="115.1" class="st475" width="48.8" height="26.6"/>
		<rect x="9.4" y="133.6" class="st475" width="49.8" height="28.9"/>
		<rect x="9.2" y="153.1" class="st475" width="50.9" height="31.2"/>
		<rect x="9" y="173.5" class="st475" width="51.9" height="33.6"/>
		<rect x="8.7" y="194.6" class="st475" width="52.9" height="35.9"/>
		<rect x="8.3" y="216.5" class="st475" width="54" height="38.2"/>
		<rect x="7.9" y="238.8" class="st475" width="55" height="40.5"/>
	</g>
	<polygon class="st475" points="9.5,0.2 45.5,0.2 47.5,26.6 7.5,26.6  "/>
	<polygon class="st475" points="49.7,0.2 45.5,0.2 47.5,26.6 52.5,26.6  "/>
	<polyline class="st475" points="45.5,0.2 38.8,26.6 35.6,0.2 29.1,26.6 26.3,0.2 18.2,26.6 16.4,0.2 7.5,26.6  "/>
	<g>
		<rect x="6.7" y="26.6" class="st475" width="41.5" height="10.4"/>
		<rect x="6.2" y="34" class="st475" width="42.6" height="12.7"/>
		<rect x="5.7" y="43.3" class="st475" width="43.6" height="15"/>
		<rect x="5.2" y="54.5" class="st475" width="44.7" height="17.3"/>
		<rect x="4.7" y="67.4" class="st475" width="45.7" height="19.7"/>
		<rect x="4.1" y="81.9" class="st475" width="46.7" height="22"/>
		<rect x="3.6" y="97.9" class="st475" width="47.8" height="24.3"/>
		<rect x="3.1" y="115.1" class="st475" width="48.8" height="26.6"/>
		<rect x="2.6" y="133.6" class="st475" width="49.8" height="28.9"/>
		<rect x="2.1" y="153.1" class="st475" width="50.9" height="31.2"/>
		<rect x="1.6" y="173.5" class="st475" width="51.9" height="33.6"/>
		<rect x="1" y="194.6" class="st475" width="52.9" height="35.9"/>
		<rect x="0.5" y="216.5" class="st475" width="54" height="38.2"/>
		<rect x="0" y="238.8" class="st475" width="55" height="40.5"/>
	</g>
	<g>
		<rect x="6.7" y="26.6" class="st475" width="41.5" height="1"/>
		<rect x="6.2" y="34.1" class="st475" width="42.6" height="1.1"/>
		<rect x="5.7" y="43.3" class="st475" width="43.6" height="1.1"/>
		<rect x="5.2" y="54.3" class="st475" width="44.7" height="1.2"/>
		<rect x="4.7" y="66.9" class="st475" width="45.7" height="1.2"/>
		<rect x="4.1" y="81.1" class="st475" width="46.7" height="1.3"/>
		<rect x="3.6" y="96.8" class="st475" width="47.8" height="1.3"/>
		<rect x="3.1" y="113.8" class="st475" width="48.8" height="1.4"/>
		<rect x="2.6" y="132.1" class="st475" width="49.8" height="1.4"/>
		<rect x="2.1" y="151.5" class="st475" width="50.9" height="1.5"/>
		<rect x="1.6" y="172.1" class="st475" width="51.9" height="1.5"/>
		<rect x="1" y="193.6" class="st475" width="52.9" height="1.6"/>
		<rect x="0.5" y="216.1" class="st475" width="54" height="1.6"/>
		<rect x="0" y="239.4" class="st475" width="55" height="1.7"/>
	</g>
</g>

<archi xmlns="http://www.w3.org/2000/svg" xmlns:xlink="http://www.w3.org/1999/xlink" id="d" name="&#x8BED;&#x4E49;&#x540D;&#x79F0;">
    <content> 
        <type>architecture</type>
        <model>building</model>
        <element>window</element>
    </content>
    <layout>block|outline|2.5D</layout>
    <orientation>left|right|front</orientation>
    <shot>close|medium|long|background|common</shot>
    <boundingrect>
         <ele>0,0.20000000298023224,62.900001525878906,279.1000061035156</ele>
    </boundingrect>
 </archi>

<title>archi_beijing9</title>
</g>
</defs>
</svg>
