<?xml version="1.0" encoding="GBK"?>
<svg id="archi_svg_beijing11" width="8000" height="8000" viewBox="0 0 8000 8000" xmlns="http://www.w3.org/2000/svg" xmlns:xlink="http://www.w3.org/1999/xlink">
<style xmlns="http://www.w3.org/2000/svg" xmlns:xlink="http://www.w3.org/1999/xlink" type="text/css">use.ic-1 { fill: skyblue; }use.ic-2 { fill:none; stroke:#42C2FF;stroke-width:2}</style><svg id="beijing11" xml:space="preserve">
<use class="ic-2" xlink:href="#archi_beijing11"/></svg>
<defs>
<g id='archi_beijing11'>
<g xmlns="http://www.w3.org/2000/svg" xmlns:xlink="http://www.w3.org/1999/xlink">
	<path class="st475" d="M87.1,0.3c-0.1,0-4.1-0.2-4.2,3.2c0,1.1,0.4,2.7,1.5,4.8h5.4C91,5.9,91.4,4.2,91.2,3   C90.8,0,87.2,0.3,87.1,0.3z"/>
	<g>
		<path class="st475" d="M81.2,19.5C81.2,19.5,81.2,19.5,81.2,19.5C81.2,19.5,81.2,19.5,81.2,19.5z"/>
	</g>
	<g>
		<path class="st475" d="M56.8,72.8c0.2-0.3,1-0.7,2.1-1.1C57.4,72.2,56.8,72.7,56.8,72.8z"/>
	</g>
	<path class="st475" d="M90.6,9c0-1-2.1-1.1-3.5-1.1c-1.4,0-3.5,0.1-3.5,1.1c0,0,0,0,0,0c0,0.3,0.3,0.5,0.3,0.5   c0.2,0.1,6.1,0.1,6.3,0C90.3,9.5,90.6,9.3,90.6,9C90.6,9,90.6,9,90.6,9z"/>
	<path class="st475" d="M90.6,9.2c0-0.7-2.1-0.8-3.5-0.8c-1.4,0-3.5,0.1-3.5,0.8c0,0,0,0,0,0c0,0.3,0.3,0.4,0.3,0.4   c0.2,0.1,0.6,0.2,0.6,0.2h5.2c0,0,0.4-0.1,0.6-0.2C90.3,9.6,90.6,9.5,90.6,9.2C90.6,9.2,90.6,9.2,90.6,9.2z"/>
	<path class="st475" d="M87.1,8.9c0,0-2.6,0-2.6,1v2.2h5.2V9.9C89.7,9,87.1,8.9,87.1,8.9z"/>
	<path class="st475" d="M90.6,13.2v-0.4c0,0,0,0,0,0c-0.1-0.5-0.9-1-0.9-1s-0.4-0.5-2.6-0.5c-2.2,0-2.6,0.5-2.6,0.5s-0.9,0.5-0.9,1   c0,0,0,0,0,0v0.4c0,0,0.5-0.1,3.5-0.1C90.2,13.1,90.6,13.2,90.6,13.2z"/>
	<g>
		<path class="st475" d="M93,19.5C93,19.5,93,19.5,93,19.5C93,19.5,93,19.5,93,19.5z"/>
	</g>
	<path class="st475" d="M91.2,13.4c0,0-1-0.7-4.1-0.7c-3.1,0-4.1,0.7-4.1,0.7c-1,0.4-1.5,5.2-1.5,5.2s0.1-1.1,4.4-1.3   c0.3,0,0.7,0,1.1,0c0.4,0,0.8,0,1.1,0c4.3,0.2,4.3,1.2,4.4,1.4C92.6,18.7,92.2,13.8,91.2,13.4z"/>
	<path class="st475" d="M93,18.1c0-0.2-0.6-1.4-5.9-1.4s-6,1.3-6,1.5c-0.1,0.4,0.2,1,0.2,1c0.6-2,5.8-1.8,5.8-1.8s4.7-0.3,5.3,1.6   C92.4,19,93,18.9,93,18.1L93,18.1C93,18.2,93,18.1,93,18.1z"/>
	<path class="st475" d="M93,18.7c0-0.2-1.3-1.4-5.9-1.4s-5.9,1.2-5.9,1.4c0,0,0,0,0,0v0c0,0.7,0.6,0.8,0.6,0.8h10.6   C92.4,19.6,93,19.4,93,18.7L93,18.7C93,18.7,93,18.7,93,18.7z"/>
	<path class="st475" d="M104.6,31.1c-2.7-1.5-9.3-8-12.2-12c-1.3-1.7-9.6-1.6-10.6,0c-2.9,4-9.6,10.3-12.2,12   c-6.4,4.2-20.5,9.7-21.7,10.5c-1.5,0.9-1.9,1.8-1.9,2.5c0,1,0.3,1.7,0.3,1.7h81.5c0,0,0.1-0.2,0.1-1.7c0-0.7-0.7-1.6-1.7-2.4   C125.1,40.8,114.9,37.1,104.6,31.1z"/>
	<path class="st475" d="M87.1,37.7c-11.5,0-41.8,1.4-40.8,8.1c0,0,3,2.9,11.6,2.9c0,0,6.3-1,29.1-1c22.8,0,29.1,1,29.1,1   c10.3-0.7,11.6-2.9,11.6-2.9C127.9,38.9,98.6,37.7,87.1,37.7z"/>
	<path class="st475" d="M87.1,44.2c-22.8,0-29.1,4.5-29.1,4.5v14.7c0,0,58.2,0,58.2,0l0-14.7C116.2,48.8,109.9,44.2,87.1,44.2z"/>
	<path class="st475" d="M135.6,74.8c-8.5-4.1-16.4-11.5-20.2-12.3c0,0-11.5-3.2-28.3-3.2c-14.4,0-26.8,1.1-30.4,4.1   c-8.2,7-21.6,12.9-23.4,14.3c-1.1,0.8-2.1,3.1-0.4,4.3l108.7-1C142.2,78.6,141.4,77.6,135.6,74.8z"/>
	<path class="st475" d="M139.7,78.6c-2.9-1.2-15-6.4-52.6-6.4c-37.6,0-49.7,5.2-52.6,6.4c-1.7,0.7-2,1.5-1.9,2.2c0,0.6,0.4,1,0.4,1   s4.1,2.1,11.5,2.8h85.7c6-0.8,11.5-3.2,11.5-3.8C141.7,80.2,141.4,79.3,139.7,78.6z"/>
	<path class="st475" d="M87.1,77.3c-40.3,0-43.6,7.9-43.6,7.9v10.2c0,0,8.2-1.5,43.6-1.5c35.4,0,43.6,1.5,43.6,1.5V85.3   C130.7,85.3,127.4,77.3,87.1,77.3z"/>
	<path class="st475" d="M150.9,107.2C139.5,99.8,138,97,132.7,95.1c-5.3-1.9-10.9-4.7-45.5-4.7c-34.6,0-45.5,4.7-45.5,4.7   c-2,1.8-16.2,11-18.1,12.2c-2,1.2-0.5,3.3-0.5,3.1c-0.9-5.5,64.2-7.6,64.2-7.6s66,1.9,64.2,7.6   C151.3,110.4,153.1,108.7,150.9,107.2z"/>
	<path class="st475" d="M151.4,109.7c-0.1-0.4-0.7-1.1-2.3-1.6c-2.8-0.9-18.5-5.4-61.9-5.4c-43.4,0-59.1,4.5-61.9,5.4   c-1.7,0.5-2.2,1.1-2.3,1.6c-0.1,0.4-0.1,0.4,0.1,0.6c0.4,0.6,3.2,2,10.5,2H142c7.3,0,9.3-2,9.3-2S151.5,110.1,151.4,109.7z"/>
	<path class="st475" d="M87.1,106.9c-40.3,0-54.3,4.6-54.3,4.6v25.3h54.3h54.3v-25.3C141.4,111.5,127.4,106.9,87.1,106.9z"/>
	<g>
		<polygon class="st475" points="53.6,136.8 62.3,136.8 62.3,121.9 53.6,122.3   "/>
		<rect x="81.4" y="121.2" class="st475" width="11.5" height="15.6"/>
		<polygon class="st475" points="111.9,121.9 111.9,136.8 120.6,136.8 120.6,122.3   "/>
	</g>
	<rect y="142.7" class="st475" width="174.2" height="7.3"/>
	<rect x="7.2" y="136.8" class="st475" width="159.8" height="5.9"/>
	<polygon class="st475" points="80.6,42.5 80.6,60.8 87.1,60.8 93.7,60.8 93.7,42.5  "/>
	<rect x="82.7" y="44.5" class="st475" width="8.9" height="14.4"/>
</g>

<archi xmlns="http://www.w3.org/2000/svg" xmlns:xlink="http://www.w3.org/1999/xlink" id="d" name="&#x8BED;&#x4E49;&#x540D;&#x79F0;">
    <content> 
        <type>architecture</type>
        <model>building</model>
        <element>window</element>
    </content>
    <layout>block|outline|2.5D</layout>
    <orientation>left|right|front</orientation>
    <shot>close|medium|long|background|common</shot>
    <boundingrect>
         <ele>0,0.29166650772094727,174.1999969482422,149.70834350585938</ele>
    </boundingrect>
 </archi>

<title>archi_beijing11</title>
</g>
</defs>
</svg>
