<?xml version="1.0" encoding="GBK"?>
<svg id="archi_svg_guangzhou5" width="8000" height="8000" viewBox="0 0 8000 8000" xmlns="http://www.w3.org/2000/svg" xmlns:xlink="http://www.w3.org/1999/xlink">
<style xmlns="http://www.w3.org/2000/svg" xmlns:xlink="http://www.w3.org/1999/xlink" type="text/css">use.ic-1 { fill: skyblue; }use.ic-2 { fill:none; stroke:#42C2FF;stroke-width:2}</style><svg id="guangzhou5" xml:space="preserve">
<use class="ic-2" xlink:href="#archi_guangzhou5"/></svg>
<defs>
<g id='archi_guangzhou5'>
<defs xmlns="http://www.w3.org/2000/svg" xmlns:xlink="http://www.w3.org/1999/xlink"><style>.cls-1,.cls-2{}.cls-1,.cls-4{stroke-miterlimit:10;}.cls-3{clip-path:url(#clip-path);}.cls-4{}</style><clipPath id="clip-path"><path class="cls-1" d="M92,27.79c0,4.93-3.74,7.48-16.17,7.48s-16.18-3-16.18-7.48c0-10.34,8.69-21.14,16.18-21.14S92,17.45,92,27.79Z"/></clipPath></defs>
<path xmlns="http://www.w3.org/2000/svg" xmlns:xlink="http://www.w3.org/1999/xlink" class="cls-1" d="M78.6,39.41c6.64,32.53,34.77,87.68,66.17,125.13"/>
<path xmlns="http://www.w3.org/2000/svg" xmlns:xlink="http://www.w3.org/1999/xlink" class="cls-1" d="M71.25,39.2c1.65,15.71,4.34,55.06,43,125.38"/>
<path xmlns="http://www.w3.org/2000/svg" xmlns:xlink="http://www.w3.org/1999/xlink" class="cls-1" d="M78.77,46.16C56.46,46.16,42,66.27,42,98.74c0,16-1.21,44.58,1.9,65.86H54.27c-1.23-13.66-1.91-29.16-1.91-37,0-44,11.45-74.42,26.73-74.42,5.53,0,14.09,4.45,18.42,12.05C97.51,57.25,86.69,46.16,78.77,46.16Z"/>
<path xmlns="http://www.w3.org/2000/svg" xmlns:xlink="http://www.w3.org/1999/xlink" class="cls-1" d="M75.78.53c-22.31,0-41.42,49.38-41.42,99.92a501,501,0,0,0,4.51,64.15h9.56c-1.42-14.33-2.2-31.57-2.2-40,0-41.57,13.26-74.41,28.53-74.41S103.44,84,103.44,124.57c0,8.46-.79,25.7-2.2,40h11.45a503,503,0,0,0,4.51-64.15C117.2,49.91,98.09.53,75.78.53Z"/>
<path xmlns="http://www.w3.org/2000/svg" xmlns:xlink="http://www.w3.org/1999/xlink" class="cls-2" d="M92,27.79c0,4.93-3.74,7.48-16.17,7.48s-16.18-3-16.18-7.48c0-10.34,8.69-21.14,16.18-21.14S92,17.45,92,27.79Z"/>
<g xmlns="http://www.w3.org/2000/svg" xmlns:xlink="http://www.w3.org/1999/xlink" class="cls-3"><rect class="cls-1" x="68.59" y="31.17" width="14.37" height="6.16" rx="1.12"/></g>
<path xmlns="http://www.w3.org/2000/svg" xmlns:xlink="http://www.w3.org/1999/xlink" class="cls-4" d="M92,27.79c0,4.93-3.74,7.48-16.17,7.48s-16.18-3-16.18-7.48c0-10.34,8.69-21.14,16.18-21.14S92,17.45,92,27.79Z"/>
<path xmlns="http://www.w3.org/2000/svg" xmlns:xlink="http://www.w3.org/1999/xlink" class="cls-1" d="M63.27,29.76c0-10.17,6.82-21.42,15.51-21.42a8.79,8.79,0,0,1,4.89,1.81c-2.5-2.17-5.27-3.5-7.89-3.5-7.49,0-16.18,10.8-16.18,21.14,0,2.85,1.52,5.1,5.79,6.36C64,33.38,63.27,31.38,63.27,29.76Z"/>
<path xmlns="http://www.w3.org/2000/svg" xmlns:xlink="http://www.w3.org/1999/xlink" class="cls-1" d="M71.76,33.4c-6.55,36.07-27,82-71,131.18"/>
<path xmlns="http://www.w3.org/2000/svg" xmlns:xlink="http://www.w3.org/1999/xlink" class="cls-1" d="M80.27,34c-1.18,19.2-4.83,65.58-36.42,130.65"/>

<archi xmlns="http://www.w3.org/2000/svg" xmlns:xlink="http://www.w3.org/1999/xlink" id="d" name="&#x8BED;&#x4E49;&#x540D;&#x79F0;">
    <content> 
        <type>architecture</type>
        <model>building</model>
        <element>window</element>
    </content>
    <layout>block|outline|2.5D</layout>
    <orientation>left|right|front</orientation>
    <shot>close|medium|long|background|common</shot>
    <boundingrect>
         <ele>0.7600021362304688,0.5299999713897705,144.00999450683594,164.1199951171875</ele>
    </boundingrect>
    <gap>
         <ele>54,100</ele>
    </gap>
 </archi>

<title>archi_guangzhou5</title>
</g>
</defs>
</svg>
