<?xml version="1.0" encoding="GBK"?>
<svg id="archi_svg_guangzhou3" width="8000" height="8000" viewBox="0 0 8000 8000" xmlns="http://www.w3.org/2000/svg" xmlns:xlink="http://www.w3.org/1999/xlink">
<style xmlns="http://www.w3.org/2000/svg" xmlns:xlink="http://www.w3.org/1999/xlink" type="text/css">use.ic-1 { fill: skyblue; }use.ic-2 { fill:none; stroke:#42C2FF;stroke-width:2}</style><svg id="guangzhou3" xml:space="preserve">
<use class="ic-2" xlink:href="#archi_guangzhou3"/></svg>
<defs>
<g id='archi_guangzhou3'>
<defs xmlns="http://www.w3.org/2000/svg"><style>.cls-1,.cls-2,.cls-4{stroke-miterlimit:10;}.cls-2{}.cls-3{opacity:0.4;}.cls-4{}</style></defs>
<path xmlns="http://www.w3.org/2000/svg" class="cls-1" d="M43.65,378H39V8.44s2.67,1.31,4.66,5.43Z"/>
<path xmlns="http://www.w3.org/2000/svg" class="cls-1" d="M35.54,378h-33V1.28s20.86,4.47,33,12.52Z"/>
<line xmlns="http://www.w3.org/2000/svg" class="cls-2" x1="33.46" y1="332.37" x2="33.46" y2="13.17"/>
<line xmlns="http://www.w3.org/2000/svg" class="cls-2" x1="31.22" y1="332.37" x2="31.22" y2="12.33"/>
<line xmlns="http://www.w3.org/2000/svg" class="cls-2" x1="28.98" y1="332.37" x2="28.98" y2="11.48"/>
<line xmlns="http://www.w3.org/2000/svg" class="cls-2" x1="26.74" y1="332.37" x2="26.74" y2="10.63"/>
<line xmlns="http://www.w3.org/2000/svg" class="cls-2" x1="24.5" y1="332.37" x2="24.5" y2="9.79"/>
<line xmlns="http://www.w3.org/2000/svg" class="cls-2" x1="22.27" y1="332.37" x2="22.27" y2="8.94"/>
<line xmlns="http://www.w3.org/2000/svg" class="cls-2" x1="20.03" y1="332.37" x2="20.03" y2="8.09"/>
<line xmlns="http://www.w3.org/2000/svg" class="cls-2" x1="17.79" y1="332.37" x2="17.79" y2="7.24"/>
<line xmlns="http://www.w3.org/2000/svg" class="cls-2" x1="15.55" y1="332.37" x2="15.55" y2="6.4"/>
<line xmlns="http://www.w3.org/2000/svg" class="cls-2" x1="13.31" y1="332.37" x2="13.31" y2="5.55"/>
<line xmlns="http://www.w3.org/2000/svg" class="cls-2" x1="11.07" y1="332.37" x2="11.07" y2="4.7"/>
<line xmlns="http://www.w3.org/2000/svg" class="cls-2" x1="8.84" y1="332.37" x2="8.84" y2="3.86"/>
<line xmlns="http://www.w3.org/2000/svg" class="cls-2" x1="6.6" y1="332.37" x2="6.6" y2="3.01"/>
<line xmlns="http://www.w3.org/2000/svg" class="cls-2" x1="4.36" y1="332.37" x2="4.36" y2="2.16"/>
<path xmlns="http://www.w3.org/2000/svg" class="cls-1" d="M6,378H39V8.44S20,11.33,6,18.81Z"/>
<line xmlns="http://www.w3.org/2000/svg" class="cls-2" x1="7.58" y1="18.81" x2="7.58" y2="378.01"/>
<line xmlns="http://www.w3.org/2000/svg" class="cls-2" x1="9.87" y1="18.11" x2="9.87" y2="378.01"/>
<line xmlns="http://www.w3.org/2000/svg" class="cls-2" x1="12.17" y1="17.42" x2="12.17" y2="378.01"/>
<line xmlns="http://www.w3.org/2000/svg" class="cls-2" x1="14.46" y1="16.72" x2="14.46" y2="378.01"/>
<line xmlns="http://www.w3.org/2000/svg" class="cls-2" x1="16.75" y1="16.02" x2="16.75" y2="378.01"/>
<line xmlns="http://www.w3.org/2000/svg" class="cls-2" x1="19.04" y1="15.32" x2="19.04" y2="378.01"/>
<line xmlns="http://www.w3.org/2000/svg" class="cls-2" x1="21.34" y1="14.62" x2="21.34" y2="378.01"/>
<line xmlns="http://www.w3.org/2000/svg" class="cls-2" x1="23.63" y1="13.92" x2="23.63" y2="378.01"/>
<line xmlns="http://www.w3.org/2000/svg" class="cls-2" x1="25.92" y1="13.22" x2="25.92" y2="378.01"/>
<line xmlns="http://www.w3.org/2000/svg" class="cls-2" x1="28.21" y1="12.53" x2="28.21" y2="378.01"/>
<line xmlns="http://www.w3.org/2000/svg" class="cls-2" x1="30.51" y1="11.83" x2="30.51" y2="378.01"/>
<line xmlns="http://www.w3.org/2000/svg" class="cls-2" x1="32.8" y1="11.13" x2="32.8" y2="378.01"/>
<line xmlns="http://www.w3.org/2000/svg" class="cls-2" x1="35.09" y1="10.43" x2="35.09" y2="378.01"/>
<line xmlns="http://www.w3.org/2000/svg" class="cls-2" x1="37.38" y1="9.73" x2="37.38" y2="378.01"/>
<path xmlns="http://www.w3.org/2000/svg" class="cls-1" d="M.66,378H23.28V122.89s-16.1-.56-22.62,14Z"/>
<g xmlns="http://www.w3.org/2000/svg" class="cls-3"><line class="cls-4" x1="2.11" y1="378.01" x2="2.11" y2="137.03"/><line class="cls-4" x1="4.34" y1="378.01" x2="4.34" y2="134.56"/><line class="cls-4" x1="6.58" y1="378.01" x2="6.58" y2="132.09"/><line class="cls-4" x1="8.82" y1="378.01" x2="8.82" y2="129.63"/><line class="cls-4" x1="11.06" y1="378.01" x2="11.06" y2="127.16"/><line class="cls-4" x1="13.3" y1="378.01" x2="13.3" y2="124.69"/><line class="cls-4" x1="15.53" y1="378.01" x2="15.53" y2="122.22"/><line class="cls-4" x1="17.77" y1="378.01" x2="17.77" y2="119.75"/><line class="cls-4" x1="20.01" y1="378.01" x2="20.01" y2="117.28"/><line class="cls-4" x1="22.25" y1="378.01" x2="22.25" y2="114.82"/><line class="cls-4" x1="24.49" y1="378.01" x2="24.49" y2="112.35"/><line class="cls-4" x1="26.72" y1="378.01" x2="26.72" y2="109.88"/><line class="cls-4" x1="28.96" y1="378.01" x2="28.96" y2="107.41"/><line class="cls-4" x1="31.2" y1="378.01" x2="31.2" y2="104.94"/></g>
<path xmlns="http://www.w3.org/2000/svg" class="cls-1" d="M43.43,378h-33V46.87c5.56.44,24.13,4.64,33,11.94Z"/>
<rect xmlns="http://www.w3.org/2000/svg" class="cls-1" x="14.61" y="91.75" width="22.49" height="2.83"/>
<rect xmlns="http://www.w3.org/2000/svg" class="cls-1" x="14.61" y="95.33" width="22.49" height="2.83"/>
<rect xmlns="http://www.w3.org/2000/svg" class="cls-1" x="14.61" y="290.36" width="22.49" height="2.83"/>
<rect xmlns="http://www.w3.org/2000/svg" class="cls-1" x="14.61" y="293.93" width="22.49" height="2.83"/>
<rect xmlns="http://www.w3.org/2000/svg" class="cls-1" x="14.61" y="161.42" width="22.49" height="2.83"/>
<rect xmlns="http://www.w3.org/2000/svg" class="cls-1" x="14.61" y="165" width="22.49" height="2.83"/>
<rect xmlns="http://www.w3.org/2000/svg" class="cls-1" x="14.61" y="168.72" width="22.49" height="2.83"/>
<rect xmlns="http://www.w3.org/2000/svg" class="cls-1" x="14.61" y="241.18" width="22.49" height="2.83"/>
<rect xmlns="http://www.w3.org/2000/svg" class="cls-1" x="14.61" y="244.75" width="22.49" height="2.83"/>
<rect xmlns="http://www.w3.org/2000/svg" class="cls-1" x="14.61" y="248.48" width="22.49" height="2.83"/>
<rect xmlns="http://www.w3.org/2000/svg" class="cls-1" x="14.61" y="126.61" width="22.49" height="2.83"/>
<rect xmlns="http://www.w3.org/2000/svg" class="cls-1" x="14.61" y="336.46" width="22.49" height="2.83"/>
<rect xmlns="http://www.w3.org/2000/svg" class="cls-1" x="14.61" y="205.35" width="22.49" height="2.83"/>
<path xmlns="http://www.w3.org/2000/svg" class="cls-1" d="M43.43,378h6V64.59a27.89,27.89,0,0,0-6-5.78Z"/>
<line xmlns="http://www.w3.org/2000/svg" class="cls-2" x1="41.47" y1="378.01" x2="41.47" y2="58.81"/>
<line xmlns="http://www.w3.org/2000/svg" class="cls-2" x1="39.23" y1="378.01" x2="39.23" y2="58.07"/>
<line xmlns="http://www.w3.org/2000/svg" class="cls-2" x1="37" y1="378.01" x2="37" y2="57.32"/>
<line xmlns="http://www.w3.org/2000/svg" class="cls-2" x1="34.76" y1="378.01" x2="34.76" y2="56.58"/>
<line xmlns="http://www.w3.org/2000/svg" class="cls-2" x1="32.52" y1="378.01" x2="32.52" y2="55.83"/>
<line xmlns="http://www.w3.org/2000/svg" class="cls-2" x1="30.28" y1="378.01" x2="30.28" y2="55.09"/>
<line xmlns="http://www.w3.org/2000/svg" class="cls-2" x1="28.04" y1="378.01" x2="28.04" y2="54.35"/>
<line xmlns="http://www.w3.org/2000/svg" class="cls-2" x1="25.81" y1="378.01" x2="25.81" y2="53.6"/>
<line xmlns="http://www.w3.org/2000/svg" class="cls-2" x1="23.57" y1="378.01" x2="23.57" y2="52.86"/>
<line xmlns="http://www.w3.org/2000/svg" class="cls-2" x1="21.33" y1="378.01" x2="21.33" y2="52.11"/>
<line xmlns="http://www.w3.org/2000/svg" class="cls-2" x1="19.09" y1="378.01" x2="19.09" y2="51.37"/>
<line xmlns="http://www.w3.org/2000/svg" class="cls-2" x1="16.85" y1="378.01" x2="16.85" y2="50.62"/>
<line xmlns="http://www.w3.org/2000/svg" class="cls-2" x1="14.62" y1="378.01" x2="14.62" y2="49.88"/>
<line xmlns="http://www.w3.org/2000/svg" class="cls-2" x1="12.38" y1="378.01" x2="12.38" y2="49.13"/>

<archi xmlns="http://www.w3.org/2000/svg" id="d" name="&#x8BED;&#x4E49;&#x540D;&#x79F0;">
    <content> 
        <type>architecture</type>
        <model>building</model>
        <element>window</element>
    </content>
    <layout>block|outline|2.5D</layout>
    <orientation>left|right|front</orientation>
    <shot>close|medium|long|background|common</shot>
    <boundingrect>
         <ele>0.6599998474121094,1.2799999713897705,48.77000045776367,376.7300109863281</ele>
    </boundingrect>
 </archi>

<title>archi_guangzhou3</title>
</g>
</defs>
</svg>
