<?xml version="1.0" encoding="GBK"?>
<svg id="archi_svg_gz-04" width="8000" height="8000" viewBox="0 0 8000 8000" xmlns="http://www.w3.org/2000/svg" xmlns:xlink="http://www.w3.org/1999/xlink">
<style xmlns="http://www.w3.org/2000/svg" xmlns:xlink="http://www.w3.org/1999/xlink" type="text/css">use.ic-1 { fill: skyblue; }use.ic-2 { fill:none; stroke:#42C2FF;stroke-width:2}</style><svg id="gz-04" xml:space="preserve">
<use class="ic-2" xlink:href="#archi_gz-04"/></svg>
<defs>
<g id='archi_gz-04'>
<defs xmlns="http://www.w3.org/2000/svg"><style>.cls-1,.cls-2{stroke-miterlimit:10;}.cls-1{}.cls-2{}</style></defs>
<rect xmlns="http://www.w3.org/2000/svg" class="cls-1" x="10.28" y="79.75" width="27.26" height="205.64"/>
<rect xmlns="http://www.w3.org/2000/svg" class="cls-1" x="10.28" y="283.8" width="27.26" height="1.59"/>
<rect xmlns="http://www.w3.org/2000/svg" class="cls-1" x="10.28" y="278.91" width="27.26" height="1.59"/>
<rect xmlns="http://www.w3.org/2000/svg" class="cls-1" x="10.28" y="274.01" width="27.26" height="1.59"/>
<rect xmlns="http://www.w3.org/2000/svg" class="cls-1" x="10.28" y="269.12" width="27.26" height="1.59"/>
<rect xmlns="http://www.w3.org/2000/svg" class="cls-1" x="10.28" y="264.22" width="27.26" height="1.59"/>
<rect xmlns="http://www.w3.org/2000/svg" class="cls-1" x="10.28" y="259.33" width="27.26" height="1.59"/>
<rect xmlns="http://www.w3.org/2000/svg" class="cls-1" x="10.28" y="254.43" width="27.26" height="1.59"/>
<rect xmlns="http://www.w3.org/2000/svg" class="cls-1" x="10.28" y="249.54" width="27.26" height="1.59"/>
<rect xmlns="http://www.w3.org/2000/svg" class="cls-1" x="10.28" y="244.64" width="27.26" height="1.59"/>
<rect xmlns="http://www.w3.org/2000/svg" class="cls-1" x="10.28" y="239.75" width="27.26" height="1.59"/>
<rect xmlns="http://www.w3.org/2000/svg" class="cls-1" x="10.28" y="234.85" width="27.26" height="1.59"/>
<rect xmlns="http://www.w3.org/2000/svg" class="cls-1" x="10.28" y="229.96" width="27.26" height="1.59"/>
<rect xmlns="http://www.w3.org/2000/svg" class="cls-1" x="10.28" y="225.06" width="27.26" height="1.59"/>
<rect xmlns="http://www.w3.org/2000/svg" class="cls-1" x="10.28" y="220.17" width="27.26" height="1.59"/>
<rect xmlns="http://www.w3.org/2000/svg" class="cls-1" x="10.28" y="215.27" width="27.26" height="1.59"/>
<rect xmlns="http://www.w3.org/2000/svg" class="cls-1" x="10.28" y="210.37" width="27.26" height="1.59"/>
<rect xmlns="http://www.w3.org/2000/svg" class="cls-1" x="10.28" y="205.48" width="27.26" height="1.59"/>
<rect xmlns="http://www.w3.org/2000/svg" class="cls-1" x="10.28" y="200.58" width="27.26" height="1.59"/>
<rect xmlns="http://www.w3.org/2000/svg" class="cls-1" x="10.28" y="195.69" width="27.26" height="1.59"/>
<rect xmlns="http://www.w3.org/2000/svg" class="cls-1" x="10.28" y="190.79" width="27.26" height="1.59"/>
<rect xmlns="http://www.w3.org/2000/svg" class="cls-1" x="10.28" y="185.9" width="27.26" height="1.59"/>
<rect xmlns="http://www.w3.org/2000/svg" class="cls-1" x="10.28" y="181" width="27.26" height="1.59"/>
<rect xmlns="http://www.w3.org/2000/svg" class="cls-1" x="10.28" y="176.11" width="27.26" height="1.59"/>
<rect xmlns="http://www.w3.org/2000/svg" class="cls-1" x="10.28" y="171.21" width="27.26" height="1.59"/>
<rect xmlns="http://www.w3.org/2000/svg" class="cls-1" x="10.28" y="166.32" width="27.26" height="1.59"/>
<rect xmlns="http://www.w3.org/2000/svg" class="cls-1" x="10.28" y="161.42" width="27.26" height="1.59"/>
<rect xmlns="http://www.w3.org/2000/svg" class="cls-1" x="10.28" y="156.53" width="27.26" height="1.59"/>
<rect xmlns="http://www.w3.org/2000/svg" class="cls-1" x="10.28" y="151.63" width="27.26" height="1.59"/>
<rect xmlns="http://www.w3.org/2000/svg" class="cls-1" x="10.28" y="146.73" width="27.26" height="1.59"/>
<rect xmlns="http://www.w3.org/2000/svg" class="cls-1" x="10.28" y="141.84" width="27.26" height="1.59"/>
<rect xmlns="http://www.w3.org/2000/svg" class="cls-1" x="10.28" y="136.94" width="27.26" height="1.59"/>
<rect xmlns="http://www.w3.org/2000/svg" class="cls-1" x="10.28" y="132.05" width="27.26" height="1.59"/>
<rect xmlns="http://www.w3.org/2000/svg" class="cls-1" x="10.28" y="127.15" width="27.26" height="1.59"/>
<rect xmlns="http://www.w3.org/2000/svg" class="cls-1" x="10.28" y="122.26" width="27.26" height="1.59"/>
<rect xmlns="http://www.w3.org/2000/svg" class="cls-1" x="10.28" y="117.36" width="27.26" height="1.59"/>
<rect xmlns="http://www.w3.org/2000/svg" class="cls-1" x="10.28" y="112.47" width="27.26" height="1.59"/>
<rect xmlns="http://www.w3.org/2000/svg" class="cls-1" x="10.28" y="107.57" width="27.26" height="1.59"/>
<rect xmlns="http://www.w3.org/2000/svg" class="cls-1" x="10.28" y="102.68" width="27.26" height="1.59"/>
<rect xmlns="http://www.w3.org/2000/svg" class="cls-1" x="10.28" y="97.78" width="27.26" height="1.59"/>
<rect xmlns="http://www.w3.org/2000/svg" class="cls-1" x="10.28" y="92.89" width="27.26" height="1.59"/>
<rect xmlns="http://www.w3.org/2000/svg" class="cls-1" x="10.28" y="87.99" width="27.26" height="1.59"/>
<rect xmlns="http://www.w3.org/2000/svg" class="cls-1" x="10.28" y="83.09" width="27.26" height="1.59"/>
<rect xmlns="http://www.w3.org/2000/svg" class="cls-1" x="14.27" y="143.45" width="19.3" height="3.25"/>
<rect xmlns="http://www.w3.org/2000/svg" class="cls-1" x="14.27" y="148.33" width="19.3" height="3.25"/>
<rect xmlns="http://www.w3.org/2000/svg" class="cls-1" x="14.27" y="207.08" width="19.3" height="3.25"/>
<rect xmlns="http://www.w3.org/2000/svg" class="cls-1" x="14.27" y="211.97" width="19.3" height="3.25"/>
<rect xmlns="http://www.w3.org/2000/svg" class="cls-1" x="12.52" y="72.68" width="22.78" height="1.59"/>
<rect xmlns="http://www.w3.org/2000/svg" class="cls-1" x="14.22" y="50.42" width="19.39" height="10.2"/>
<rect xmlns="http://www.w3.org/2000/svg" class="cls-1" x="16.62" y="64.28" width="14.57" height="15.46"/>
<rect xmlns="http://www.w3.org/2000/svg" class="cls-1" x="10.28" y="79.75" width="27.26" height="3.58"/>
<rect xmlns="http://www.w3.org/2000/svg" class="cls-1" x="5.17" y="47.78" width="4.49" height="12.78"/>
<rect xmlns="http://www.w3.org/2000/svg" class="cls-2" x="6.87" y="22.08" width="1.1" height="25.7"/>
<rect xmlns="http://www.w3.org/2000/svg" class="cls-2" x="7.17" y="0.66" width="0.49" height="21.46"/>
<rect xmlns="http://www.w3.org/2000/svg" class="cls-1" x="0.54" y="60.56" width="13.75" height="224.83"/>
<rect xmlns="http://www.w3.org/2000/svg" class="cls-1" x="14.29" y="60.56" width="3.84" height="19.17"/>
<rect xmlns="http://www.w3.org/2000/svg" class="cls-1" x="29.71" y="60.56" width="3.84" height="19.17"/>
<rect xmlns="http://www.w3.org/2000/svg" class="cls-1" x="38.2" y="47.78" width="4.49" height="12.78"/>
<rect xmlns="http://www.w3.org/2000/svg" class="cls-2" x="39.9" y="22.08" width="1.1" height="25.7"/>
<rect xmlns="http://www.w3.org/2000/svg" class="cls-2" x="40.2" y="0.66" width="0.49" height="21.46"/>
<rect xmlns="http://www.w3.org/2000/svg" class="cls-1" x="33.57" y="60.56" width="13.75" height="224.83"/>
<title>archi_gz-04</title>
</g>
</defs>
<archi id="d" name="语义名称">
    <content> 
        <type>architecture</type>
        <model>building</model>
        <element>window</element>
    </content>
    <layout>block|outline|2.5D</layout>
    <orientation>left|right|front</orientation>
    <shot>close|medium|long|background|common</shot>
       
    <boundingrect>
         <ele>0.54,0.65999,46.7800,284.73</ele>
    </boundingrect>
 </archi>
</svg>
