<?xml version="1.0" encoding="GBK"?>
<svg id="archi_svg_pedestrian1" width="8000" height="8000" viewBox="0 0 8000 8000" xmlns="http://www.w3.org/2000/svg" xmlns:xlink="http://www.w3.org/1999/xlink">
<style xmlns="http://www.w3.org/2000/svg" xmlns:xlink="http://www.w3.org/1999/xlink" type="text/css">use.ic-1 { fill: skyblue; }use.ic-2 { fill:none; stroke:#42C2FF;stroke-width:2}</style><svg id="pedestrian1" xml:space="preserve">
<use class="ic-2" xlink:href="#archi_pedestrian1"/></svg>
<defs>
<g id='archi_pedestrian1'>
<defs xmlns="http://www.w3.org/2000/svg"><style>.cls-1{}.cls-2{}.cls-3{}.cls-4{}</style></defs>
<path xmlns="http://www.w3.org/2000/svg" class="cls-1" d="M331.73,758.41l3.63,4a35.46,35.46,0,0,1,4.5,6.24l12.66-31.2Z" transform="translate(-2.64 -1.58)"/>
<path xmlns="http://www.w3.org/2000/svg" class="cls-1" d="M402.45,910.66q10.65-.64,21.74-1.21-12.93-.59-25.39-1.3C400.12,909,401.33,909.81,402.45,910.66Z" transform="translate(-2.64 -1.58)"/>
<path xmlns="http://www.w3.org/2000/svg" class="cls-2" d="M657.2,868.37q-2.19-3.64-4.3-7.47a28.05,28.05,0,0,0,4.24,7.47Z" transform="translate(-2.64 -1.58)"/>
<path xmlns="http://www.w3.org/2000/svg" d="M326.14,888.3a20.75,20.75,0,0,1-8.82-2.13,59.54,59.54,0,0,1-10.23-6.34h0a34.87,34.87,0,0,1-11.65-15,105.64,105.64,0,0,0-9.54,14.94c-2.95,5.77-4.79,11.39-4.78,16.19a14.53,14.53,0,0,0,1.5,6.76,26.9,26.9,0,0,0,6.34,7.43,88.47,88.47,0,0,0,11.42,8.3,204.61,204.61,0,0,0,32.15,15.94,65.13,65.13,0,0,0,24,4.3,86.69,86.69,0,0,0,24.26-3.56,63.82,63.82,0,0,0,18.3-8.39,20.15,20.15,0,0,0,6.11-6.22,3.1,3.1,0,0,0,.18-1,4.44,4.44,0,0,0-.7-2.23,12.32,12.32,0,0,0-2.25-2.68,44.05,44.05,0,0,0-8.43-5.78c-6.95-3.85-15.95-7.53-23.83-10.55-5.25-2-10-3.75-13.38-5.07a24,24,0,0,1-7.27-4.73,32,32,0,0,1-5.18-6.14c-.22-.34-.42-.68-.61-1a67.82,67.82,0,0,1-8.81,4.92A21.71,21.71,0,0,1,326.14,888.3Z" transform="translate(-2.64 -1.58)"/>
<path xmlns="http://www.w3.org/2000/svg" d="M331.42,937.17a67.93,67.93,0,0,0,25.15,4.51A88.83,88.83,0,0,0,389,935.46a58.32,58.32,0,0,0,11.89-6.29,22.71,22.71,0,0,0,7.08-7.35l.08-.17a6.24,6.24,0,0,0,.39-2.14,8.29,8.29,0,0,0-1.88-4.9,22.45,22.45,0,0,0-4.09-4c-1.12-.85-2.33-1.68-3.65-2.51-.5-.32-1-.63-1.55-1a161,161,0,0,0-20.88-9.74c-7.25-2.89-14.1-5.34-18.44-7.05a22.89,22.89,0,0,1-8.14-6,27.27,27.27,0,0,1-2.88-3.73,14.39,14.39,0,0,1-1.58-3.07c.09.38.2.75.32,1.12a1.48,1.48,0,0,1-.6,1.74l-1.28.82c.19.33.39.67.61,1a32,32,0,0,0,5.18,6.14,24,24,0,0,0,7.27,4.73c3.37,1.32,8.13,3.05,13.38,5.07A196.4,196.4,0,0,1,394,908.68a44.05,44.05,0,0,1,8.43,5.78,12.32,12.32,0,0,1,2.25,2.68,4.44,4.44,0,0,1,.7,2.23,3.1,3.1,0,0,1-.18,1,20.15,20.15,0,0,1-6.11,6.22,63.82,63.82,0,0,1-18.3,8.39,86.69,86.69,0,0,1-24.26,3.56,65.13,65.13,0,0,1-24-4.3,204.61,204.61,0,0,1-32.15-15.94A88.47,88.47,0,0,1,289,910a26.9,26.9,0,0,1-6.34-7.43,14.53,14.53,0,0,1-1.5-6.76c0-4.8,1.83-10.42,4.78-16.19a106.54,106.54,0,0,1,9.54-14.94c-.35-.9-.67-1.81-.93-2.73a1.45,1.45,0,0,1,.25-1.33c-1.9,2.46-3.77,5-5.53,7.61l-2,3c-1.47,2.33-2.83,4.68-4,7-3.07,6-5.11,12-5.11,17.55v.15a17.48,17.48,0,0,0,1.83,8,29.79,29.79,0,0,0,7,8.32,90.77,90.77,0,0,0,11.46,8.52q3.58,2.26,7.63,4.51A223.05,223.05,0,0,0,331.42,937.17Z" transform="translate(-2.64 -1.58)"/>
<path xmlns="http://www.w3.org/2000/svg" class="cls-3" d="M319.48,855.38a68.05,68.05,0,0,1-9.51-9c-3.42,4.27-7.76,9.72-12.34,15.62a31.57,31.57,0,0,0,11.25,15.46,58.16,58.16,0,0,0,9.69,6,17.75,17.75,0,0,0,7.57,1.85,18.81,18.81,0,0,0,7.62-1.81,64.88,64.88,0,0,0,8.72-4.9,19.15,19.15,0,0,1-.63-5,29.83,29.83,0,0,1,1.35-8.49,32.48,32.48,0,0,1-12.93-3.06A52.31,52.31,0,0,1,319.48,855.38Z" transform="translate(-2.64 -1.58)"/>
<path xmlns="http://www.w3.org/2000/svg" class="cls-4" d="M345,871.37a30.21,30.21,0,0,1,.48-3,32.37,32.37,0,0,1,1-3.75,4.39,4.39,0,0,1-1.54.44h-1.76a29.83,29.83,0,0,0-1.35,8.49,19.15,19.15,0,0,0,.63,5,64.88,64.88,0,0,1-8.72,4.9,18.81,18.81,0,0,1-7.62,1.81,17.75,17.75,0,0,1-7.57-1.85,58.16,58.16,0,0,1-9.69-6A31.58,31.58,0,0,1,297.62,862c4.58-5.9,8.92-11.35,12.34-15.62-.32-.37-.5-.59-.5-.6a1.51,1.51,0,0,1-.23-1.5s.5-1.21,1.44-3.56c-3.76,4.65-9.63,12-15.92,20.08h0a1.45,1.45,0,0,0-.25,1.33c.26.92.58,1.83.93,2.73a34.87,34.87,0,0,0,11.65,15h0a59.54,59.54,0,0,0,10.23,6.34,20.75,20.75,0,0,0,8.82,2.13,21.71,21.71,0,0,0,8.82-2.06,67.82,67.82,0,0,0,8.81-4.92l1.28-.82a1.49,1.49,0,0,0,.58-1.72c-.12-.37-.23-.74-.32-1.12a16.34,16.34,0,0,1-.48-4.06A20.69,20.69,0,0,1,345,871.37Z" transform="translate(-2.64 -1.58)"/>
<path xmlns="http://www.w3.org/2000/svg" class="cls-3" d="M692.89,924.32a26,26,0,0,0,3,.93,30.79,30.79,0,0,0,7.41.89h1.36a34.33,34.33,0,0,0,6.68-1c.21-.06.43-.1.64-.15a33.24,33.24,0,0,0,19.46-14.54c4.18-6.53,6.55-14.54,7.41-22.84-4.21-1.51-8.08-3.17-11.15-4.59-.79,1.19-1.76,2.58-2.92,4.09-3.34,4.33-8.16,9.56-14.23,13.11a27.11,27.11,0,0,1-13.73,4,25,25,0,0,1-8-1.35A211.92,211.92,0,0,0,692.89,924.32Z" transform="translate(-2.64 -1.58)"/>
<path xmlns="http://www.w3.org/2000/svg" class="cls-4" d="M690.16,925.77a1.49,1.49,0,0,1,1.1-1.81,1.54,1.54,0,0,1,.9.06,28.11,28.11,0,0,0,3.71,1.19,26,26,0,0,1-3-.93c-2-7.9-3.25-15.61-4.08-21.48a27,27,0,0,1-2.94-1.19l-.26-.13A220.14,220.14,0,0,0,690.16,925.77Z" transform="translate(-2.64 -1.58)"/>
<path xmlns="http://www.w3.org/2000/svg" class="cls-4" d="M727.7,883c3.07,1.42,6.94,3.08,11.15,4.59,0-.38.1-.76.13-1.14a1.5,1.5,0,0,1,.68-1.13,1.52,1.52,0,0,1,1.31-.16c-4.38-1.51-8.44-3.24-11.66-4.72C728.92,881.09,728.38,882,727.7,883Z" transform="translate(-2.64 -1.58)"/>
<path xmlns="http://www.w3.org/2000/svg" class="cls-4" d="M711.34,925.13a34.33,34.33,0,0,1-6.68,1A34.33,34.33,0,0,0,711.34,925.13Z" transform="translate(-2.64 -1.58)"/>
<path xmlns="http://www.w3.org/2000/svg" d="M752.42,891.34a79.4,79.4,0,0,1-10.66-2.75c-1,8.42-3.41,16.62-7.79,23.47a36.34,36.34,0,0,1-21.19,15.81h0a36.08,36.08,0,0,1-9.47,1.27,33.3,33.3,0,0,1-9.52-1.36,108.23,108.23,0,0,0,5.42,15.73c2.51,5.64,5.52,10.49,9,13.68a15.49,15.49,0,0,0,7.51,4,16.45,16.45,0,0,0,3.21.28c4.1,0,9.63-1.11,15.91-3.12a164.13,164.13,0,0,0,20.58-8.4,222.31,222.31,0,0,0,41.68-26c7.89-6.39,14.21-12.88,17.67-18.64,2-3.28,3-6.3,3-8.85a8.46,8.46,0,0,0-.66-3.33,4.92,4.92,0,0,0-1.81-1.55,14,14,0,0,0-3.55-1.25,51.5,51.5,0,0,0-10.94-.91c-6.44,0-14,.58-21.29,1.18s-14.43,1.17-20.12,1.17A44,44,0,0,1,752.42,891.34Z" transform="translate(-2.64 -1.58)"/>
<path xmlns="http://www.w3.org/2000/svg" d="M739.62,885.33a1.5,1.5,0,0,0-.68,1.13,11,11,0,0,1-.13,1.14c-.86,8.3-3.23,16.31-7.41,22.84A33.24,33.24,0,0,1,711.94,925a2.48,2.48,0,0,0-.64.15,34.33,34.33,0,0,1-6.68,1h-1.36a30.79,30.79,0,0,1-7.41-.89,28.11,28.11,0,0,1-3.71-1.19,1.5,1.5,0,0,0-2,1.75c.08.33.17.65.26,1,2.14,8.31,5,16.73,8.84,23.54a36.88,36.88,0,0,0,6.89,9.06,18.55,18.55,0,0,0,9,4.8,20.08,20.08,0,0,0,3.79.33,49.09,49.09,0,0,0,12.33-1.94c14.33-3.84,33.26-12.9,50.06-23.64,2.23-1.43,4.44-2.89,6.59-4.37,9.12-6.31,17.25-13,23.16-19.48a50.35,50.35,0,0,0,7-9.54,19.47,19.47,0,0,0,2.67-9.07,11.59,11.59,0,0,0-1-4.64l-.09-.17a7.75,7.75,0,0,0-3-2.71,20.71,20.71,0,0,0-6.88-2,66.07,66.07,0,0,0-9-.52c-6.62,0-14.21.59-21.53,1.19s-14.35,1.13-19.83,1.13a38.75,38.75,0,0,1-6.46-.43,77.5,77.5,0,0,1-12-3.21A1.51,1.51,0,0,0,739.62,885.33Zm61.14,4.11a51.5,51.5,0,0,1,10.94.91,14,14,0,0,1,3.55,1.25,4.92,4.92,0,0,1,1.81,1.55,8.46,8.46,0,0,1,.66,3.33c0,2.55-1,5.57-3,8.85-3.46,5.76-9.78,12.25-17.67,18.64a222.31,222.31,0,0,1-41.68,26,164.13,164.13,0,0,1-20.58,8.4c-6.28,2-11.81,3.13-15.91,3.12a16.45,16.45,0,0,1-3.21-.28,15.49,15.49,0,0,1-7.51-4c-3.47-3.19-6.48-8-9-13.68a107.25,107.25,0,0,1-5.38-15.76,33.3,33.3,0,0,0,9.52,1.36,36.08,36.08,0,0,0,9.47-1.27h0A36.34,36.34,0,0,0,734,912.05c4.38-6.85,6.83-15,7.79-23.47a79.4,79.4,0,0,0,10.66,2.75,43,43,0,0,0,7,.47c5.69,0,12.79-.6,20.11-1.19s14.84-1.17,21.28-1.17Z" transform="translate(-2.64 -1.58)"/>
<path xmlns="http://www.w3.org/2000/svg" class="cls-3" d="M585.62,113.66H586l1.21.11c1,.09,2.57.17,4.39.17a49,49,0,0,0,13.93-1.9c5-1.53,9.81-4.17,13.18-8.63a24.07,24.07,0,0,0,4.52-11.79A244.41,244.41,0,0,0,625.45,62c0-3.65-.15-7.21-.46-10.64a46,46,0,0,1-7.38,9.56A23.41,23.41,0,0,1,611,65.69a9.12,9.12,0,0,1-3.66.89,5.16,5.16,0,0,1-3-.9,5.63,5.63,0,0,0-3.21-1.22,5.18,5.18,0,0,0-3.25,1.37,23.35,23.35,0,0,0-4.23,4.86c-3.13,4.51-6.87,11.51-11.72,21-2.94,5.78-6.53,9.54-10.34,11.83a21.72,21.72,0,0,1-11.38,3.08,28.68,28.68,0,0,1-8.28-1.28,126,126,0,0,1-2,13.27,178.93,178.93,0,0,1,20.24,7.9,55.43,55.43,0,0,1,10.18,6l.4.34,3.11-18.08A1.5,1.5,0,0,1,585.62,113.66Z" transform="translate(-2.64 -1.58)"/>
<path xmlns="http://www.w3.org/2000/svg" class="cls-4" d="M625,51.42c.31,3.43.46,7,.46,10.64a244.41,244.41,0,0,1-2.19,29.61,24.07,24.07,0,0,1-4.52,11.79c-3.37,4.46-8.19,7.1-13.18,8.63a49,49,0,0,1-13.93,1.9c-1.82,0-3.34-.08-4.39-.17l-1.21-.11h-.39a1.5,1.5,0,0,0-1.69,1.23L580.82,133a18.19,18.19,0,0,1,2.6,2.59l3.2-18.84c1.13.1,2.85.21,5,.21,5.33,0,13.16-.68,20.15-4.14a26.16,26.16,0,0,0,9.35-7.58A27.13,27.13,0,0,0,626.22,92a246.81,246.81,0,0,0,2.22-30,112.39,112.39,0,0,0-1-15.45c-.29.66-.6,1.31-.91,2C626,49.54,625.52,50.49,625,51.42Z" transform="translate(-2.64 -1.58)"/>
<path xmlns="http://www.w3.org/2000/svg" class="cls-4" d="M550,118.69a126,126,0,0,0,2-13.27c-.71-.21-1.39-.44-2-.67-.31-.12-.62-.23-.9-.35a131,131,0,0,1-2,13.37Z" transform="translate(-2.64 -1.58)"/>
<path xmlns="http://www.w3.org/2000/svg" class="cls-1" d="M631.2,337.24a37.73,37.73,0,0,0,15.21-3.72,90.76,90.76,0,0,0,16.62-10c11.31-8.37,22.79-19.65,33.16-31.12A507.23,507.23,0,0,0,734.39,244c-2.95,1.87-4.86,3.13-5.22,3.36a1.72,1.72,0,0,1-1,.29,2.68,2.68,0,0,1-.74-.13c-.2-.07-.39-.15-.59-.24a11,11,0,0,1-1.26-.71,33.59,33.59,0,0,1-3.19-2.35,37.53,37.53,0,0,1-6.84-7.18,12.16,12.16,0,0,1-2.37-5.66,1.43,1.43,0,0,1,.23-.92c-2.27,2-7.06,6.27-13.36,11.2-8.9,7-20.76,15.32-32.75,20.94-8,3.74-16.07,6.28-23.46,6.29a24,24,0,0,1-11.52-2.68,32.48,32.48,0,0,1-9.68-8.47,71.29,71.29,0,0,1-8-12.73,132.51,132.51,0,0,1-5.73-13.18c.35,4.28.64,8.73.86,13.39,2,43.84,3.3,72.74,4,87.91a49.83,49.83,0,0,0,14.92,4A23.3,23.3,0,0,0,631.2,337.24Z" transform="translate(-2.64 -1.58)"/>
<path xmlns="http://www.w3.org/2000/svg" class="cls-4" d="M597.28,173.05c-.08-.49-.14-.86-.17-1.11l-.06-.38a1.49,1.49,0,0,0-.85-1.15,1.32,1.32,0,0,0-.47-.13c.63,1.53,1.25,3.12,1.86,4.75C597.46,174.25,597.36,173.58,597.28,173.05Z" transform="translate(-2.64 -1.58)"/>
<path xmlns="http://www.w3.org/2000/svg" class="cls-4" d="M734.39,244a507.23,507.23,0,0,1-38.2,48.37c-10.37,11.47-21.85,22.75-33.16,31.12a90.76,90.76,0,0,1-16.62,10,37.73,37.73,0,0,1-15.21,3.72,23.13,23.13,0,0,1-2.5-.13,49.83,49.83,0,0,1-14.92-4c.05,1.18.1,2.3.14,3.32a53.06,53.06,0,0,0,14.46,3.65,26.49,26.49,0,0,0,2.82.14c5.44,0,11.15-1.56,17-4.22,10.2-4.67,20.83-12.73,31.11-22.19,15.41-14.18,30-31.53,40.77-45.34s17.69-24.09,17.7-24.11a1.49,1.49,0,0,0-.39-2.07l-.13-.09Z" transform="translate(-2.64 -1.58)"/>
<path xmlns="http://www.w3.org/2000/svg" class="cls-4" d="M609,231.83A132.51,132.51,0,0,0,614.69,245a71.29,71.29,0,0,0,8,12.73,32.48,32.48,0,0,0,9.68,8.47,24.13,24.13,0,0,0,11.52,2.68c7.39,0,15.46-2.55,23.46-6.29,12-5.62,23.85-14,32.75-20.94,6.3-4.93,11.09-9.15,13.36-11.2v-.06c0-.06.79-1.14,2.15-3l-.89-.61a1.51,1.51,0,0,0-1.88.14l-.11.11a248.13,248.13,0,0,1-25.48,20.36,148.86,148.86,0,0,1-21.93,12.82c-7.52,3.45-15,5.67-21.46,5.67a21,21,0,0,1-10.1-2.33,29.56,29.56,0,0,1-8.77-7.7c-4.81-6-9-14.24-12.57-23.29-1.79-4.56-3.41-9.31-4.87-14.06Q608.38,224.86,609,231.83Z" transform="translate(-2.64 -1.58)"/>
<path xmlns="http://www.w3.org/2000/svg" class="cls-1" d="M594.78,460.48a1.42,1.42,0,0,1,.64.14,1.49,1.49,0,0,1,.69,2h0a381.56,381.56,0,0,0-15.39,37c-.2.56-.3.86-.3.86l-.07.16c-12.39,26-27,53.68-42.85,81.82a297.32,297.32,0,0,0,18.3,28.89c11.39,15.76,24.08,29.42,37.61,38.76a1.47,1.47,0,0,1,.65,1.23c0,20.86,5.2,52,14.12,85.67s21.54,69.87,36.34,101c9.84,20.71,20.65,39.15,31.92,53.07a38.24,38.24,0,0,0,10.7,7.83,22.53,22.53,0,0,0,9.68,2.25,24,24,0,0,0,11.87-3.37,42.3,42.3,0,0,0,9.55-7.67A65,65,0,0,0,727,878.41c-3.53-8.66-40.06-100.29-61.3-237.46-19.47-125.66-51-244.39-58.64-272.46a8.87,8.87,0,0,1-.84,1.69,6.07,6.07,0,0,1-2.22,2.11,59.32,59.32,0,0,1-6.84,3l-1.42.52Z" transform="translate(-2.64 -1.58)"/>
<path xmlns="http://www.w3.org/2000/svg" class="cls-4" d="M607.06,368.52c7.67,28.07,39.17,146.8,58.64,272.46,21.24,137.17,57.77,228.8,61.3,237.46a65,65,0,0,1-8.76,11.71,42.3,42.3,0,0,1-9.55,7.67,24,24,0,0,1-11.87,3.37,22.53,22.53,0,0,1-9.68-2.25,38.24,38.24,0,0,1-10.7-7.83c-11.27-13.92-22.08-32.36-31.92-53.07-14.8-31.11-27.42-67.31-36.34-101s-14.12-64.81-14.12-85.67a1.47,1.47,0,0,0-.65-1.23c-13.53-9.34-26.22-23-37.61-38.76a297.32,297.32,0,0,1-18.3-28.89l-1.73,3.06c12,21.07,26.15,41,42,55.74q3.9,3.65,7.93,6.84,2.64,2.11,5.37,4c.08,14.13,2.41,32.45,6.54,53a630.73,630.73,0,0,0,30.1,101.49,448.25,448.25,0,0,0,25.19,54.29q2.13,3.83,4.3,7.47l1.81,3a204.51,204.51,0,0,0,15.15,21.7l.1.11a41.59,41.59,0,0,0,11.36,8.33l.26.13a27,27,0,0,0,2.94,1.19,25,25,0,0,0,8,1.35,27.11,27.11,0,0,0,13.73-4c6.07-3.55,10.89-8.78,14.23-13.11,1.16-1.51,2.13-2.9,2.92-4.09s1.22-1.92,1.61-2.56.67-1.18.68-1.2a1.53,1.53,0,0,0,.06-1.29.6.6,0,0,0-.11-.26c-.29-.71-1.17-2.86-2.5-6.33-.35-.91-.74-1.91-1.15-3-4.08-10.81-11.13-30.47-19.29-57.54a1268.68,1268.68,0,0,1-38.38-170.29c-11.8-76.21-28-149.84-40.68-202.32q-2.06-8.51-4-16.24c-8.73-35.3-15-57.9-15.71-60.28a30,30,0,0,1-.4,3.89A16.62,16.62,0,0,1,607.06,368.52Z" transform="translate(-2.64 -1.58)"/>
<path xmlns="http://www.w3.org/2000/svg" class="cls-3" d="M507.3,560.38c-2-4.12-3.27-9.47-3.93-16.22-.56-5.71-.73-15-.73-24.53,0-8.36.14-16.86.26-23.14-.52.06-1,.12-1.56.16a1.51,1.51,0,0,1-1.51-1c-3.76-10-8-21.74-12.15-34.52h0c-5.81-17.61-11.66-37.28-16.54-57.56l-.1.13c-13.1,18.53-27.38,55.2-31.25,127.3a1.35,1.35,0,0,1-.11.49C415.07,591.69,392.31,647.55,373,695Z" transform="translate(-2.64 -1.58)"/>
<path xmlns="http://www.w3.org/2000/svg" class="cls-1" d="M312.67,843.77c-.12.29-.22.54-.3.76.23.26.51.59.88,1,1,1,2.35,2.5,4.11,4.12a54.82,54.82,0,0,0,14.14,9.64,29.4,29.4,0,0,0,12.06,2.81h1.29L345,862a4.58,4.58,0,0,0,.69-.37,17.46,17.46,0,0,0,2.21-1.72,86.3,86.3,0,0,0,6.79-7c5.44-6.11,12.62-15,21.08-26.15,16.91-22.28,39-53.53,62.89-89.47,47.79-71.85,102.92-162.49,138.92-237.85a384.54,384.54,0,0,1,15.81-38.16,1.47,1.47,0,0,1,1.36-.83l1-84.64c-2.53.91-5.41,1.87-8.62,2.85-7.66,2.34-17.11,4.79-27.59,7-9.86,2.1-20.64,4-31.68,5.43.84,20.27,2,40.26,3.24,58.2.63,9.22,1.28,17.9,1.89,25.79a1.56,1.56,0,0,1-.24.94,62.87,62.87,0,0,1-3.87,5.29v.16a24.14,24.14,0,0,0,1.3,7.81,63.4,63.4,0,0,0,3.44,8c2.83,5.76,6.53,12.78,9.72,23.24a63.08,63.08,0,0,1,3.15,18.12,25.39,25.39,0,0,1-.91,7.1,9.06,9.06,0,0,1-2.46,4.28,3.81,3.81,0,0,1-5.4-.15l-.07-.07-.06.23a11.64,11.64,0,0,1-2.16,4.14l-.1.11-.29.27a8.89,8.89,0,0,1,1.13,1,3.14,3.14,0,0,1,.65,1.1,3.64,3.64,0,0,1,.19,1.18,6.74,6.74,0,0,1-.85,3,15.13,15.13,0,0,1-2.07,2.94,20.37,20.37,0,0,1-6.78,5,14.61,14.61,0,0,1-5.82,1.3,12,12,0,0,1-2.16-.19l-8.7,8.43L358,732c-5.94,14.62-11.38,28.11-16.38,40.29a35.41,35.41,0,0,1-8.85,40.17L321.06,823Z" transform="translate(-2.64 -1.58)"/>
<path xmlns="http://www.w3.org/2000/svg" class="cls-3" d="M527.62,531.6a21.53,21.53,0,0,0-4.55,9.56h0a7.07,7.07,0,0,0-.12,1.3v.39l.27-.31c.14-.33.44-1,.87-1.81a20.21,20.21,0,0,1,2.58-3.89,8.39,8.39,0,0,1,2.65-2.12,4.53,4.53,0,0,1,1.31-.4c-.56-1.76-1-3.34-1.37-4.55C528.81,530.27,528.25,530.87,527.62,531.6Z" transform="translate(-2.64 -1.58)"/>
<path xmlns="http://www.w3.org/2000/svg" class="cls-4" d="M436.81,530.61q-10.05,24.57-19.65,48.1-4,9.84-7.93,19.43c-15.12,37.08-29.17,71.63-41.67,102.33L373,695c19.28-47.4,42-103.26,66.65-163.46a1.35,1.35,0,0,0,.11-.49c3.87-72.1,18.15-108.77,31.25-127.3l.1-.13c-.31-1.27-.62-2.55-.91-3.82a104.77,104.77,0,0,0-11.79,20.28c-.28.62-.55,1.26-.83,1.9a171.32,171.32,0,0,0-6.07,16.24C444.62,459.77,439,489.49,436.81,530.61Z" transform="translate(-2.64 -1.58)"/>
<path xmlns="http://www.w3.org/2000/svg" class="cls-4" d="M309.24,844.24a1.51,1.51,0,0,0,.23,1.5s.18.23.5.6a68.05,68.05,0,0,0,9.51,9A52.49,52.49,0,0,0,330.27,862a32.48,32.48,0,0,0,12.93,3.06H345a4.39,4.39,0,0,0,1.54-.44l.83-.46a34.5,34.5,0,0,0,5.58-4.87c4.21-4.29,9.86-10.93,16.69-19.58,4.17-5.27,8.78-11.3,13.75-18,7.81-10.47,16.53-22.55,25.88-35.9q3.9-5.55,7.93-11.39C434,750,452.55,722.14,471.38,692.54c21.84-34.36,44-71,64.39-107l1.73-3.06c15.82-28.14,30.46-55.87,42.85-81.82l.07-.16s.1-.3.3-.86a381.56,381.56,0,0,1,15.39-37,1.5,1.5,0,0,0-.68-2h0a1.42,1.42,0,0,0-.64-.14,1.47,1.47,0,0,0-1.36.83,383.13,383.13,0,0,0-15.8,38.14c-36,75.36-91.12,166-138.91,237.85-23.9,35.94-46,67.19-62.89,89.47-8.46,11.14-15.64,20-21.08,26.15a86.3,86.3,0,0,1-6.79,7,17.46,17.46,0,0,1-2.21,1.72,4.58,4.58,0,0,1-.69.37l-.19.07h-1.29a29.4,29.4,0,0,1-12.06-2.81,54.82,54.82,0,0,1-14.14-9.64c-1.76-1.62-3.15-3.08-4.11-4.12-.37-.41-.65-.74-.88-1,.08-.22.18-.47.3-.76L321.09,823l-5.1,4.6-5.3,13.08C309.74,843,309.24,844.24,309.24,844.24Z" transform="translate(-2.64 -1.58)"/>
<path xmlns="http://www.w3.org/2000/svg" class="cls-4" d="M352.52,737.47l-12.66,31.2a36.13,36.13,0,0,1,1.78,3.58c5-12.18,10.42-25.67,16.36-40.29Z" transform="translate(-2.64 -1.58)"/>
<path xmlns="http://www.w3.org/2000/svg" class="cls-3" d="M596.1,372.51a57.17,57.17,0,0,0,6.48-2.82,3.25,3.25,0,0,0,1.13-1.11,7.84,7.84,0,0,0,.9-2.13,25.56,25.56,0,0,0,.72-6.64,73.78,73.78,0,0,0-.59-8.53C592,356.83,567.18,367,543.19,373c-5.39,1.34-10.73,2.47-15.89,3.29q.19,6,.42,11.89c8-1,15.78-2.32,23.21-3.74C569.93,380.77,586.43,376.16,596.1,372.51Z" transform="translate(-2.64 -1.58)"/>
<path xmlns="http://www.w3.org/2000/svg" class="cls-4" d="M604.74,351.28a73.78,73.78,0,0,1,.59,8.53,25.56,25.56,0,0,1-.72,6.64,7.84,7.84,0,0,1-.9,2.13,3.25,3.25,0,0,1-1.13,1.11,57.17,57.17,0,0,1-6.48,2.82c-9.67,3.65-26.17,8.23-45.17,11.88-7.43,1.42-15.25,2.71-23.21,3.74,0,1,.09,2,.13,3,11-1.43,21.82-3.33,31.68-5.43,10.48-2.23,19.93-4.68,27.59-7,3.21-1,6.09-1.94,8.62-2.85l1.42-.52a59.32,59.32,0,0,0,6.84-3,6.07,6.07,0,0,0,2.22-2.11,8.87,8.87,0,0,0,.84-1.69,16.55,16.55,0,0,0,.83-2.95,30,30,0,0,0,.4-3.89v-1.87a78.08,78.08,0,0,0-.73-9.79Z" transform="translate(-2.64 -1.58)"/>
<path xmlns="http://www.w3.org/2000/svg" class="cls-1" d="M571.67,361.11c19.59-6.92,35.74-14.25,39.63-16,0-1-.12-2.64-.22-5.07-.18-4.08-.45-10.23-.82-18.53-.73-16.6-1.86-41.77-3.44-76.1-1.66-36.29-7.84-60.72-15.25-77.13l-.35-.16a11.32,11.32,0,0,1-1-.63c-.76-.51-1.71-1.21-2.86-2.07-2.3-1.72-5.36-4.08-8.94-6.7-7.15-5.24-16.37-11.51-25.37-15.64-6-2.76-11.9-4.55-16.93-4.54a18.39,18.39,0,0,0-3.55.32,1.7,1.7,0,0,1-.45,0A86.53,86.53,0,0,0,514.91,153l-.08.11c-.1.14-.24.36-.44.64l-.2.31,20.71,94.81a1.48,1.48,0,0,1,1.62,2.16,49.83,49.83,0,0,0-4.61,13.19A168,168,0,0,0,528.83,284c-1.57,15.07-2.2,33.48-2.2,53.29,0,11.61.22,23.7.59,35.88,4.27-.7,8.68-1.59,13.16-2.66A322.56,322.56,0,0,0,571.67,361.11Z" transform="translate(-2.64 -1.58)"/>
<path xmlns="http://www.w3.org/2000/svg" class="cls-4" d="M512.5,151.14a1.5,1.5,0,0,1,2.46,1.72l-.07.1a86.53,86.53,0,0,1,17.21-14.13,1.49,1.49,0,0,1-1.33-1.65,1.39,1.39,0,0,1,.21-.62l.54-.87A87.75,87.75,0,0,0,512.62,151a43.63,43.63,0,0,0-7,10.62c-.35.69-.7,1.41-1,2.14,4.76-8.06,7.92-12.55,7.94-12.58Z" transform="translate(-2.64 -1.58)"/>
<path xmlns="http://www.w3.org/2000/svg" class="cls-4" d="M594.06,166.77h0a1.65,1.65,0,0,1-.24.87,1.63,1.63,0,0,1-.87.68,1.79,1.79,0,0,1-.51.07,2,2,0,0,1-.74-.14l-.13-.06C599,184.6,605.16,209,606.82,245.32c1.58,34.33,2.71,59.5,3.44,76.1.37,8.3.64,14.45.82,18.53.1,2.43.17,4.1.22,5.07-3.89,1.8-20,9.13-39.63,16a322.21,322.21,0,0,1-31.31,9.45c-4.48,1.07-8.89,2-13.16,2.66,0,1,.06,2,.1,3,5.16-.82,10.5-2,15.89-3.29,24-6,48.8-16.12,61.55-21.67l2.86-1.26c3.72-1.64,5.87-2.66,5.88-2.66a1.54,1.54,0,0,0,.86-1.42s-.14-3.12-.42-9.49c0-1-.09-2.14-.14-3.32-.66-15.17-1.95-44.07-4-87.91-.22-4.66-.51-9.11-.86-13.39q-.58-7-1.39-13.32c-2.27-17.92-5.8-32.17-10-43.48q-.91-2.46-1.86-4.75c-.56-1.33-1.12-2.61-1.69-3.85v.28Z" transform="translate(-2.64 -1.58)"/>
<path xmlns="http://www.w3.org/2000/svg" d="M551.3,30.64a1.53,1.53,0,0,1,.45,1.56A7.29,7.29,0,0,1,549.89,35a17.81,17.81,0,0,1-7.66,4.17,1.31,1.31,0,0,1-.68,0,12.56,12.56,0,0,0-2.12-.19h-.34a95.42,95.42,0,0,0-2.39,21.63,100.39,100.39,0,0,0,2,20.38,56.42,56.42,0,0,0,4.92,14.68,13,13,0,0,0,3.62,4.61h0l.18.11.75.39a28.14,28.14,0,0,0,2.82,1.21,26.78,26.78,0,0,0,9.24,1.76,18.84,18.84,0,0,0,9.84-2.65c3.26-2,6.47-5.25,9.2-10.62,3.66-7.18,6.69-13,9.36-17.39s5-7.57,7.4-9.5a8.11,8.11,0,0,1,5.12-2,8.67,8.67,0,0,1,4.93,1.76,2.16,2.16,0,0,0,1.26.36,6.25,6.25,0,0,0,2.43-.63,16.13,16.13,0,0,0,3.15-1.93,36.23,36.23,0,0,0,6.83-7.16c4.37-5.92,7.82-13.75,7.81-21a19,19,0,0,0-2.17-9.17C621.5,17.7,615.21,12.88,607.71,9.6a63,63,0,0,0-24.81-5,53.52,53.52,0,0,0-23.81,5.17,32.53,32.53,0,0,0-15.61,15.82c.43.21.85.42,1.24.63A38.24,38.24,0,0,1,551.3,30.64Z" transform="translate(-2.64 -1.58)"/>
<path xmlns="http://www.w3.org/2000/svg" d="M552,105.42a28.68,28.68,0,0,0,8.28,1.28,21.72,21.72,0,0,0,11.38-3.08c3.81-2.29,7.4-6,10.34-11.83,4.85-9.54,8.59-16.54,11.72-21.05a23.35,23.35,0,0,1,4.23-4.86,5.18,5.18,0,0,1,3.25-1.37,5.63,5.63,0,0,1,3.21,1.22,5.16,5.16,0,0,0,3,.9,9.12,9.12,0,0,0,3.66-.89A23.41,23.41,0,0,0,617.61,61,46,46,0,0,0,625,51.42c.55-.93,1.07-1.88,1.56-2.86.31-.64.62-1.29.91-2a34.71,34.71,0,0,0,3.16-13.63,22.15,22.15,0,0,0-2.57-10.61l-.06-.1c-4.3-6.72-11.1-11.86-19-15.34a65.85,65.85,0,0,0-26-5.29,56.25,56.25,0,0,0-25.16,5.54,35.54,35.54,0,0,0-17,17.27c1,.4,1.88.81,2.73,1.23A32.53,32.53,0,0,1,559.09,9.77,53.4,53.4,0,0,1,582.9,4.55a63,63,0,0,1,24.81,5c7.5,3.28,13.79,8.1,17.68,14.17a19,19,0,0,1,2.18,9.13c0,7.23-3.44,15.06-7.81,21A36.23,36.23,0,0,1,612.93,61a16.13,16.13,0,0,1-3.15,1.93,6.25,6.25,0,0,1-2.43.63,2.16,2.16,0,0,1-1.26-.36,8.67,8.67,0,0,0-4.93-1.76,8.11,8.11,0,0,0-5.12,2c-2.4,1.93-4.71,5.06-7.4,9.5s-5.7,10.21-9.36,17.39c-2.73,5.37-5.94,8.65-9.2,10.62a18.84,18.84,0,0,1-9.84,2.65,26.78,26.78,0,0,1-9.24-1.76,28.14,28.14,0,0,1-2.82-1.21l-.75-.39-.18-.11h0a13,13,0,0,1-3.62-4.61,56.34,56.34,0,0,1-4.88-14.61,100.39,100.39,0,0,1-2-20.38,95.42,95.42,0,0,1,2.39-21.63,7.48,7.48,0,0,0-3.25.78,100,100,0,0,0-2.14,20.85,98.65,98.65,0,0,0,3.57,26.91A49,49,0,0,0,541,97a15.71,15.71,0,0,0,4.59,5.82h.06a26.47,26.47,0,0,0,3.4,1.62c.28.12.59.23.9.35C550.62,105,551.25,105.21,552,105.42Z" transform="translate(-2.64 -1.58)"/>
<path xmlns="http://www.w3.org/2000/svg" d="M539.43,36a16.76,16.76,0,0,1,2.23.18A15.38,15.38,0,0,0,547.57,33a6.77,6.77,0,0,0,.8-.89l-.62-.47a41.78,41.78,0,0,0-4.45-2.77,31.42,31.42,0,0,0-14.62-4,23.12,23.12,0,0,0-9.89,2.18,30.74,30.74,0,0,0-10.24,8.07c-7.09,8.21-12.42,19.39-15.94,31.11a122.79,122.79,0,0,0-5.26,34.36c0,7.19.84,13.47,2.43,17.94a68.44,68.44,0,0,1,4,23.24c0,2.29-.09,4.11-.09,5.32v.1c.66-.44,1.52-1.06,2.54-1.85a114.87,114.87,0,0,0,8.74-7.62c6.73-6.44,14.56-15.32,19.7-24.94,3.43-6.42,5.65-13.14,5.64-19.66A28,28,0,0,0,530,89c-1.72-11.11-3-21.72-3-30.49a56.15,56.15,0,0,1,.74-9.78,21.83,21.83,0,0,1,2.58-7.51,11.12,11.12,0,0,1,3.13-3.42A10.35,10.35,0,0,1,539.43,36Z" transform="translate(-2.64 -1.58)"/>
<path xmlns="http://www.w3.org/2000/svg" d="M539.09,39h.34a12.56,12.56,0,0,1,2.12.19,1.31,1.31,0,0,0,.68,0A17.81,17.81,0,0,0,549.89,35a7.29,7.29,0,0,0,1.86-2.75,1.53,1.53,0,0,0-.45-1.56,38.61,38.61,0,0,0-6.58-4.38c-.39-.21-.81-.42-1.24-.63-.85-.42-1.77-.83-2.73-1.23A32.34,32.34,0,0,0,528.68,22a26.21,26.21,0,0,0-11.16,2.46,33.76,33.76,0,0,0-11.25,8.83c-7.46,8.67-12.92,20.19-16.53,32.21a125.46,125.46,0,0,0-5.39,35.22c0,7.43.85,14,2.6,18.94a65.32,65.32,0,0,1,3.8,22.24c0,2.21-.09,4-.09,5.32a8.4,8.4,0,0,0,.17,2.06,2.31,2.31,0,0,0,.52,1.05,1.75,1.75,0,0,0,.65.49,2,2,0,0,0,.8.17,1.68,1.68,0,0,0,.54-.08,4,4,0,0,0,.64-.27,14.77,14.77,0,0,0,1.37-.84,89.68,89.68,0,0,0,9.23-7.5A121.32,121.32,0,0,0,523.25,121c5.7-8.51,10-18.1,10-27.76a31.44,31.44,0,0,0-.35-4.65c-1.71-11-3-21.56-3-30,0-6.16.7-11.25,2.27-14.57a9,9,0,0,1,2.89-3.68c.24-.16.49-.3.75-.44A7.5,7.5,0,0,1,539.09,39Zm-8.84,2.18a21.83,21.83,0,0,0-2.58,7.51,56.15,56.15,0,0,0-.74,9.78c0,8.77,1.32,19.38,3,30.49a28,28,0,0,1,.31,4.19c0,6.52-2.21,13.24-5.64,19.66-5.14,9.62-13,18.5-19.7,24.94a114.87,114.87,0,0,1-8.74,7.62c-1,.79-1.88,1.41-2.54,1.85v-.1c0-1.21.09-3,.09-5.32a68.44,68.44,0,0,0-4-23.24c-1.59-4.47-2.44-10.75-2.43-17.94a122.77,122.77,0,0,1,5.34-34.36c3.52-11.72,8.85-22.9,15.94-31.11a30.74,30.74,0,0,1,10.24-8.07,23.12,23.12,0,0,1,9.89-2.18,31.42,31.42,0,0,1,14.62,4,41.78,41.78,0,0,1,4.45,2.77l.62.47a6.77,6.77,0,0,1-.8.89,15.38,15.38,0,0,1-5.91,3.12,16.76,16.76,0,0,0-2.23-.18,10.32,10.32,0,0,0-6,1.79,11.08,11.08,0,0,0-3.19,3.42Z" transform="translate(-2.64 -1.58)"/>
<path xmlns="http://www.w3.org/2000/svg" d="M322.2,722.14c-.32-.7-.78-1.68-1.34-2.8-1.1-2.25-2.57-5.1-4-7.45a22.14,22.14,0,0,0-2.63-3.6h-.29a6,6,0,0,0-2,.47,23.61,23.61,0,0,0-3,1.44,76.13,76.13,0,0,0-7.24,4.65c-2,1.41-3.91,2.86-5.56,4.13l16.55,18.35,9.67-14.8Z" transform="translate(-2.64 -1.58)"/>
<path xmlns="http://www.w3.org/2000/svg" d="M325.44,722s-1.34-3-3.12-6.47c-.89-1.73-1.9-3.57-2.92-5.23a23.77,23.77,0,0,0-3.08-4.17,3.12,3.12,0,0,0-1.15-.71,4.33,4.33,0,0,0-1.24-.18,9.07,9.07,0,0,0-3.25.75,40,40,0,0,0-6.65,3.61c-3.48,2.23-7.1,4.92-9.9,7.1l2,2.23c1.65-1.27,3.57-2.72,5.56-4.13a76.13,76.13,0,0,1,7.24-4.65,23.61,23.61,0,0,1,3-1.44,6,6,0,0,1,2-.47h.29a22.14,22.14,0,0,1,2.63,3.6c1.44,2.35,2.91,5.2,4,7.45.56,1.12,1,2.1,1.34,2.8l.16.36-9.67,14.8,2.08,2.3,10.56-16.15A1.51,1.51,0,0,0,325.44,722Z" transform="translate(-2.64 -1.58)"/>
<path xmlns="http://www.w3.org/2000/svg" class="cls-1" d="M328.47,759.27a12,12,0,0,1-.53,2.78h0a1,1,0,1,1-1.9-.64,10.11,10.11,0,0,0,.47-3.23,8.78,8.78,0,0,0-.05-1.13l-6.33-7h0l-31.67-35.11a32.4,32.4,0,0,0-45.75-2.36h0L41,894.59c-.37.33-.72.68-1.07,1l52.88,56L96,949a1,1,0,1,1,1.27,1.55l-3.08,2.53,36,38.13,200.6-181a32.4,32.4,0,0,0,2.36-45.75h0l-4.58-5.08h0Zm-204.85,167,9.21-7.57a1,1,0,1,1,1.36,1.46l-.09.08-9.21,7.57a1,1,0,1,1-1.37-1.46A.39.39,0,0,1,123.62,926.3ZM142,911.15l9.21-7.57a1,1,0,1,1,1.27,1.55l-9.21,7.57a1,1,0,0,1-1.27-1.55ZM160.46,896l9.21-7.57a1,1,0,1,1,1.27,1.55l-9.21,7.57a1,1,0,0,1-1.27-1.55Zm28.91-21.17-9.22,7.57a1,1,0,0,1-1.27-1.54h0l9.22-7.57a1,1,0,0,1,1.27,1.54Zm-84.31,68a1,1,0,0,1,.13-1.41h0l9.22-7.57a1,1,0,0,1,1.27,1.54L106.46,943a1,1,0,0,1-1.38-.13Zm213.4-175.41a1,1,0,0,1-.14,1.4l-9.21,7.58a1,1,0,0,1-1.27-1.55h0l9.21-7.57a1,1,0,0,1,1.41.12l0,0Zm-55.4,46.83-9.22,7.57a1,1,0,0,1-1.27-1.54h0l9.22-7.57a1,1,0,0,1,1.27,1.54Zm-28.91,21.17,9.21-7.57a1,1,0,1,1,1.27,1.55L235.42,837a1,1,0,0,1-1.27-1.55Zm-7.94,9.12L217,852.12a1,1,0,0,1-1.27-1.55l9.21-7.57a1,1,0,1,1,1.27,1.55Zm-18.42,15.14-9.17,7.58a1,1,0,0,1-1.41-.14h0a1,1,0,0,1,.14-1.4l9.21-7.57a1,1,0,0,1,1.36,1.46l-.09.08Zm73.69-60.57-9.21,7.57a1,1,0,0,1-1.41-.14h0a1,1,0,0,1,.14-1.4l9.21-7.57a1,1,0,0,1,1.36,1.46l-.09.08Zm7.8-7.71a1,1,0,0,1,.13-1.41h0l9.21-7.57A1,1,0,0,1,299.9,784l-9.21,7.57a1,1,0,0,1-1.39-.13Z" transform="translate(-2.64 -1.58)"/>
<path xmlns="http://www.w3.org/2000/svg" class="cls-1" d="M37.9,897.77a32.35,32.35,0,0,0,.76,42.52l43.31,48A18.94,18.94,0,0,1,86,992.46a32.39,32.39,0,0,0,41.88.69Z" transform="translate(-2.64 -1.58)"/>
<path xmlns="http://www.w3.org/2000/svg" class="cls-4" d="M82,988.34l-43.31-48a32.35,32.35,0,0,1-.76-42.52l-1.13-1.2a1.5,1.5,0,0,1,0-2.11,35.37,35.37,0,0,0-.39,47.84l1.94,2.14,25.23,28L75,985.19A18.2,18.2,0,0,1,82,988.34Z" transform="translate(-2.64 -1.58)"/>
<path xmlns="http://www.w3.org/2000/svg" class="cls-4" d="M39,894.55l1,1c.35-.34.7-.69,1.07-1l201.69-182a32.38,32.38,0,0,1,45.74,2.34h0L320.14,750a1.52,1.52,0,0,1,.05-2.07l1.12-1.12-6.53-7.24-2.08-2.3-16.55-18.35-2-2.23-3.44-3.81a35.38,35.38,0,0,0-50-2.61l0,0h0l-68.86,62.14L80.09,855.27l-7.93,7.15-6.6,6-3.32,3L39,892.42c-.76.69-1.48,1.41-2.16,2.14A1.5,1.5,0,0,1,39,894.55Z" transform="translate(-2.64 -1.58)"/>
<path xmlns="http://www.w3.org/2000/svg" class="cls-4" d="M270.79,868.37,316,827.6l5.1-4.6,11.71-10.58a35.41,35.41,0,0,0,2.57-50l-3.63-4-1,1a1.49,1.49,0,0,1-2.18,0l4.58,5.08a32.4,32.4,0,0,1-2.34,45.75h0l-200.6,181,1,1.07a1.5,1.5,0,0,1-2.18,2.06l-1.08-1.15A32.39,32.39,0,0,1,86,992.5a18.68,18.68,0,0,1,2.66,5.7,35.42,35.42,0,0,0,42.4-3.78l16.31-14.72,99-89.34,21-19Z" transform="translate(-2.64 -1.58)"/>
<path xmlns="http://www.w3.org/2000/svg" d="M71.05,987.7a15.31,15.31,0,1,0,10.83,4.49A15.3,15.3,0,0,0,71.05,987.7Z" transform="translate(-2.64 -1.58)"/>
<path xmlns="http://www.w3.org/2000/svg" d="M82,988.34a18.53,18.53,0,0,0-10.92-3.64,18.27,18.27,0,1,0,15,7.81A19,19,0,0,0,82,988.34ZM86.36,1003a15.31,15.31,0,1,1-4.48-10.83A15.31,15.31,0,0,1,86.36,1003Z" transform="translate(-2.64 -1.58)"/>
<path xmlns="http://www.w3.org/2000/svg" d="M31.88,944.77a15.33,15.33,0,1,0,4.48,10.83A15.33,15.33,0,0,0,31.88,944.77Z" transform="translate(-2.64 -1.58)"/>
<path xmlns="http://www.w3.org/2000/svg" d="M21.05,937.28a18.36,18.36,0,1,0,14.63,7.33A18.36,18.36,0,0,0,21.05,937.28Zm0,33.63a15.31,15.31,0,1,1,10.83-4.49A15.3,15.3,0,0,1,21.05,970.91Z" transform="translate(-2.64 -1.58)"/>
<path xmlns="http://www.w3.org/2000/svg" class="cls-3" d="M539.8,547.77c.36.33.57.37.71.37a1,1,0,0,0,.65-.31,4.71,4.71,0,0,0,1.06-1.54,19,19,0,0,0,1.26-7.58,60.55,60.55,0,0,0-3-17.25,121.32,121.32,0,0,0-7.28-18.21c-2.36-4.83-4.49-8.79-5.86-12.93a28.74,28.74,0,0,1-1.26-5.73,43.84,43.84,0,0,1-6.52,5.65,35.72,35.72,0,0,1-13.63,5.84v1.1c-.12,6.2-.25,14.43-.25,22.5,0,9.47.18,18.76.71,24.24a49.84,49.84,0,0,0,2.88,13.49l.33.75,2.31-2.31,8.68-10.1a9.45,9.45,0,0,1-.57-3.24,8.32,8.32,0,0,1,.18-1.86h0a24.44,24.44,0,0,1,5.17-10.89,22.92,22.92,0,0,1,3.89-3.86,1.49,1.49,0,0,1,2.09.32,1.38,1.38,0,0,1,.25.5l.09.34.26,1c.23.82.57,2,1,3.34.35,1.18.77,2.5,1.22,3.88a9.09,9.09,0,0,1,3,4.05,16.44,16.44,0,0,1,1.13,6.08v.17c.1.18.2.39.3.56A8,8,0,0,0,539.8,547.77Z" transform="translate(-2.64 -1.58)"/>
<path xmlns="http://www.w3.org/2000/svg" class="cls-3" d="M527.48,565.27a17.49,17.49,0,0,0,4.72-3.93,10.27,10.27,0,0,0,1.61-2.6,3.05,3.05,0,0,0,.21-.94.74.74,0,0,0,0-.21h0a7.89,7.89,0,0,0-1.12-.88L522.29,567A12.67,12.67,0,0,0,527.48,565.27Z" transform="translate(-2.64 -1.58)"/>
<path xmlns="http://www.w3.org/2000/svg" class="cls-4" d="M506.35,543.87c-.53-5.48-.71-14.77-.71-24.24,0-8.07.13-16.3.25-22.5V496c-1,.2-2,.34-3,.46-.12,6.28-.26,14.78-.26,23.14,0,9.52.17,18.82.73,24.53.66,6.75,1.89,12.1,3.93,16.22l2.26-2.27-.33-.75A49.82,49.82,0,0,1,506.35,543.87Z" transform="translate(-2.64 -1.58)"/>
<path xmlns="http://www.w3.org/2000/svg" class="cls-4" d="M532.87,556.69a7.89,7.89,0,0,1,1.12.88h0a.74.74,0,0,1,0,.21,3.05,3.05,0,0,1-.21.94,10.27,10.27,0,0,1-1.61,2.6,17.49,17.49,0,0,1-4.72,3.93,12.77,12.77,0,0,1-5.22,1.71l-2.92,2.84a12,12,0,0,0,2.16.19,14.61,14.61,0,0,0,5.82-1.3,20.37,20.37,0,0,0,6.78-5,15.13,15.13,0,0,0,2.07-2.94,6.74,6.74,0,0,0,.85-3,3.64,3.64,0,0,0-.19-1.18,3.14,3.14,0,0,0-.65-1.1,8.89,8.89,0,0,0-1.13-1Z" transform="translate(-2.64 -1.58)"/>
<polygon xmlns="http://www.w3.org/2000/svg" class="cls-4" points="517.51 539.02 517.52 539.02 517.52 539.02 517.51 539.02"/>
<path xmlns="http://www.w3.org/2000/svg" class="cls-4" d="M531.91,528l-.26-1-.09-.34a1.5,1.5,0,0,0-1.84-1.06,1.54,1.54,0,0,0-.5.24,22.92,22.92,0,0,0-3.89,3.86,24.44,24.44,0,0,0-5.17,10.89,8.32,8.32,0,0,0-.18,1.86,9.45,9.45,0,0,0,.57,3.24l2.45-2.85v-.39a7.07,7.07,0,0,1,.12-1.3h0a21.53,21.53,0,0,1,4.55-9.56c.6-.73,1.16-1.33,1.66-1.83.34,1.21.81,2.79,1.37,4.55a4.05,4.05,0,0,1,.7-.07,4.53,4.53,0,0,1,2.21.61,5.69,5.69,0,0,1,.52.33c-.45-1.38-.87-2.7-1.22-3.88S532.14,528.77,531.91,528Z" transform="translate(-2.64 -1.58)"/>
<path xmlns="http://www.w3.org/2000/svg" class="cls-4" d="M526.06,484.54a28.74,28.74,0,0,0,1.26,5.73c1.37,4.14,3.5,8.1,5.86,12.93a121.32,121.32,0,0,1,7.28,18.21,60.55,60.55,0,0,1,3,17.25,19,19,0,0,1-1.26,7.58,4.71,4.71,0,0,1-1.06,1.54,1,1,0,0,1-.65.31c-.14,0-.35,0-.71-.37a7.74,7.74,0,0,1-1.23-1.67c-.1-.17-.2-.38-.3-.56a16.7,16.7,0,0,1-.61,4.33l.07.07a3.81,3.81,0,0,0,5.4.15,9,9,0,0,0,2.51-4.27,25.37,25.37,0,0,0,.89-7.1,63.08,63.08,0,0,0-3.15-18.12c-3.19-10.46-6.89-17.48-9.72-23.24a63.4,63.4,0,0,1-3.44-8,24.14,24.14,0,0,1-1.3-7.81v-.16C528,482.47,527,483.53,526.06,484.54Z" transform="translate(-2.64 -1.58)"/>
<path xmlns="http://www.w3.org/2000/svg" class="cls-3" d="M502.24,493.54a32.53,32.53,0,0,0,15.59-5.77A48.15,48.15,0,0,0,530,474.88c-.55-7.1-1.13-14.84-1.69-23C517,457.51,504,460.57,491.11,462,495,473.58,498.77,484.24,502.24,493.54Z" transform="translate(-2.64 -1.58)"/>
<path xmlns="http://www.w3.org/2000/svg" class="cls-4" d="M499.83,495.68a1.51,1.51,0,0,0,1.51,1,14.48,14.48,0,0,0,1.56-.16c1-.12,2-.26,3-.46a35.72,35.72,0,0,0,13.63-5.84,43.84,43.84,0,0,0,6.52-5.65,40.65,40.65,0,0,0,2.81-3.18,62.87,62.87,0,0,0,3.87-5.29,1.56,1.56,0,0,0,.24-.94c-.61-7.89-1.26-16.57-1.89-25.79a1.53,1.53,0,0,1-.78,1.42c-.68.36-1.36.72-2,1.06.56,8.18,1.14,15.92,1.69,23a48.07,48.07,0,0,1-12.11,12.92,32.48,32.48,0,0,1-15.59,5.81c-3.47-9.3-7.28-20-11.13-31.56l-1.86.21a1.5,1.5,0,0,1-1.57-1C491.88,473.94,496.07,485.64,499.83,495.68Z" transform="translate(-2.64 -1.58)"/>
<path xmlns="http://www.w3.org/2000/svg" class="cls-1" d="M512.7,156.24c-1.44,2.22-3.5,5.51-6,9.72a351.52,351.52,0,0,0-18.19,35.59c-13.21,29.92-26.42,70.93-26.42,115.22v2.38h0c.48,45,14.33,98.12,28,139.92,13.29-1.46,26.63-4.64,37.88-10.51-2.24-33.85-4.35-74.79-4.35-111.22,0-14.9.36-29,1.2-41.59S527,272.2,529,263.56a52.32,52.32,0,0,1,4.93-14,1.51,1.51,0,0,1,1-.72L514.2,154C513.8,154.57,513.31,155.3,512.7,156.24Z" transform="translate(-2.64 -1.58)"/>
<path xmlns="http://www.w3.org/2000/svg" class="cls-4" d="M471.14,403.6c4.88,20.28,10.73,39.95,16.54,57.56h0a1.5,1.5,0,0,0,1.57,1l1.86-.21c12.89-1.47,25.87-4.53,37.15-10.16.69-.34,1.37-.7,2-1.06a1.53,1.53,0,0,0,.78-1.42c-1.23-17.94-2.4-37.93-3.24-58.2,0-1-.09-2-.13-3q-.24-5.94-.42-11.89c0-1-.07-2-.1-3-.37-12.18-.59-24.27-.59-35.88,0-19.81.63-38.22,2.2-53.29a168,168,0,0,1,3.08-19.82A49.83,49.83,0,0,1,536.5,251a1.47,1.47,0,0,0-2.56-1.44,52.32,52.32,0,0,0-4.93,14c-2,8.64-3.31,19.63-4.16,32.19s-1.2,26.69-1.2,41.59c0,36.39,2.12,77.37,4.42,111.22-11.25,5.87-24.59,9-37.88,10.51-13.72-41.8-27.57-95-28-139.92h0v-2.38c0-44.28,13.21-85.29,26.44-115.21A351.52,351.52,0,0,1,506.82,166c2.48-4.21,4.54-7.5,6-9.72.61-.94,1.1-1.67,1.47-2.22l.2-.31c.2-.28.34-.5.44-.64L515,153l.07-.1a1.5,1.5,0,0,0-2.46-1.72h0s-3.18,4.52-7.94,12.58a351.86,351.86,0,0,0-18.77,36.62c-13.34,30.17-26.7,71.54-26.7,116.42v2.42h0c.28,25.53,4.79,53.53,11.13,80.6C470.52,401.05,470.83,402.33,471.14,403.6Z" transform="translate(-2.64 -1.58)"/>
<path xmlns="http://www.w3.org/2000/svg" class="cls-3" d="M535.14,135.53h1a37.08,37.08,0,0,1,12.14,2.36,82.63,82.63,0,0,1,12.58,5.78A198.2,198.2,0,0,1,583,158.38c3.34,2.5,6.08,4.62,7.86,5.9a52.44,52.44,0,0,0-2.66-13,66.45,66.45,0,0,0-6.64-13.11,13.45,13.45,0,0,0-2.78-3,36.78,36.78,0,0,0-4.55-3.09,100.63,100.63,0,0,0-12-5.72c-7.58-3.1-15-5.42-17.7-6.23Z" transform="translate(-2.64 -1.58)"/>
<path xmlns="http://www.w3.org/2000/svg" class="cls-4" d="M531,138.2a1.53,1.53,0,0,0,1.07.63,1.69,1.69,0,0,0,.45,0,18.39,18.39,0,0,1,3.55-.32c5,0,10.93,1.78,16.93,4.54,9,4.13,18.22,10.4,25.37,15.64,3.58,2.62,6.64,5,8.94,6.7,1.15.86,2.1,1.56,2.86,2.07.38.25.71.46,1,.63l.35.16.13.06a2,2,0,0,0,.74.14,1.79,1.79,0,0,0,.51-.07,1.63,1.63,0,0,0,.87-.68,1.65,1.65,0,0,0,.24-.87h0v-.37a58.39,58.39,0,0,0-3-16.19,68.76,68.76,0,0,0-6.93-13.69,11.9,11.9,0,0,0-.7-1,18.19,18.19,0,0,0-2.6-2.59l-.4-.34a55.43,55.43,0,0,0-10.18-6,178.93,178.93,0,0,0-20.24-7.9l-2.88-.91c-1.73-.54-2.77-.84-2.79-.85a1.51,1.51,0,0,0-1.69.66l-11.1,18.1-.54.87A1.48,1.48,0,0,0,531,138.2Zm31.25-11.83a100.63,100.63,0,0,1,12,5.72,36.78,36.78,0,0,1,4.55,3.09,13.45,13.45,0,0,1,2.78,3,66.45,66.45,0,0,1,6.64,13.11,52.44,52.44,0,0,1,2.66,13c-1.78-1.28-4.52-3.4-7.86-5.9a198.2,198.2,0,0,0-22.18-14.71,82.63,82.63,0,0,0-12.58-5.78,37.08,37.08,0,0,0-12.14-2.36h-1l9.47-15.4c2.66.81,10.08,3.13,17.66,6.23Z" transform="translate(-2.64 -1.58)"/>
<path xmlns="http://www.w3.org/2000/svg" class="cls-3" d="M731.2,215.15v-2.38c-1.73,2-3.37,3.91-4.9,5.78a1.5,1.5,0,0,1-.82,1c-4.72,5.82-8.15,10.62-9.19,12.09a7.52,7.52,0,0,0,.74,2,17,17,0,0,0,2,2.93,36.81,36.81,0,0,0,5.46,5.42,26.63,26.63,0,0,0,3.12,2.26l.49.27c2.27-1.49,10.59-6.87,20.66-12.66l-17-15.6A1.47,1.47,0,0,1,731.2,215.15Z" transform="translate(-2.64 -1.58)"/>
<path xmlns="http://www.w3.org/2000/svg" class="cls-4" d="M773.62,218.77a49,49,0,0,0,7.86-8.6,32.12,32.12,0,0,0,1.67-2.76l-13.64,14.73C770.88,221.07,772.26,220,773.62,218.77Z" transform="translate(-2.64 -1.58)"/>
<path xmlns="http://www.w3.org/2000/svg" class="cls-4" d="M713.48,230.4v.06a1.43,1.43,0,0,0-.23.92,12.16,12.16,0,0,0,2.37,5.66,37.53,37.53,0,0,0,6.84,7.18,34.49,34.49,0,0,0,3.16,2.35,11,11,0,0,0,1.26.71c.2.09.39.17.59.24a2.68,2.68,0,0,0,.74.13,1.72,1.72,0,0,0,1-.29c.36-.23,2.27-1.49,5.22-3.36l2.85-1.78c3.76-2.35,8.56-5.25,13.79-8.24l-2.32-2.13c-10.07,5.79-18.39,11.17-20.66,12.66l-.49-.27a26.63,26.63,0,0,1-3.12-2.26,36.81,36.81,0,0,1-5.46-5.42,17,17,0,0,1-2-2.93,7.52,7.52,0,0,1-.74-2c1-1.47,4.47-6.27,9.19-12.09a1.51,1.51,0,0,1-2-.73,1.47,1.47,0,0,1-.13-.72,7.53,7.53,0,0,1,.09-.8c-3.34,4.11-6.06,7.73-7.81,10.12C714.27,229.26,713.49,230.39,713.48,230.4Z" transform="translate(-2.64 -1.58)"/>
<path xmlns="http://www.w3.org/2000/svg" class="cls-4" d="M731.2,212.21l-4.64,4.36a13.87,13.87,0,0,0-.22,1.7h0a1,1,0,0,1,0,.25c1.53-1.87,3.17-3.81,4.9-5.78Z" transform="translate(-2.64 -1.58)"/>
<path xmlns="http://www.w3.org/2000/svg" d="M754.91,233.47l47.82-51.7v-1.14L756.1,231a1.51,1.51,0,0,1-2.12.08L734.2,213v1.49Z" transform="translate(-2.64 -1.58)"/>
<path xmlns="http://www.w3.org/2000/svg" d="M805.43,175.93a.12.12,0,0,0,.05.07A.12.12,0,0,1,805.43,175.93Z" transform="translate(-2.64 -1.58)"/>
<path xmlns="http://www.w3.org/2000/svg" d="M805.12,175.62l.09.08Z" transform="translate(-2.64 -1.58)"/>
<path xmlns="http://www.w3.org/2000/svg" d="M805.33,177.84l-2.6,2.82v1.11l-47.82,51.7-20.71-19V213l-1.94-1.78-1.06,1v2.94a1.48,1.48,0,0,0,.49,1.1l17,15.6L751,234l3,2.71a1.51,1.51,0,0,0,2.12-.08l13.36-14.45,13.64-14.73,22.23-24a1.54,1.54,0,0,0,.4-1V176.8A1.5,1.5,0,0,1,805.33,177.84Z" transform="translate(-2.64 -1.58)"/>
<path xmlns="http://www.w3.org/2000/svg" d="M805.62,176.35v0Z" transform="translate(-2.64 -1.58)"/>
<path xmlns="http://www.w3.org/2000/svg" class="cls-3" d="M801.9,177.13l-22.64-14.21-19.9,20.85a6.16,6.16,0,0,1,1,.33,5.16,5.16,0,0,1,2.53,2.24,6.46,6.46,0,0,1,.73,2.43h0a5.23,5.23,0,0,1,0,.56,5.57,5.57,0,0,1-1,3.13,9.81,9.81,0,0,1-2.36,2.32,25.5,25.5,0,0,1-6.47,3.09,62,62,0,0,1-8.58,2.18l-9.74,10.1,19.4,17.78Z" transform="translate(-2.64 -1.58)"/>
<path xmlns="http://www.w3.org/2000/svg" class="cls-4" d="M759.36,183.77l19.9-20.88L801.9,177.1l-47,50.78L735.5,210.1l-1.07,1.1a1.49,1.49,0,0,1-2.11,0h0a.06.06,0,0,1,0-.06h0l1.94,1.78L754,231.05a1.51,1.51,0,0,0,2.12-.08l46.63-50.39,2.6-2.82a1.48,1.48,0,0,0,.39-1.08v-.13a1.21,1.21,0,0,0,0-.18v-.1a2.26,2.26,0,0,0-.17-.35.12.12,0,0,1,0-.07,2.39,2.39,0,0,0-.22-.23l-.09-.08-.09-.06-25.28-15.71a1.5,1.5,0,0,0-1.88.23l-22.57,23.68a16,16,0,0,1,1.7-.11A10.38,10.38,0,0,1,759.36,183.77Z" transform="translate(-2.64 -1.58)"/>
<path xmlns="http://www.w3.org/2000/svg" class="cls-3" d="M732.26,211.22h0a1.47,1.47,0,0,1,0-2.06l11.15-11.56a1.52,1.52,0,0,1,.85-.44h.31l.91-.17c.77-.15,1.86-.37,3.11-.68a40.32,40.32,0,0,0,8.06-2.81,9.61,9.61,0,0,0,3.52-2.7,2.53,2.53,0,0,0,.5-1.43v-.24a3.16,3.16,0,0,0-.35-1.24,1.9,1.9,0,0,0-.63-.69,4.64,4.64,0,0,0-2.62-.61,22.74,22.74,0,0,0-6.22,1.18c-2.31.72-4.7,1.67-6.83,2.58a14.74,14.74,0,0,0-4,2.81,38.69,38.69,0,0,0-4.4,5,58.55,58.55,0,0,0-7.31,12.73,29.67,29.67,0,0,0-1.78,5.75l4.64-4.36Z" transform="translate(-2.64 -1.58)"/>
<path xmlns="http://www.w3.org/2000/svg" class="cls-4" d="M724.75,219.67a1.43,1.43,0,0,0,.73-.14,1.5,1.5,0,0,0,.82-1,1,1,0,0,0,0-.25h0a13.87,13.87,0,0,1,.22-1.7,29.67,29.67,0,0,1,1.78-5.75,58.83,58.83,0,0,1,7.32-12.74,38.69,38.69,0,0,1,4.4-5,14.53,14.53,0,0,1,4-2.81c2.13-.91,4.52-1.86,6.83-2.58a22.74,22.74,0,0,1,6.22-1.18,4.64,4.64,0,0,1,2.62.61,1.9,1.9,0,0,1,.63.69,3.16,3.16,0,0,1,.35,1.24v.24a2.53,2.53,0,0,1-.5,1.43,9.61,9.61,0,0,1-3.52,2.7,40.32,40.32,0,0,1-8.06,2.81c-1.25.31-2.34.53-3.11.68l-.91.17h-.31a1.52,1.52,0,0,0-.85.44l-11.15,11.56a1.47,1.47,0,0,0,0,2.06.06.06,0,0,0,0,.06,1.48,1.48,0,0,0,2.1,0h0l1.07-1.1,9.74-10.1a62,62,0,0,0,8.58-2.18,25.5,25.5,0,0,0,6.47-3.09,9.81,9.81,0,0,0,2.36-2.32,5.57,5.57,0,0,0,1-3.13,5.23,5.23,0,0,0,0-.56h0a6.45,6.45,0,0,0-.72-2.38,5.16,5.16,0,0,0-2.53-2.24,6.16,6.16,0,0,0-1-.33,9.82,9.82,0,0,0-2.29-.27,16,16,0,0,0-1.7.11,29.4,29.4,0,0,0-5.41,1.21,74.29,74.29,0,0,0-7.12,2.68,20.53,20.53,0,0,0-6.44,5,59.6,59.6,0,0,0-8.71,12.58,50.41,50.41,0,0,0-3,6.82,25.37,25.37,0,0,0-1.28,5.36c0,.27-.07.54-.09.8a1.5,1.5,0,0,0,1.39,1.6Z" transform="translate(-2.64 -1.58)"/>
<path xmlns="http://www.w3.org/2000/svg" d="M508.53,576.12h0l24.62-23.88a8.78,8.78,0,0,0,1.56-3,14,14,0,0,0,.54-3.86,13.43,13.43,0,0,0-.9-4.94,5.75,5.75,0,0,0-2.25-2.91,1.52,1.52,0,0,0-.74-.22,1.59,1.59,0,0,0-.71.18,3.59,3.59,0,0,0-.9.59,10.38,10.38,0,0,0-1.84,2.18,22.69,22.69,0,0,0-2,3.69h0a1.61,1.61,0,0,1-.25.42l-11.55,13.4-.07.08L323.31,749.07l6.41,7.11Z" transform="translate(-2.64 -1.58)"/>
<path xmlns="http://www.w3.org/2000/svg" d="M358,732,510.62,578.25l8.7-8.43,2.92-2.84,10.61-10.29,2.18-2.12.29-.27.1-.11a11.64,11.64,0,0,0,2.16-4.14l.06-.23a17.14,17.14,0,0,0,.61-4.33v-.17a16.44,16.44,0,0,0-1.13-6.08,9.09,9.09,0,0,0-3-4,5.69,5.69,0,0,0-.52-.33,4.53,4.53,0,0,0-2.21-.61,4.05,4.05,0,0,0-.7.07,4.53,4.53,0,0,0-1.31.4,8.39,8.39,0,0,0-2.65,2.12,20.21,20.21,0,0,0-2.58,3.89c-.43.82-.73,1.48-.87,1.81l-.27.31-2.45,2.85-8.69,10.07-2.31,2.31-2.26,2.27L373,695l-5.47,5.49L321.3,746.84,320.18,748a1.52,1.52,0,0,0-.05,2.07h0l6.33,7a9.33,9.33,0,0,0-.11-1.14,1,1,0,0,1,.86-1.12h0a1,1,0,0,1,1.12.86,23.71,23.71,0,0,1,.17,2.53v1.09l.08.09h0a1.49,1.49,0,0,0,2.18,0l1-1,20.75-20.92Zm-34.69,17.11L514,557.87l.07-.08,11.59-13.47a1.61,1.61,0,0,0,.25-.42h0a22.69,22.69,0,0,1,2-3.69,10.38,10.38,0,0,1,1.84-2.18,3.59,3.59,0,0,1,.9-.59,1.59,1.59,0,0,1,.71-.18,1.52,1.52,0,0,1,.74.22,5.75,5.75,0,0,1,2.25,2.91,13.43,13.43,0,0,1,.9,4.94,14,14,0,0,1-.54,3.86,8.78,8.78,0,0,1-1.56,3l-24.62,23.88h0L329.72,756.18Z" transform="translate(-2.64 -1.58)"/>
<path xmlns="http://www.w3.org/2000/svg" class="cls-4" d="M97.27,950.56A1,1,0,1,0,96,949h0l-3.18,2.62,1.37,1.46Z" transform="translate(-2.64 -1.58)"/>
<path xmlns="http://www.w3.org/2000/svg" class="cls-4" d="M115.83,934a1,1,0,0,0-1.4-.14l-9.22,7.57a1,1,0,0,0-.13,1.41h0a1,1,0,0,0,1.4.14l9.22-7.58A1,1,0,0,0,115.83,934Z" transform="translate(-2.64 -1.58)"/>
<path xmlns="http://www.w3.org/2000/svg" class="cls-4" d="M307.72,776.28a1,1,0,0,0,1.4.14h0l9.21-7.58a1,1,0,1,0-1.27-1.54h0l-9.21,7.57a1,1,0,0,0-.15,1.41Z" transform="translate(-2.64 -1.58)"/>
<path xmlns="http://www.w3.org/2000/svg" class="cls-4" d="M299.92,784a1,1,0,1,0-1.27-1.55L289.44,790a1,1,0,0,0,1.27,1.55h0Z" transform="translate(-2.64 -1.58)"/>
<path xmlns="http://www.w3.org/2000/svg" class="cls-4" d="M280.23,797.59,271,805.16a1,1,0,1,0,1.26,1.54h0l9.21-7.57a1,1,0,1,0-1.18-1.62l-.09.08Z" transform="translate(-2.64 -1.58)"/>
<path xmlns="http://www.w3.org/2000/svg" class="cls-4" d="M235.44,837l9.21-7.57a1,1,0,1,0-1.27-1.55l-9.21,7.57a1,1,0,0,0,1.27,1.55Z" transform="translate(-2.64 -1.58)"/>
<path xmlns="http://www.w3.org/2000/svg" class="cls-4" d="M206.54,858.16l-9.21,7.61a1,1,0,1,0,1.26,1.54h0l9.21-7.57a1,1,0,1,0-1.18-1.62l-.09.08Z" transform="translate(-2.64 -1.58)"/>
<path xmlns="http://www.w3.org/2000/svg" class="cls-4" d="M225,843l-9.21,7.57a1,1,0,0,0,1.27,1.55l9.21-7.57A1,1,0,1,0,225,843Z" transform="translate(-2.64 -1.58)"/>
<path xmlns="http://www.w3.org/2000/svg" class="cls-4" d="M261.81,812.77l-9.19,7.53a1,1,0,0,0-.13,1.41h0a1,1,0,0,0,1.4.13l9.22-7.57a1,1,0,0,0,0-1.41,1,1,0,0,0-1.31-.13Z" transform="translate(-2.64 -1.58)"/>
<path xmlns="http://www.w3.org/2000/svg" class="cls-4" d="M124.91,927.84l9.21-7.57a1,1,0,1,0-1.18-1.62l-.09.08-9.23,7.57a1,1,0,1,0,1.17,1.62l.1-.08Z" transform="translate(-2.64 -1.58)"/>
<path xmlns="http://www.w3.org/2000/svg" class="cls-4" d="M188.12,873.3l-9.22,7.57a1,1,0,0,0-.13,1.41h0a1,1,0,0,0,1.4.13l9.22-7.57a1,1,0,0,0,0-1.41A1,1,0,0,0,188.12,873.3Z" transform="translate(-2.64 -1.58)"/>
<path xmlns="http://www.w3.org/2000/svg" class="cls-4" d="M143.33,912.7l9.21-7.57a1,1,0,1,0-1.27-1.55l-9.21,7.57a1,1,0,0,0,1.27,1.55Z" transform="translate(-2.64 -1.58)"/>
<path xmlns="http://www.w3.org/2000/svg" class="cls-4" d="M161.75,897.56,171,890a1,1,0,1,0-1.27-1.55L160.48,896a1,1,0,0,0,1.27,1.55Z" transform="translate(-2.64 -1.58)"/>
<path xmlns="http://www.w3.org/2000/svg" class="cls-4" d="M326,761.41a1,1,0,1,0,1.9.64h0a12,12,0,0,0,.53-2.78v-1.09a23.71,23.71,0,0,0-.17-2.53,1,1,0,0,0-2,.25h0c0,.4.09.77.11,1.14s.05.77.05,1.13A10.11,10.11,0,0,1,326,761.41Z" transform="translate(-2.64 -1.58)"/>
<path xmlns="http://www.w3.org/2000/svg" d="M94.19,953.09l-1.37-1.46-52.88-56-1-1a1.5,1.5,0,0,0-2.11-.07h0a1.5,1.5,0,0,0,0,2.11l1.13,1.2,90,95.39,1.08,1.15a1.5,1.5,0,0,0,2.18-2.06l-1-1.07Z" transform="translate(-2.64 -1.58)"/>

<archi xmlns="http://www.w3.org/2000/svg" id="d" name="&#x8BED;&#x4E49;&#x540D;&#x79F0;">
    <content> 
        <type>architecture</type>
        <model>building</model>
        <element>window</element>
    </content>
    <layout>block|outline|2.5D</layout>
    <orientation>left|right|front</orientation>
    <shot>close|medium|long|background|common</shot>
    <boundingrect>
         <ele>0.0024471282958984375,0.004228472709655762,818.0875854492188,1019.6558837890625</ele>
    </boundingrect>
 </archi>

<title>archi_pedestrian1</title>
</g>
</defs>
</svg>
