<?xml version="1.0" encoding="GBK"?>
<svg id="archi_svg_tree9" width="8000" height="8000" viewBox="0 0 8000 8000" xmlns="http://www.w3.org/2000/svg" xmlns:xlink="http://www.w3.org/1999/xlink">
<style xmlns="http://www.w3.org/2000/svg" xmlns:xlink="http://www.w3.org/1999/xlink" type="text/css">use.ic-1 { fill: skyblue; }use.ic-2 { fill:none; stroke:#42C2FF;stroke-width:2}</style><svg id="tree9" xml:space="preserve">
<use class="ic-2" xlink:href="#archi_tree9"/></svg>
<defs>
<g id='archi_tree9'>
<defs xmlns="http://www.w3.org/2000/svg">
    <style>
      .cls-1 {
        
        
        
        fill-rule: evenodd;
      }
    </style>
  </defs>
  
<g xmlns="http://www.w3.org/2000/svg" id="&#x753B;&#x677F;_9" data-name="&#x753B;&#x677F; 9">
    <path id="ÐÎ×´_72" data-name="ÐÎ×´ 72" class="cls-1" d="M13595,9012.47a162.49,162.49,0,0,1,21.5-59.67c14.7-24.1,34.3-40.26,43.8-45.29,17.3-9.07,41.7-16.99,62.5-9.34,16.9,6.2,28.3,27.34,41,25.16,12.9-2.23,22.3-34.12,31.6-46.01,4.6-5.97,16.4-16.42,28.7-25.16,19.4-13.81,40.6-20.89,47.6-21.14,13.1-.48,29.6,6.72,50.8,18.27,13.9,7.59,23.3,13.09,37.3,16.53,18.5,4.53,38.1,2.56,46,1.44,20.5-2.93,43.7-5.84,54.6-5.04,25.3,1.9,61.8,16.44,101.2,57.51,24.4,25.4,37.6,53.71,40.9,67.58a127.209,127.209,0,0,1,2.9,41.69" transform="translate(-13595 -8831)"/>
  </g>

<archi xmlns="http://www.w3.org/2000/svg" id="d" name="&#x8BED;&#x4E49;&#x540D;&#x79F0;">
    <content> 
        <type>architecture</type>
        <model>building</model>
        <element>window</element>
    </content>
    <layout>block|outline|2.5D</layout>
    <orientation>left|right|front</orientation>
    <shot>close|medium|long|background|common</shot>
    <boundingrect>
         <ele>0,-0.001953125,610.98046875,100.0029296875</ele>
    </boundingrect>
 </archi>

<title>archi_tree9</title>
</g>
</defs>
</svg>
