<?xml version="1.0" encoding="GBK"?>
<svg id="archi_svg_北京-06" width="1000" height="1000" viewBox="0 0 1000 1000" xmlns="http://www.w3.org/2000/svg" xmlns:xlink="http://www.w3.org/1999/xlink">
<style xmlns="http://www.w3.org/2000/svg" xmlns:xlink="http://www.w3.org/1999/xlink" type="text/css">use.ic-1 { fill: skyblue; }use.ic-2 { fill:none; stroke:#42C2FF}</style><svg id="北京-06" xml:space="preserve">
<use class="ic-2" xlink:href="#archi_北京-06"/></svg>
<defs>
<g id='archi_北京-06'>
<g xmlns="http://www.w3.org/2000/svg" xmlns:xlink="http://www.w3.org/1999/xlink">
	<path class="st475" d="M4.7,12.9c3.3-2.2,9.2-1.8,19-1c10.2,0.9,18,2.9,18,2.9l0,0.1c-12.6,2.5-24.5,4.6-31.1,4   c-6-0.5-10.3-3.2-6.1-6"/>
	<g>
		<defs>
			<path id="SVGID_509_" d="M4.5,12.8c-3.3,2.2-4.1,5.3-2.6,11.4c1.6,6.3,6.6,19.6,6.6,19.6h124.3c0,0,6.2-25.8,7-31     c0.8-5.2-7.8-12.1-18.4-12.1c-18.5,0-43.9,6.8-61.8,10.5s-39.2,8.6-49.1,7.7c-6-0.5-9.6-4-4.3-6.8C6.1,12.2,5.6,12.2,4.5,12.8z"/>
		</defs>
		<use xlink:href="#SVGID_509_" style="overflow:visible;"/>
		<clipPath id="SVGID_1_">
			<use xlink:href="#SVGID_509_" style="overflow:visible;"/>
		</clipPath>
		<path style="clip-path:url(#SVGID_1_);stroke-width:0.5;stroke-miterlimit:10;" d="M47,46.2    c28.9-15,58.6-29.1,88.9-42.4"/>
		
			<line style="clip-path:url(#SVGID_1_);stroke-width:0.5;stroke-miterlimit:10;" x1="123.2" y1="-0.7" x2="120.7" y2="46.1"/>
		
			<line style="clip-path:url(#SVGID_1_);stroke-width:0.5;stroke-miterlimit:10;" x1="106.5" y1="45.6" x2="106.1" y2="-1.4"/>
		
			<line style="clip-path:url(#SVGID_1_);stroke-width:0.5;stroke-miterlimit:10;" x1="82.7" y1="46.7" x2="83.3" y2="3.7"/>
		
			<line style="clip-path:url(#SVGID_1_);stroke-width:0.5;stroke-miterlimit:10;" x1="59.3" y1="46.8" x2="59.3" y2="7.4"/>
		
			<line style="clip-path:url(#SVGID_1_);stroke-width:0.5;stroke-miterlimit:10;" x1="62.2" y1="7.3" x2="23.9" y2="46"/>
		
			<line style="clip-path:url(#SVGID_1_);stroke-width:0.5;stroke-miterlimit:10;" x1="43" y1="46.2" x2="38.2" y2="14"/>
		
			<line style="clip-path:url(#SVGID_1_);stroke-width:0.5;stroke-miterlimit:10;" x1="25.4" y1="48.3" x2="18.5" y2="6.9"/>
		
			<line style="clip-path:url(#SVGID_1_);stroke-width:0.5;stroke-miterlimit:10;" x1="14.2" y1="48" x2="0.9" y2="10.6"/>
		<path style="clip-path:url(#SVGID_1_);stroke-width:0.5;stroke-miterlimit:10;" d="M2.6,42.4    c13.5-13.5,22.7-20.1,43-28.6"/>
		<path style="clip-path:url(#SVGID_1_);stroke-width:0.5;stroke-miterlimit:10;" d="M57.3,10.2    c0,0,44.4,16.6,67.9,36.5"/>
		<path style="clip-path:url(#SVGID_1_);stroke-width:0.5;stroke-miterlimit:10;" d="M73.7,6.6    c0,0,39.7,12.5,66.1,38.2"/>
		<path style="clip-path:url(#SVGID_1_);stroke-width:0.5;stroke-miterlimit:10;" d="M103.6,1.5    c11.7,0.5,28.1,2.1,34.2,28.4"/>
		
			<line style="clip-path:url(#SVGID_1_);stroke-width:0.5;stroke-miterlimit:10;" x1="115" y1="-1.2" x2="84.2" y2="49"/>
		
			<line style="clip-path:url(#SVGID_1_);stroke-width:0.5;stroke-miterlimit:10;" x1="129.1" y1="0.1" x2="96.4" y2="48.1"/>
		
			<line style="clip-path:url(#SVGID_1_);stroke-width:0.5;stroke-miterlimit:10;" x1="75.1" y1="3.4" x2="55.4" y2="49.1"/>
		
			<line style="clip-path:url(#SVGID_1_);stroke-width:0.5;stroke-miterlimit:10;" x1="24.3" y1="17.4" x2="61.5" y2="49.6"/>
		<path style="clip-path:url(#SVGID_1_);stroke-width:0.5;stroke-miterlimit:10;" d="M30.8,15.5    c2.8,3.7,36.3,19.4,69.2,32.2"/>
		<path style="clip-path:url(#SVGID_1_);stroke-width:0.5;stroke-miterlimit:10;" d="M0.8,16.6    c0,0,12.7,19,47.5,30.2"/>
		<use xlink:href="#SVGID_509_" style="overflow:visible;stroke-width:0.25;stroke-miterlimit:10;"/>
	</g>
</g>

<title>archi_北京-06</title>
</g>
</defs>
</svg>
