<?xml version="1.0" encoding="GBK"?>
<svg id="archi_svg_北京-03" width="8000" height="8000" viewBox="0 0 8000 8000" xmlns="http://www.w3.org/2000/svg" xmlns:xlink="http://www.w3.org/1999/xlink">
<style xmlns="http://www.w3.org/2000/svg" xmlns:xlink="http://www.w3.org/1999/xlink" type="text/css">use.ic-1 { fill: skyblue; }use.ic-2 { fill:none; stroke:#42C2FF;stroke-width:2}</style><svg id="北京-03" xml:space="preserve">
<use class="ic-2" xlink:href="#archi_北京-03"/></svg>
<defs>
<g id='archi_北京-03'>
<g xmlns="http://www.w3.org/2000/svg" xmlns:xlink="http://www.w3.org/1999/xlink">
	<g>
		<path class="st486" d="M28.6,31.5c-1.9,0-3.2-0.6-3.6-0.8l0.2-0.7c0,0,0,0,0,0c0.1,0,6.1-3.1,7.7-3.5c0.5-0.1,0.8-0.4,1-0.7    c0.3-0.6,0.2-1.3,0.1-1.6l0.5-0.3l0.6,0.6L34.9,26l-1.9,1.3l0,0.1c0,0,0.5,1-0.1,2.1C32.3,30.4,30.9,31.5,28.6,31.5z"/>
		<path class="st487" d="M34.6,24l0.5,0.5l-0.3,1.4L33,27.1l-0.2,0.1l0.1,0.2c0,0,0.4,0.9-0.1,1.9c-0.5,1-1.9,2-4.2,2    c-1.7,0-3-0.5-3.4-0.8l0.2-0.5c0.8-0.4,6.1-3.2,7.6-3.5c0.5-0.1,0.9-0.4,1.1-0.8c0.3-0.6,0.2-1.2,0.1-1.6L34.6,24 M34.6,23.7    L33.9,24c0,0,0.6,1.9-1,2.3c-1.7,0.4-7.8,3.6-7.8,3.6l-0.2,0.8c0,0,1.5,0.9,3.7,0.9s3.7-1,4.4-2.1c0.6-1.1,0.1-2.2,0.1-2.2L35,26    l0.4-1.6L34.6,23.7L34.6,23.7z"/>
	</g>
	<g>
		<path class="st486" d="M29.2,30.9c-1.4,0-2.8-0.4-3.9-1.1l-0.2-7c0.3,0.3,0.9,0.8,1.1,1l0.1,0.1l0.1,0c0,0,0.4-0.1,0.8-0.1    c0.2,0,0.3,0,0.4,0.1c0.3,0.3,1.1,1.2,1.1,1.2l0.1,0.1l0.1-0.1c0,0,0.3-0.4,0.8-0.4c0.3,0,0.6,0.2,0.9,0.5l0.1,0.1l0.1,0    c0.6-0.3,1.1-0.4,1.6-0.4c0.5,0,0.8,0.1,1.1,0.4c0.3,0.3,0.6,0.4,0.8,0.4c0.5,0,0.8-0.3,0.8-0.8c0-0.4-0.1-0.7-0.2-0.9    c0.4,0.2,1,0.6,0.9,1.4c0,0,0.1,1.1-0.5,1.8c-0.3,0.3-0.7,0.5-1.2,0.5h-0.2l0.1,0.2c0,0,0.3,0.4,0.1,0.9c-0.1,0.3-0.5,0.6-1.1,0.8    C32.1,30.4,30.8,30.9,29.2,30.9z"/>
		<path class="st487" d="M25.2,23.1c0.3,0.3,0.7,0.6,0.9,0.8l0.1,0.1l0.1,0c0,0,0.4-0.1,0.8-0.1c0.2,0,0.3,0.1,0.3,0.1    c0.3,0.3,1.1,1.2,1.1,1.2l0.2,0.2l0.2-0.2c0,0,0.3-0.3,0.7-0.3c0.3,0,0.6,0.1,0.8,0.4l0.1,0.1l0.2-0.1c0.5-0.3,1.1-0.4,1.5-0.4    c0.4,0,0.8,0.1,1,0.4c0.3,0.3,0.6,0.4,0.9,0.4c0.5,0,0.9-0.4,0.9-0.9c0-0.2,0-0.4-0.1-0.6c0.3,0.2,0.6,0.6,0.5,1.1l0,0l0,0    c0,0,0.1,1-0.5,1.6c-0.3,0.3-0.6,0.4-1.1,0.4l-0.4,0l0.2,0.4c0,0,0.2,0.4,0.1,0.7c-0.1,0.3-0.5,0.5-1,0.7l-0.1,0l0,0.1    c-0.7,0.9-2,1.4-3.6,1.4c-1.3,0-2.7-0.4-3.8-1L25.2,23.1 M24.9,22.6l0.2,7.3c1.2,0.8,2.7,1.1,4,1.1c1.6,0,3-0.5,3.8-1.5    c1.9-0.5,1.1-1.8,1.1-1.8c2,0,1.8-2.3,1.8-2.3c0.2-1.2-1.2-1.7-1.2-1.7s0.3,0.5,0.3,1.1c0,0.4-0.3,0.7-0.7,0.7    c-0.2,0-0.5-0.1-0.8-0.4c-0.3-0.3-0.7-0.4-1.2-0.4c-0.5,0-1.1,0.2-1.7,0.4c-0.4-0.4-0.7-0.5-1-0.5c-0.5,0-0.9,0.4-0.9,0.4    s-0.7-0.9-1.1-1.2c-0.1-0.1-0.3-0.2-0.5-0.2c-0.4,0-0.9,0.2-0.9,0.2C25.9,23.4,24.9,22.6,24.9,22.6L24.9,22.6z"/>
	</g>
	<g>
		<path class="st486" d="M16.7,8c0.1-0.7,0.6-4,1.7-5.1c0-0.4,0.1-1.1,0.3-1.2l0.1,0c0.1,0,0.1,0,0.2,0c0.4,0,0.6-0.3,0.7-0.5    c0.1-0.2,0.2-0.3,0.3-0.3c0.1,0,0.2,0,0.2,0c0.2,0,0.3,0.1,0.5,0.1C20.8,1,21,1.1,21.2,1.1c0.1,0,0.2,0,0.4,0l0.9-0.1    c0,0,0.8,0.3,0.9,0.8c0,0.2-0.3,0.5-0.6,0.7C22.4,2.8,22,3.2,22,3.6c0,0.5,0.1,0.6,0.2,0.8c0.1,0.1,0.2,0.2,0.3,0.6    c0.1,0.3,0,1.3-0.1,1.9l0,0.4c0,0.2,0,0.3,0.1,0.4L16.7,8z"/>
		<path class="st487" d="M20.2,1c0.2,0,0.3,0,0.4,0.1c0.2,0.1,0.4,0.1,0.6,0.1c0.1,0,0.3,0,0.4,0l0.9-0.1c0.2,0.1,0.7,0.3,0.8,0.7    c0,0.2-0.3,0.4-0.5,0.6c-0.4,0.3-0.9,0.7-0.9,1.3c0,0.5,0.1,0.7,0.3,0.9c0.1,0.1,0.2,0.2,0.2,0.5c0.1,0.3,0,1.3-0.1,1.9l0,0.4    c0,0.1,0,0.2,0,0.3l-5.5,0.2C16.9,6.9,17.4,4,18.4,3l0.1-0.1l0-0.1c0-0.5,0.1-1,0.2-1.1c0.1,0,0.2,0,0.2,0c0.5,0,0.7-0.3,0.8-0.5    C19.8,1.1,19.9,1,19.9,1C20,1,20.1,1,20.2,1 M20.2,0.7c-0.1,0-0.2,0-0.3,0c-0.4,0.1-0.4,0.8-1,0.8c-0.1,0-0.1,0-0.2,0    c0,0,0,0-0.1,0c-0.5,0-0.4,1.3-0.4,1.3C17,4,16.5,8.1,16.5,8.1l6.3-0.2c0,0-0.3-0.1-0.2-0.5c0-0.6,0.2-1.9,0.1-2.4    c-0.2-0.8-0.5-0.5-0.5-1.3c0-0.8,1.4-1.3,1.4-1.9c-0.1-0.6-1-0.9-1-0.9l-1,0.1c-0.1,0-0.2,0-0.3,0C20.8,1,20.6,0.7,20.2,0.7    L20.2,0.7z"/>
	</g>
	<g>
		<ellipse class="st486" cx="19.8" cy="12.3" rx="7.1" ry="5.2"/>
		<path class="st487" d="M19.8,7.3c3.8,0,6.9,2.3,6.9,5s-3.1,5-6.9,5c-3.8,0-6.9-2.3-6.9-5S16,7.3,19.8,7.3 M19.8,7    c-4,0-7.2,2.4-7.2,5.3c0,2.9,3.2,5.3,7.2,5.3s7.2-2.4,7.2-5.3C27,9.4,23.8,7,19.8,7L19.8,7z"/>
	</g>
	<g>
		<path class="st486" d="M19.8,20.1c-3.9,0-7.1-2.3-7.1-5.2s3.2-5.2,7.1-5.2s7.1,2.3,7.1,5.2S23.7,20.1,19.8,20.1z"/>
		<path class="st487" d="M19.8,9.9c3.8,0,6.9,2.3,6.9,5s-3.1,5-6.9,5c-3.8,0-6.9-2.3-6.9-5S16,9.9,19.8,9.9 M19.8,9.7    c-4,0-7.2,2.4-7.2,5.3s3.2,5.3,7.2,5.3S27,17.9,27,15S23.8,9.7,19.8,9.7L19.8,9.7z"/>
	</g>
	<g>
		<ellipse class="st486" cx="19.8" cy="16.5" rx="7.1" ry="5.2"/>
		<path class="st487" d="M19.8,11.5c3.8,0,6.9,2.3,6.9,5c0,2.8-3.1,5-6.9,5c-3.8,0-6.9-2.3-6.9-5C12.8,13.8,16,11.5,19.8,11.5     M19.8,11.2c-4,0-7.2,2.4-7.2,5.3s3.2,5.3,7.2,5.3s7.2-2.4,7.2-5.3S23.8,11.2,19.8,11.2L19.8,11.2z"/>
	</g>
	<path class="st475" d="M25.6,29.9v70.4H14V26c0,0,0-8,0-9.8s2.6-3.2,5.4-3.2c2.8,0,5.8,1.3,5.8,3.6C25.2,19,25.6,29.9,25.6,29.9"/>
	<g>
		<path class="st486" d="M14.6,25.5c-0.6,0-1.7-0.5-3.7-1.4c-3.4-1.5-4.5-4.3-4.5-4.3l0-0.1l-0.1,0c-3.9-0.8-3.8-4.1-3.8-4.2l0-0.2    l-0.2,0.1c0,0-0.1,0-0.3,0c-0.3,0-1-0.1-1.6-1.1c-0.9-1.4,0-2.4,0-2.4l0.1-0.1l-0.1-0.1c-1.1-1.8,0.1-3.2,0.1-3.2l0.1-0.1l0-0.1    C0.4,7.8,0.4,7.3,0.7,6.9c0.3-0.4,0.8-0.7,1.6-0.7c0.6,0,1.4,0.2,2.2,0.5c3.2,1.2,3.1,4.6,3.1,4.6l0,0.1c0,0,0.1,0,0.1,0    c0.1,0,1,0,2.6,1c1.7,1,2.3,3.5,2.3,3.5l0,0.1l0.1,0c1.9,0.2,2.7,2.1,2.7,2.1c0.1,1.7,0.3,6.3,0,7C15.1,25.4,14.9,25.5,14.6,25.5    L14.6,25.5z"/>
		<path class="st487" d="M2.2,6.3c0.6,0,1.3,0.2,2.1,0.5c3.1,1.2,3,4.4,3,4.5l0,0.3h0.3c0.1,0,1,0,2.6,1c1.7,1,2.2,3.4,2.2,3.4    l0,0.2l0.2,0c1.7,0.2,2.4,1.7,2.5,2c0.1,2.4,0.2,6.4,0,6.9c-0.1,0.2-0.2,0.3-0.5,0.3c-0.6,0-1.7-0.5-3.7-1.4    c-3.3-1.5-4.4-4.2-4.4-4.3l0-0.1l-0.1,0c-3.8-0.8-3.7-3.9-3.7-4l0-0.4l-0.3,0.1c0,0-0.1,0-0.2,0c-0.3,0-0.9-0.1-1.4-1.1    c-0.8-1.3,0-2.2,0-2.3l0.1-0.1l-0.1-0.2c-1.1-1.7,0-3,0.1-3.1l0.1-0.1L0.8,8.3C0.6,7.8,0.5,7.3,0.8,7C1,6.6,1.5,6.3,2.2,6.3     M2.2,6.1C0.6,6.1,0,7.2,0.6,8.5c0,0-1.3,1.4-0.1,3.4c0,0-1,1,0,2.6c0.6,1,1.3,1.2,1.7,1.2c0.2,0,0.3,0,0.3,0S2.3,19,6.3,19.8    c0,0,1.1,2.8,4.5,4.4c2.1,1,3.2,1.4,3.8,1.4c0.4,0,0.6-0.2,0.7-0.5c0.4-0.8,0-7.1,0-7.1s-0.7-1.9-2.8-2.2c0,0-0.5-2.6-2.3-3.6    c-1.6-0.9-2.5-1-2.7-1c0,0,0,0,0,0s0.1-3.5-3.2-4.7C3.6,6.2,2.8,6.1,2.2,6.1L2.2,6.1z"/>
	</g>
	<g>
		<path class="st486" d="M15.6,25.2c-0.6,0-1.7-0.5-3.7-1.4c-3.4-1.5-4.5-4.3-4.5-4.3l0-0.1l-0.1,0c-3.9-0.8-3.8-4.1-3.8-4.2l0-0.2    l-0.2,0.1c0,0-0.1,0-0.3,0c-0.3,0-1-0.1-1.6-1.1c-0.9-1.4,0-2.4,0-2.4l0.1-0.1l-0.1-0.1C0.4,9.7,1.6,8.3,1.6,8.3l0.1-0.1l0-0.1    C1.4,7.6,1.3,7,1.6,6.6C1.9,6.2,2.4,6,3.2,6c0.6,0,1.4,0.2,2.2,0.5c3.2,1.2,3.1,4.6,3.1,4.6l0,0.1c0,0,0.1,0,0.1,0    c0.1,0,1,0,2.6,1c1.7,1,2.3,3.5,2.3,3.5l0,0.1l0.1,0c1.9,0.2,2.7,2.1,2.7,2.1c0.1,1.7,0.3,6.3,0,7C16,25.1,15.9,25.2,15.6,25.2    L15.6,25.2z"/>
		<path class="st487" d="M3.2,6.1c0.6,0,1.3,0.2,2.1,0.5c3.1,1.2,3,4.4,3,4.5l0,0.3h0.3c0.1,0,1,0,2.6,1c1.7,1,2.2,3.4,2.2,3.4    l0,0.2l0.2,0c1.7,0.2,2.4,1.7,2.5,2c0.1,2.4,0.2,6.4,0,6.9c-0.1,0.2-0.2,0.3-0.5,0.3c-0.6,0-1.7-0.5-3.7-1.4    c-3.3-1.5-4.4-4.2-4.4-4.3l0-0.1l-0.1,0c-3.8-0.8-3.7-3.9-3.7-4l0-0.4L3.3,15c0,0-0.1,0-0.2,0c-0.3,0-0.9-0.1-1.4-1.1    c-0.8-1.3,0-2.2,0-2.3l0.1-0.1l-0.1-0.2c-1.1-1.7,0-3,0.1-3.1l0.1-0.1L1.8,8.1c-0.3-0.5-0.3-1-0.1-1.4C1.9,6.3,2.5,6.1,3.2,6.1     M3.2,5.8C1.5,5.8,0.9,7,1.5,8.2c0,0-1.3,1.4-0.1,3.4c0,0-1,1,0,2.6c0.6,1,1.3,1.2,1.7,1.2c0.2,0,0.3,0,0.3,0s-0.1,3.5,3.9,4.3    c0,0,1.1,2.8,4.5,4.4c2.1,1,3.2,1.4,3.8,1.4c0.4,0,0.6-0.2,0.7-0.5c0.4-0.8,0-7.1,0-7.1s-0.7-1.9-2.8-2.2c0,0-0.5-2.6-2.3-3.6    c-1.6-0.9-2.5-1-2.7-1c0,0,0,0,0,0s0.1-3.5-3.2-4.7C4.5,6,3.8,5.8,3.2,5.8L3.2,5.8z"/>
	</g>
</g>

<title>archi_北京-03</title>
</g>
</defs>
<archi id="d" name="语义名称">
    <content> 
        <type>architecture</type>
        <model>building</model>
        <element>window</element>
    </content>
    <layout>block|outline|2.5D</layout>
    <orientation>left|right|front</orientation>
    <shot>close|medium|long|background|common</shot>
    <boundingrect>
         <ele>-0.06424421072006226,0.699999988079071,35.8838005065918,99.5999984741211</ele>
    </boundingrect>
 </archi>
</svg>
