<?xml version="1.0" encoding="GBK"?>
<svg id="archi_svg_北京-02" width="1000" height="1000" viewBox="0 0 1000 1000" xmlns="http://www.w3.org/2000/svg" xmlns:xlink="http://www.w3.org/1999/xlink">
<style xmlns="http://www.w3.org/2000/svg" xmlns:xlink="http://www.w3.org/1999/xlink" type="text/css">use.ic-1 { fill: skyblue; }use.ic-2 { fill:none; stroke:#42C2FF}</style><svg id="北京-02" xml:space="preserve">
<use class="ic-2" xlink:href="#archi_北京-02"/></svg>
<defs>
<g id='archi_北京-02'>
<g xmlns="http://www.w3.org/2000/svg" xmlns:xlink="http://www.w3.org/1999/xlink">
	<g>
		<defs>
			<polygon id="SVGID_519_" points="7.1,45 93.1,0.7 93.1,68.7 2.4,68.7    "/>
		</defs>
		<use xlink:href="#SVGID_519_" style="overflow:visible;"/>
		<clipPath id="SVGID_1_">
			<use xlink:href="#SVGID_519_" style="overflow:visible;"/>
		</clipPath>
		<g style="clip-path:url(#SVGID_1_);">
			<polygon class="st475" points="29.9,39.5 23.8,46.8 22.1,61.5 25.8,69.3 34.4,60.9 36.3,47    "/>
			<polygon class="st475" points="19.4,44.4 15.1,53.8 17.1,66.3 22.1,61.5 23.8,46.8    "/>
			<polygon class="st475" points="40.2,42.9 36.3,47 35.2,54.7 41.6,58.9 42.7,55.6    "/>
			<polygon class="st475" points="22.1,61.5 17.1,66.3 17.9,80.8 25.4,76.7 25.8,69.3    "/>
			<polygon class="st475" points="34.4,60.9 25.8,69.3 25.4,76.7 28,82.2 37.8,82 40.3,74 39.7,64.8    "/>
			<polygon class="st475" points="42.7,55.6 39.7,64.8 40.3,74 45.8,81.4 55.7,65.6 54,53.3    "/>
			<polygon class="st475" points="29.9,39.5 36.3,47 40.2,42.9 43.6,34.4 40.6,20.9 32.1,29.1    "/>
			<polygon class="st475" points="42.7,55.6 40.2,42.9 43.6,34.4 52,26.1 58.7,39.2 54,53.3    "/>
			<polygon class="st475" points="34.4,60.9 35.2,54.7 41.6,58.9 39.7,64.8    "/>
			<polygon class="st475" points="65.3,35 58.7,39.2 54,53.3 55.7,65.6 64,69.8 71.6,55.3    "/>
			<polygon class="st475" points="52.2,18.5 52,26.1 58.7,39.2 65.3,35 70.9,18.8 69.3,9.3 62.8,7.3    "/>
			<polygon class="st475" points="70.9,18.8 79.4,23.1 79.6,28.8 65.3,35    "/>
			<polygon class="st475" points="65.3,35 79.6,28.8 83.5,39.1 76.5,54.1 71.6,55.3    "/>
			<polygon class="st475" points="83.5,39.1 76.5,54.1 81,56.5    "/>
			<polygon class="st475" points="83.5,39.1 81,56.5 86.8,68.7 93.1,65.4 93.1,36.4    "/>
			<polygon class="st475" points="86.8,68.7 93.1,65.4 93.1,70.3 87.4,70.4    "/>
			<polygon class="st475" points="79.4,23.1 90.2,4.8 93.1,4.3 93.1,36.4 83.5,39.1 79.6,28.8    "/>
			<polygon class="st475" points="71.6,55.3 76.5,54.1 81,56.5 86.8,68.7 75.7,68.7 68.2,61.9    "/>
			<polygon class="st475" points="55.7,65.6 53,70 62.3,70.9 63.2,69.4    "/>
			<polygon class="st475" points="68.2,61.9 64,69.8 68.5,71.9 75.7,68.7    "/>
			<polygon class="st475" points="70.9,18.8 79.4,23.1 84.9,13.7 82,3.1 72.9,1.4 69.9,7.1 69.7,13    "/>
			<polygon class="st475" points="89.1,-0.1 90.2,4.8 84.9,13.7 82,3.1    "/>
			<polygon class="st475" points="89.1,-0.1 90.2,4.8 93.1,4.3 92.9,-1.1    "/>
			<polygon class="st475" points="41,25 43.6,34.4 52,26.1 52.2,19.1    "/>
			<polygon class="st475" points="28.5,22.2 25.4,20.8 19.3,32.7 19.4,44.4 23.8,46.8 29.9,39.5 32.1,29.1    "/>
			<polygon class="st475" points="9.5,54.7 15.1,53.8 19.4,44.4 19.3,32.7 15.7,31.8 8.5,44.4    "/>
			<polygon class="st475" points="15.1,53.8 17.1,66.3 9.5,73.7 7.1,66.5 7.7,60.7 9.5,54.7    "/>
			<polygon class="st475" points="8.5,44.4 9.5,54.7 8,59.8 3.7,62.3 5.6,44.6 8,42.8    "/>
			<polygon class="st475" points="8,59.8 3.7,62.3 2.3,64.8 7.1,66.5    "/>
			<polygon class="st475" points="9.5,71.2 7.1,66.5 1.5,64.9 0,70    "/>
			<polygon class="st475" points="8.8,82 9.5,73.7 17.1,66.3 17.9,80.8    "/>
		</g>
		<use xlink:href="#SVGID_519_" style="overflow:visible;stroke-width:0.25;stroke-miterlimit:10;"/>
	</g>
	<g>
		<defs>
			<polygon id="SVGID_521_" points="177.5,45 93.1,0.7 93.1,68.7 182.1,68.7    "/>
		</defs>
		<use xlink:href="#SVGID_521_" style="overflow:visible;"/>
		<clipPath id="SVGID_2_">
			<use xlink:href="#SVGID_521_" style="overflow:visible;"/>
		</clipPath>
		<g style="clip-path:url(#SVGID_2_);">
			<polygon class="st475" points="104.6,15.6 114.4,6.1 99.9,-3.4 92.2,-2.3 93.1,4.3    "/>
			<polygon class="st475" points="111.6,16.8 113.3,9.9 111.6,8.9 104.6,15.6    "/>
			<polygon class="st475" points="111.6,16.8 112.9,20.1 125.5,14.2 113.2,8.4    "/>
			<polygon class="st475" points="149,36.4 141.6,39.8 139.1,55.8 144.1,66 153.4,59.7 155.2,47.4    "/>
			<polygon class="st475" points="135.3,33.3 127.6,41.6 131.2,59.6 139.1,55.8 141.6,39.8    "/>
			<polygon class="st475" points="158.4,45.6 155.2,47.4 154.2,54.1 159.4,60 160.2,57.4    "/>
			<polygon class="st475" points="139.1,55.8 131.2,59.6 132.4,78.5 143.4,74.1 144.1,66    "/>
			<polygon class="st475" points="153.4,59.7 144.1,66 143.4,74.1 146.6,80 156.3,79.7 158.3,72.7 157.9,64.6    "/>
			<polygon class="st475" points="160.2,57.4 157.9,64.6 158.3,72.7 162.2,79.2 168.3,67.8 167.4,58.7    "/>
			<polygon class="st475" points="149,36.4 155.2,47.4 158.4,45.6 161,40.1 158.9,26.9 151.3,27.6    "/>
			<polygon class="st475" points="160.2,57.4 158.4,45.6 161,40.1 166.4,38 169.9,50.1 167.4,58.7    "/>
			<polygon class="st475" points="153.4,59.7 154.2,54.1 159.4,60 157.9,64.6    "/>
			<polygon class="st475" points="172.9,49.4 169.9,50.1 167.4,58.7 168.3,67.8 172.2,71.6 175.3,63.4    "/>
			<polygon class="st475" points="166.6,32.4 166.4,38 169.9,50.1 172.9,49.4 175.2,41.3 174.6,34.9 171.9,30.4    "/>
			<polygon class="st475" points="175.2,41.3 178.1,46.6 178.1,49.8 172.9,49.4    "/>
			<polygon class="st475" points="172.9,49.4 178.1,49.8 179.3,56.4 177,63.4 175.3,63.4    "/>
			<polygon class="st475" points="179.3,56.4 177,63.4 178.5,65.4    "/>
			<polygon class="st475" points="179.3,56.4 178.5,65.4 180.1,72.4 181.8,71.1 181.9,56.8    "/>
			<polygon class="st475" points="178.1,46.6 181.3,40.3 182,40.9 181.9,56.8 179.3,56.4 178.1,49.8    "/>
			<polygon class="st475" points="175.3,63.4 177,63.4 178.5,65.4 180.1,72.4 176.7,71.8 173.9,67    "/>
			<polygon class="st475" points="168.3,67.8 166.7,70.7 171.4,72.2 171.8,71.2    "/>
			<polygon class="st475" points="173.9,67 172.2,71.6 174,73.2 176.7,71.8    "/>
			<polygon class="st475" points="175.2,41.3 178.1,46.6 179.8,43.2 179,36.5 176,31.7 174.9,33.8 174.8,37.3    "/>
			<polygon class="st475" points="181,37.4 181.3,40.3 179.8,43.2 179,36.5    "/>
			<polygon class="st475" points="181,37.4 181.3,40.3 182,40.9 182,38.2    "/>
			<polygon class="st475" points="159.2,30.7 161,40.1 166.4,38 166.5,32.8    "/>
			<polygon class="st475" points="147.6,17.2 143.9,12.1 135.1,18.7 135.3,33.3 141.6,39.8 149,36.4 151.3,27.6    "/>
			<polygon class="st475" points="115.2,37.6 127.6,41.6 135.3,33.3 135.1,18.7 129,12.6 112.9,20.1    "/>
			<polygon class="st475" points="127.6,41.6 131.2,59.6 115,67.4 108.8,54.6 110.6,45.6 115.2,37.6    "/>
			<polygon class="st475" points="112.9,20.1 115.2,37.6 111.3,44.4 99.2,44.6 99.1,39.9 104.6,15.6 111.6,16.8    "/>
			<polygon class="st475" points="93.1,36.4 99.1,39.9 104.6,15.6 93.1,4.3    "/>
			<polygon class="st475" points="93.1,36.4 99.1,39.9 99.2,44.6 97.9,52.2 93.1,65.4    "/>
			<polygon class="st475" points="111.3,44.4 99.2,44.6 97.9,52.2 108.8,54.6    "/>
			<polygon class="st475" points="113.6,63.7 108.8,54.6 97.9,52.2 93.1,65.4    "/>
			<polygon class="st475" points="93.1,65.4 113.6,63.7 115,67.4 114.6,70.7 92.8,70.3    "/>
			<polygon class="st475" points="113.3,80.4 115,67.4 131.2,59.6 132.4,78.5    "/>
		</g>
		<use xlink:href="#SVGID_521_" style="overflow:visible;stroke-width:0.25;stroke-miterlimit:10;"/>
	</g>
	<rect x="11.8" y="62.4" class="st475" width="2.7" height="6.2"/>
	<polygon class="st475" points="1,68.7 1.6,63.9 11.8,62.4 11.8,68.7  "/>
	<polygon class="st475" points="1.9,68.7 2.3,64.8 11.1,63.9 11.1,68.7  "/>
	<polygon class="st475" points="103.5,68.7 103.5,54.8 106.9,54.6 106.9,68.7  "/>
	<polygon class="st475" points="175.3,68.7 175.3,61.1 106.9,54.6 106.9,68.7  "/>
	<polygon class="st475" points="173,68.7 173,63.7 110.3,60 110.3,68.7  "/>
</g>

<title>archi_北京-02</title>
</g>
</defs>
<archi id="d" name="语义名称">
    <content> 
        <type>architecture</type>
        <model>building</model>
        <element>window</element>
    </content>
    <layout>block|outline|2.5D</layout>
    <orientation>left|right|front</orientation>
    <shot>close|medium|long|background|common</shot>
    <boundingrect>
         <ele>0,-3.4,182.1,85.5999</ele>
    </boundingrect>
 </archi>
</svg>
