<?xml version="1.0" encoding="GBK"?>
<svg id="archi_svg_山脉" width="1000" height="1000" viewBox="0 0 1000 1000" xmlns="http://www.w3.org/2000/svg" xmlns:xlink="http://www.w3.org/1999/xlink">
<style xmlns="http://www.w3.org/2000/svg" xmlns:xlink="http://www.w3.org/1999/xlink" type="text/css">use.ic-1 { fill: skyblue; }use.ic-2 { fill:none; stroke:#42C2FF;stroke-width:2}</style><svg id="山脉" xml:space="preserve">
<use class="ic-2" xlink:href="#archi_山脉"/></svg>
<defs>
<g id='archi_山脉'>
<g xmlns="http://www.w3.org/2000/svg">
  <path d="m3.5,215.8c1,0 2,0 3,0c1,0 1,0 2,0c3,0 13.22191,-3.68564 19,-8c6.25817,-4.67282 12.73325,-10.23274 18,-16c6.67561,-7.31001 13.33269,-12.72829 22,-20c9.35131,-7.84557 16,-13 22,-19c9,-9 19.13123,-22.52049 26,-33c6.25029,-9.53593 12,-14 16,-17c4,-3 4.87605,-5.34315 10,-7c3.92311,-1.26855 6,-1 10,-1c2,0 6.03874,-0.48055 9,0c3.12144,0.50654 8.07278,1.8819 13,5c6.09346,3.85613 10.80803,9.82312 20,17c4.45877,3.4813 8.67122,8.2126 12,13c3.65543,5.25717 7.72961,8.22885 12,13c2.82951,3.16132 7.37134,8.74675 10,13c2.35114,3.80423 4.45049,7.45049 7,10c2.54951,2.54951 5.31001,4.33749 8,6c3.60901,2.23048 4.39099,5.76952 8,8c2.68999,1.66251 5.05165,3.35927 9,4c3.12143,0.50655 8.00967,1.31068 13,1c8.04669,-0.50096 15.12369,-3.80287 20,-7c7.19394,-4.71669 12.92578,-10.49756 18,-11c0.99515,-0.09854 4,-1 5,-1c1,0 4.13202,0.75531 8,3c3.11847,1.80972 7.24591,4.84314 11,11c5.35989,8.79044 13.43625,17.43967 20,23c2.15814,1.82823 5,5 8,8c1,1 3.85272,3.1731 5,4c1.814,1.30745 3.797,2.2565 5,3c2.69,1.66251 5.02582,1.67964 7,2c3.12143,0.50655 4,1 8,2l1,1l1,1l1,0" id="svg_7" fill-opacity="null" stroke-opacity="null" stroke-width="1.5"  />
   <path d="m351.5,203.8c0,0 1,0 2,0c1,0 2,0 2,0c1,0 2,0 3,0c1,0 4,0 5,0c0,0 3,0 5,0c3,0 5,-1 7,-2c4,-2 6.797,-3.2565 8,-4c2.69,-1.66251 6.0979,-2.82443 8,-4c2.55194,-1.57719 4.52017,-2.32367 6,-4c2.38617,-2.703 3.48691,-2.08052 6,-4c2.86536,-2.18855 2.87766,-4.06601 4,-6c1.80972,-3.11848 2.60693,-5.81824 6,-10c2.27176,-2.79984 3.38687,-4.9176 6,-6c0.92389,-0.38269 1.61731,-3.07613 2,-4c1.0824,-2.61313 2.48691,-3.08052 5,-5c2.86536,-2.18855 4.4588,-4.69344 5,-6c0.38269,-0.92387 1.07611,-0.61731 2,-1c1.30655,-0.5412 2,-2 2,-2c1,-1 2,-1 3,-1c1,0 3,0 5,0c3,0 4,0 5,0c1,0 2,0 3,0c0,0 2.07611,0.61731 3,1c1.30655,0.5412 4,2 5,2c2,0 3,1 4,1c2,0 2.61731,0.07613 3,1c0.5412,1.30656 2.29291,1.29289 3,2c0.70709,0.70711 1.69345,1.4588 3,2c0.92389,0.38269 2.4588,-0.30656 3,1c0.38269,0.92387 1,1 1,1c2,2 4.1731,2.85274 5,4c1.30746,1.814 1.29291,3.29289 2,4c1.41422,1.41422 2.41885,0.41885 4,2c1.58115,1.58115 2,3 4,5c1,1 2.69254,4.186 4,6c1.65381,2.29454 3.69254,4.186 5,6c0.8269,1.14726 1.29291,1.29289 2,2c0.70709,0.70711 2.82443,-0.90211 4,1c0.52573,0.85065 1,2 1,2c1,1 2.1731,0.85274 3,2c1.30746,1.814 2.8244,1.09789 4,3c0.52576,0.85065 0.29291,2.29289 1,3c0.70709,0.70711 1.69342,0.4588 3,1c0.92389,0.38269 0.29291,0.29289 1,1c0.70709,0.70711 1.29291,1.29289 2,2c1.41418,1.41422 2,0 3,0c1,0 2.85272,1.1731 4,2c1.81396,1.30745 3,2 4,2c1,0 2.29291,-0.70711 3,0c0.70709,0.70711 0.69342,1.4588 2,2c0.92389,0.38269 3.29291,-0.70711 4,0c0.70709,0.70711 1,1 2,1c0,0 1,0 2,0c1,0 2,0 2,0c1,0 2,0 4,0c0,0 1,0 2,0c1,0 2,0 2,0l1,0l1,0" id="svg_13" fill-opacity="null" stroke-opacity="null" stroke-width="1.5"  />
  </g>

<title>archi_山脉</title>
</g>
</defs>
</svg>
