<?xml version="1.0" encoding="GBK"?>
<svg id="archi_svg_É½Âö1" width="8000" height="8000" viewBox="0 0 8000 8000" xmlns="http://www.w3.org/2000/svg" xmlns:xlink="http://www.w3.org/1999/xlink">
<style xmlns="http://www.w3.org/2000/svg" xmlns:xlink="http://www.w3.org/1999/xlink" type="text/css">use.ic-1 { fill: skyblue; }use.ic-2 { fill:none; stroke:#42C2FF;stroke-width:2}</style><svg id="É½Âö1" xml:space="preserve">
<use class="ic-2" xlink:href="#archi_É½Âö1"/></svg>
<defs>
<g id='archi_É½Âö1'>
<defs xmlns="http://www.w3.org/2000/svg">
    <style>
      .cls-1 {
        
        
        
        fill-rule: evenodd;
      }
    </style>
  </defs>
  
<g xmlns="http://www.w3.org/2000/svg" id="&#x753B;&#x677F;_3" data-name="&#x753B;&#x677F; 3">
    <path id="ÐÎ×´_69_¿½±´" data-name="ÐÎ×´ 69 ¿½±´" class="cls-1" d="M6128.29,6858.42c174.37,36.49,350.28,43.28,523.71,18.58,62.45-8.89,119.26-20.47,171-35,197.92-55.57,317.44-147.97,509-263,205.96-123.67,353.76-181.48,458-157,111.53,26.19,176.63,126.43,311.7,135.75,37.22,2.57,139.62-23.45,239.96-75.17,63.64-32.8,101.77-72.81,161.34-96.58,211.74-84.48,442.11,77.55,687,197,74.08,36.14,292.16,111.04,458,168,166.13,57.06,329.97,106.86,497,151" transform="translate(-6291 -6347)"/>
    <path id="ÐÎ×´_70_¿½±´" data-name="ÐÎ×´ 70 ¿½±´" class="cls-1" d="M9803,6767a318.39,318.39,0,0,1,37-65c17.21-23.34,43.61-49.42,78-75,54.3-40.4,105.7-66.22,148-80,43-13.98,76-16.55,119-22,79.1-10.03,115.5-43.4,195-46,143.2-4.69,226.3,95.12,398,182,54.5,27.59,177.4,69.82,285,102,45.6,13.63,106.6,27.61,182.1,21.15A448.046,448.046,0,0,0,11321,6771a583.127,583.127,0,0,1,355,60" transform="translate(-6291 -6347)"/>
  </g>

<title>archi_É½Âö1</title>
</g>
</defs>
</svg>
