<?xml version="1.0" encoding="GBK"?>
<svg id="archi_svg_飞机小船-03" width="8000" height="8000" viewBox="0 0 8000 8000" xmlns="http://www.w3.org/2000/svg" xmlns:xlink="http://www.w3.org/1999/xlink">
<style xmlns="http://www.w3.org/2000/svg" xmlns:xlink="http://www.w3.org/1999/xlink" type="text/css">use.ic-1 { fill: skyblue; }use.ic-2 { fill:none; stroke:#42C2FF;stroke-width:2}</style><svg id="飞机小船-03" xml:space="preserve">
<use class="ic-2" xlink:href="#archi_飞机小船-03"/></svg>
<defs>
<g id='archi_飞机小船-03'>
<defs xmlns="http://www.w3.org/2000/svg"><style>.cls-1{stroke-miterlimit:10;}</style></defs>
<path xmlns="http://www.w3.org/2000/svg" class="cls-1" d="M33.56,53.55h0a.66.66,0,0,1-.73-.56V11.58a.67.67,0,0,1,.73-.57h0a.67.67,0,0,1,.73.57V53A.66.66,0,0,1,33.56,53.55Z"/>
<path xmlns="http://www.w3.org/2000/svg" class="cls-1" d="M17.34,53.55h0a.53.53,0,0,1-.58-.45V20a.53.53,0,0,1,.58-.45h0c.33,0,.59.2.59.45V53.1C17.93,53.35,17.67,53.55,17.34,53.55Z"/>
<path xmlns="http://www.w3.org/2000/svg" class="cls-1" d="M52.22,53.55h0a.47.47,0,0,1-.52-.4V23.48a.47.47,0,0,1,.52-.4h0a.47.47,0,0,1,.52.4V53.15A.47.47,0,0,1,52.22,53.55Z"/>
<path xmlns="http://www.w3.org/2000/svg" class="cls-1" d="M37.15,4.91,19,20.59c-.17,1.58-.38,3.37-.63,5.27L43.15,12.35A33.3,33.3,0,0,0,37.15,4.91Z"/>
<path xmlns="http://www.w3.org/2000/svg" class="cls-1" d="M32.29,1.17,19.6,14.81s-.19,2.37-.56,5.78L37.15,4.91A33.22,33.22,0,0,0,32.29,1.17Z"/>
<path xmlns="http://www.w3.org/2000/svg" class="cls-1" d="M16.75,36.19a53.07,53.07,0,0,1-1.35,5.4s23.82,2.14,33.21,2.14A53.9,53.9,0,0,0,48.93,32Z"/>
<path xmlns="http://www.w3.org/2000/svg" class="cls-1" d="M47.16,21.81,17.63,31.29c-.26,1.67-.56,3.33-.88,4.9L48.93,32A51.09,51.09,0,0,0,47.16,21.81Z"/>
<path xmlns="http://www.w3.org/2000/svg" class="cls-1" d="M43.15,12.35,18.41,25.86c-.23,1.76-.49,3.6-.78,5.43l29.53-9.48A39.06,39.06,0,0,0,43.15,12.35Z"/>
<path xmlns="http://www.w3.org/2000/svg" class="cls-1" d="M18.23,17.5l-14,12.11c-.13,1.21-.29,2.6-.48,4.06l19.1-10.42A26.17,26.17,0,0,0,18.23,17.5Z"/>
<path xmlns="http://www.w3.org/2000/svg" class="cls-1" d="M14.47,14.62,4.68,25.15S4.53,27,4.24,29.61l14-12.11A25.89,25.89,0,0,0,14.47,14.62Z"/>
<path xmlns="http://www.w3.org/2000/svg" class="cls-1" d="M2.48,41.65a41.31,41.31,0,0,1-1,4.16s20.81,1.66,25.63,1.66a41.79,41.79,0,0,0,.25-9Z"/>
<path xmlns="http://www.w3.org/2000/svg" class="cls-1" d="M26,30.55,3.16,37.86c-.21,1.3-.43,2.58-.68,3.79l24.84-3.23A39.35,39.35,0,0,0,26,30.55Z"/>
<path xmlns="http://www.w3.org/2000/svg" class="cls-1" d="M22.86,23.25,3.76,33.67c-.17,1.36-.38,2.78-.6,4.19L26,30.55A30.69,30.69,0,0,0,22.86,23.25Z"/>
<path xmlns="http://www.w3.org/2000/svg" class="cls-1" d="M55,16.07,41,28.17c-.13,1.22-.29,2.6-.48,4.07L59.59,21.81A25.55,25.55,0,0,0,55,16.07Z"/>
<path xmlns="http://www.w3.org/2000/svg" class="cls-1" d="M51.21,13.19,41.42,23.71s-.15,1.83-.44,4.46l14-12.1A25.1,25.1,0,0,0,51.21,13.19Z"/>
<path xmlns="http://www.w3.org/2000/svg" class="cls-1" d="M39.22,40.21a40.7,40.7,0,0,1-1,4.17S55,46,63.8,46a42,42,0,0,0,.26-9Z"/>
<path xmlns="http://www.w3.org/2000/svg" class="cls-1" d="M62.69,29.11,39.9,36.43c-.21,1.29-.44,2.57-.68,3.78L64.06,37A40.3,40.3,0,0,0,62.69,29.11Z"/>
<path xmlns="http://www.w3.org/2000/svg" class="cls-1" d="M59.59,21.81,40.5,32.24c-.18,1.36-.38,2.78-.6,4.19l22.79-7.32A30.5,30.5,0,0,0,59.59,21.81Z"/>
<path xmlns="http://www.w3.org/2000/svg" class="cls-1" d="M53.58,47.29H42.46a.93.93,0,0,0-.93.93h0a.93.93,0,0,1-.93.93h-16a.93.93,0,0,0-.93.93V54a.93.93,0,0,0,.93.93H41.33a.93.93,0,0,0,.93-.93v-.72a.93.93,0,0,1,.93-.93H53.58a.93.93,0,0,0,.92-.93V48.22A.93.93,0,0,0,53.58,47.29Z"/>
<path xmlns="http://www.w3.org/2000/svg" class="cls-1" d="M6.43,49.15a13.8,13.8,0,0,0,6.24,10.49H55a22.44,22.44,0,0,0,3.46-6.24l9.37-1.24a17.28,17.28,0,0,0,.74-4.69L48.19,49.19a2.61,2.61,0,0,1-1.37,2C45.46,52,14.21,52.48,6.43,49.15Z"/>
<path xmlns="http://www.w3.org/2000/svg" class="cls-1" d="M6.43,49.15a13.8,13.8,0,0,0,6.24,10.49H55a22.44,22.44,0,0,0,3.46-6.24l9.37-1.24a17.28,17.28,0,0,0,.74-4.69L48.19,49.19a2.61,2.61,0,0,1-1.37,2C45.46,52,14.21,52.48,6.43,49.15Z"/>
<path xmlns="http://www.w3.org/2000/svg" class="cls-1" d="M34.79,52.74c-9.9,0-22.86-.67-28.24-2.39A.91.91,0,0,1,6,49.11H6a.91.91,0,0,1,1.12-.51C15.8,51.52,44.23,51,46.39,50.37a1.69,1.69,0,0,0,.87-1.21.91.91,0,0,1,.85-.89L68,46.62a.94.94,0,0,1,1,.85h0a.94.94,0,0,1-.85,1L48.94,50.06A3.78,3.78,0,0,1,47.3,52C46.53,52.45,41.33,52.74,34.79,52.74Z"/>
<path xmlns="http://www.w3.org/2000/svg" class="cls-1" d="M46.79,55.35c4.63,0,5.36-2.62,5.36-2.62l15.92-1.56c.06-.28.14-.61.2-1L51.69,51.81s-.73,2.61-5.36,2.61c-4.35,0-27.11,1.23-38.66-.55.14.31.29.62.46.93C19.69,56.57,42.44,55.35,46.79,55.35Z"/>
<title>archi_飞机小船-03</title>
</g>
</defs>
</svg>
